<svg width="600" height="456" viewBox="0 0 600 456" fill="none" xmlns="http://www.w3.org/2000/svg">
<path d="M77.8047 413.166L60.0447 192.569C59.5943 186.952 61.1356 181.357 64.3909 176.788L153.003 52.5277C155.37 49.2005 158.55 46.5541 162.231 44.8483C165.912 43.1421 169.968 42.4349 174 42.7959L477.375 69.9013C482.175 70.33 486.728 72.2539 490.406 75.4087C494.085 78.5634 496.714 82.7947 497.925 87.5219L539.603 250.075C540.623 254.065 540.6 258.257 539.528 262.235L498.743 413.698L77.8047 413.166Z" fill="#FFDAB8"/>
<path d="M427.875 113.575H141.762V330.6H427.875V113.575Z" fill="white" stroke="#B2B6BB" stroke-width="1.94" stroke-miterlimit="10"/>
<path d="M427.718 113.491H141.562V133.376H427.718V113.491Z" fill="#EB5310"/>
<path d="M340.35 146.851H155.49V282.853H340.35V146.851Z" fill="#DADDDF"/>
<path d="M247.919 228.806C255.524 228.806 261.689 222.558 261.689 214.852C261.689 207.146 255.524 200.898 247.919 200.898C240.315 200.898 234.149 207.146 234.149 214.852C234.149 222.558 240.315 228.806 247.919 228.806Z" fill="#EB5310"/>
<path d="M253.372 215.232L244.601 210.099V220.362L253.372 215.232Z" fill="white"/>
<path d="M418.241 147.44H349.605V175.951H418.241V147.44Z" fill="#EB5310"/>
<path opacity="0.6" d="M418.241 147.44H349.605V175.951H418.241V147.44Z" fill="white"/>
<path d="M378.825 152.14H354.089V171.25H378.825V152.14Z" fill="white"/>
<path d="M412.523 153.919H383.771C383.715 153.932 383.659 153.932 383.606 153.919C383.55 153.906 383.498 153.881 383.453 153.845C383.411 153.81 383.374 153.764 383.351 153.713C383.325 153.662 383.314 153.605 383.314 153.548C383.314 153.491 383.325 153.435 383.351 153.383C383.374 153.332 383.411 153.287 383.453 153.251C383.498 153.216 383.55 153.191 383.606 153.178C383.659 153.165 383.715 153.165 383.771 153.178H412.523C412.579 153.165 412.635 153.165 412.691 153.178C412.744 153.191 412.796 153.216 412.841 153.251C412.883 153.287 412.92 153.332 412.943 153.383C412.969 153.435 412.98 153.491 412.98 153.548C412.98 153.605 412.969 153.662 412.943 153.713C412.92 153.764 412.883 153.81 412.841 153.845C412.796 153.881 412.744 153.906 412.691 153.919C412.635 153.932 412.579 153.932 412.523 153.919Z" fill="#F4F4F4"/>
<path d="M412.68 158.935H383.925C383.828 158.935 383.73 158.895 383.659 158.824C383.591 158.753 383.55 158.656 383.55 158.555C383.55 158.454 383.591 158.357 383.659 158.286C383.73 158.215 383.828 158.175 383.925 158.175H412.68C412.781 158.175 412.875 158.215 412.946 158.286C413.018 158.357 413.055 158.454 413.055 158.555C413.055 158.656 413.018 158.753 412.946 158.824C412.875 158.895 412.781 158.935 412.68 158.935Z" fill="#F4F4F4"/>
<path d="M400.313 163.947H383.925C383.828 163.947 383.73 163.907 383.659 163.836C383.591 163.764 383.55 163.668 383.55 163.567C383.55 163.466 383.591 163.37 383.659 163.298C383.73 163.227 383.828 163.187 383.925 163.187H400.313C400.414 163.187 400.508 163.227 400.579 163.298C400.65 163.37 400.688 163.466 400.688 163.567C400.688 163.668 400.65 163.764 400.579 163.836C400.508 163.907 400.414 163.947 400.313 163.947Z" fill="#F4F4F4"/>
<path d="M365.25 154.098H367.676L374.228 169.298H371.464L369.964 165.653H362.906L361.372 169.298H358.695L365.25 154.098ZM369 163.301L366.424 157.267L363.874 163.301H369Z" fill="#DADDDF"/>
<path d="M418.241 185.668H349.605V214.179H418.241V185.668Z" fill="#EB5310"/>
<path opacity="0.6" d="M418.241 185.668H349.605V214.179H418.241V185.668Z" fill="white"/>
<path d="M378.825 190.369H354.089V209.479H378.825V190.369Z" fill="white"/>
<path d="M412.522 192.151H383.771C383.673 192.151 383.576 192.111 383.505 192.039C383.437 191.968 383.396 191.871 383.396 191.771C383.396 191.67 383.437 191.573 383.505 191.502C383.576 191.431 383.673 191.391 383.771 191.391H412.522C412.624 191.391 412.717 191.431 412.789 191.502C412.86 191.573 412.897 191.67 412.897 191.771C412.897 191.871 412.86 191.968 412.789 192.039C412.717 192.111 412.624 192.151 412.522 192.151Z" fill="#F4F4F4"/>
<path d="M412.68 197.163H383.925C383.828 197.163 383.73 197.123 383.659 197.052C383.591 196.98 383.55 196.884 383.55 196.783C383.55 196.682 383.591 196.585 383.659 196.514C383.73 196.443 383.828 196.403 383.925 196.403H412.68C412.781 196.403 412.875 196.443 412.946 196.514C413.018 196.585 413.055 196.682 413.055 196.783C413.055 196.884 413.018 196.98 412.946 197.052C412.875 197.123 412.781 197.163 412.68 197.163Z" fill="#F4F4F4"/>
<path d="M400.312 202.16H383.925C383.869 202.173 383.813 202.173 383.76 202.16C383.704 202.147 383.651 202.122 383.606 202.087C383.565 202.051 383.528 202.006 383.505 201.954C383.479 201.903 383.468 201.847 383.468 201.79C383.468 201.733 383.479 201.676 383.505 201.625C383.528 201.573 383.565 201.528 383.606 201.493C383.651 201.457 383.704 201.432 383.76 201.419C383.813 201.406 383.869 201.406 383.925 201.419H400.312C400.395 201.438 400.47 201.486 400.522 201.553C400.575 201.62 400.605 201.704 400.605 201.79C400.605 201.876 400.575 201.959 400.522 202.027C400.47 202.094 400.395 202.141 400.312 202.16Z" fill="#F4F4F4"/>
<path d="M365.25 192.325H367.676L374.228 207.525H371.464L369.964 203.881H362.906L361.372 207.525H358.695L365.25 192.325ZM369 201.529L366.424 195.494L363.874 201.529H369Z" fill="#DADDDF"/>
<path d="M418.241 223.9H349.605V252.412H418.241V223.9Z" fill="#EB5310"/>
<path opacity="0.6" d="M418.241 223.9H349.605V252.412H418.241V223.9Z" fill="white"/>
<path d="M378.825 228.596H354.089V247.707H378.825V228.596Z" fill="white"/>
<path d="M412.522 230.379H383.771C383.673 230.379 383.576 230.339 383.505 230.268C383.437 230.196 383.396 230.1 383.396 229.999C383.396 229.898 383.437 229.801 383.505 229.73C383.576 229.659 383.673 229.619 383.771 229.619H412.522C412.624 229.619 412.717 229.659 412.789 229.73C412.86 229.801 412.897 229.898 412.897 229.999C412.897 230.1 412.86 230.196 412.789 230.268C412.717 230.339 412.624 230.379 412.522 230.379Z" fill="#F4F4F4"/>
<path d="M412.68 235.391H383.925C383.828 235.391 383.73 235.351 383.659 235.279C383.591 235.208 383.55 235.111 383.55 235.011C383.55 234.91 383.591 234.813 383.659 234.742C383.73 234.671 383.828 234.631 383.925 234.631H412.68C412.781 234.631 412.875 234.671 412.946 234.742C413.018 234.813 413.055 234.91 413.055 235.011C413.055 235.111 413.018 235.208 412.946 235.279C412.875 235.351 412.781 235.391 412.68 235.391Z" fill="#F4F4F4"/>
<path d="M400.312 240.403H383.925C383.869 240.415 383.813 240.415 383.76 240.403C383.704 240.39 383.651 240.365 383.606 240.329C383.565 240.294 383.528 240.249 383.505 240.197C383.479 240.146 383.468 240.089 383.468 240.032C383.468 239.975 383.479 239.919 383.505 239.867C383.528 239.816 383.565 239.771 383.606 239.735C383.651 239.7 383.704 239.675 383.76 239.662C383.813 239.649 383.869 239.649 383.925 239.662H400.312C400.395 239.681 400.47 239.728 400.522 239.795C400.575 239.863 400.605 239.946 400.605 240.032C400.605 240.119 400.575 240.202 400.522 240.269C400.47 240.337 400.395 240.384 400.312 240.403Z" fill="#F4F4F4"/>
<path d="M365.25 230.557H367.676L374.228 245.757H371.464L369.964 242.117H362.906L361.372 245.757H358.695L365.25 230.557ZM369 239.78L366.424 233.746L363.862 239.78H369Z" fill="#DADDDF"/>
<path d="M418.241 262.128H349.605V290.64H418.241V262.128Z" fill="#EB5310"/>
<path opacity="0.6" d="M418.241 262.128H349.605V290.64H418.241V262.128Z" fill="white"/>
<path d="M378.825 266.828H354.089V285.939H378.825V266.828Z" fill="white"/>
<path d="M412.522 268.61H383.771C383.673 268.61 383.576 268.57 383.505 268.499C383.437 268.428 383.396 268.331 383.396 268.23C383.396 268.129 383.437 268.033 383.505 267.961C383.576 267.89 383.673 267.85 383.771 267.85H412.522C412.624 267.85 412.717 267.89 412.789 267.961C412.86 268.033 412.897 268.129 412.897 268.23C412.897 268.331 412.86 268.428 412.789 268.499C412.717 268.57 412.624 268.61 412.522 268.61Z" fill="#F4F4F4"/>
<path d="M412.68 273.623H383.925C383.828 273.623 383.73 273.583 383.659 273.512C383.591 273.44 383.55 273.344 383.55 273.243C383.55 273.142 383.591 273.045 383.659 272.974C383.73 272.903 383.828 272.863 383.925 272.863H412.68C412.781 272.863 412.875 272.903 412.946 272.974C413.018 273.045 413.055 273.142 413.055 273.243C413.055 273.344 413.018 273.44 412.946 273.512C412.875 273.583 412.781 273.623 412.68 273.623Z" fill="#F4F4F4"/>
<path d="M400.313 278.635H383.925C383.828 278.635 383.73 278.595 383.659 278.524C383.591 278.453 383.55 278.356 383.55 278.255C383.55 278.154 383.591 278.057 383.659 277.986C383.73 277.915 383.828 277.875 383.925 277.875H400.313C400.414 277.875 400.508 277.915 400.579 277.986C400.65 278.057 400.688 278.154 400.688 278.255C400.688 278.356 400.65 278.453 400.579 278.524C400.508 278.595 400.414 278.635 400.313 278.635Z" fill="#F4F4F4"/>
<path d="M365.25 268.785H367.676L374.228 283.985H371.464L369.964 280.341H362.906L361.372 283.985H358.695L365.25 268.785ZM369 277.989L366.424 271.955L363.874 277.989H369Z" fill="#DADDDF"/>
<path d="M169.706 319.025C176.594 319.025 182.178 313.367 182.178 306.386C182.178 299.406 176.594 293.748 169.706 293.748C162.818 293.748 157.233 299.406 157.233 306.386C157.233 313.367 162.818 319.025 169.706 319.025Z" fill="#EB5310"/>
<path d="M176.127 312.212C176.127 308.062 173.254 304.699 169.707 304.699C166.159 304.699 163.291 308.062 163.291 312.212C165.204 313.462 167.432 314.127 169.709 314.127C171.985 314.127 174.213 313.462 176.127 312.212Z" fill="#DADDDF"/>
<path d="M169.706 305.714C171.632 305.714 173.194 304.132 173.194 302.18C173.194 300.228 171.632 298.646 169.706 298.646C167.78 298.646 166.219 300.228 166.219 302.18C166.219 304.132 167.78 305.714 169.706 305.714Z" fill="white"/>
<path d="M295.444 293.865H190.605V295.765H295.444V293.865Z" fill="#B2B6BB"/>
<path d="M257.734 302.366H190.5V304.266H257.734V302.366Z" fill="#B2B6BB"/>
<path d="M194.753 310.707L196.069 313.405L199.009 313.838L196.879 315.94L197.381 318.904L194.753 317.505L192.124 318.904L192.626 315.94L190.5 313.838L193.44 313.405L194.753 310.707Z" fill="#EB5310"/>
<path d="M209.355 310.707L210.668 313.405L213.607 313.838L211.481 315.94L211.984 318.904L209.355 317.505L206.726 318.904L207.229 315.94L205.099 313.838L208.039 313.405L209.355 310.707Z" fill="#EB5310"/>
<path d="M223.954 310.707L225.27 313.405L228.21 313.838L226.08 315.94L226.583 318.904L223.954 317.505L221.325 318.904L221.828 315.94L219.702 313.838L222.642 313.405L223.954 310.707Z" fill="#EB5310"/>
<path d="M238.556 310.707L239.868 313.405L242.808 313.838L240.682 315.94L241.185 318.904L238.556 317.505L235.927 318.904L236.43 315.94L234.303 313.838L237.24 313.405L238.556 310.707Z" fill="#EB5310"/>
<path d="M253.154 310.707L254.471 313.405L257.411 313.838L255.281 315.94L255.783 318.904L253.154 317.505L250.525 318.904L251.028 315.94L248.902 313.838L251.842 313.405L253.154 310.707Z" fill="#DADDDF"/>
<path d="M253.117 317.505L250.488 318.904L250.987 315.94L248.861 313.838L251.801 313.405L253.117 310.707V317.505Z" fill="#EB5310"/>
<path d="M153.828 126.403C155.446 126.403 156.757 125.074 156.757 123.435C156.757 121.796 155.446 120.468 153.828 120.468C152.211 120.468 150.899 121.796 150.899 123.435C150.899 125.074 152.211 126.403 153.828 126.403Z" fill="white"/>
<path d="M164.669 126.403C166.287 126.403 167.598 125.074 167.598 123.435C167.598 121.796 166.287 120.468 164.669 120.468C163.052 120.468 161.741 121.796 161.741 123.435C161.741 125.074 163.052 126.403 164.669 126.403Z" fill="white"/>
<path d="M175.511 126.403C177.128 126.403 178.44 125.074 178.44 123.435C178.44 121.796 177.128 120.468 175.511 120.468C173.893 120.468 172.582 121.796 172.582 123.435C172.582 125.074 173.893 126.403 175.511 126.403Z" fill="white"/>
<path d="M513.142 414.219H65.7671C65.6178 414.219 65.475 414.158 65.3692 414.052C65.2638 413.945 65.2046 413.801 65.2046 413.649C65.2046 413.497 65.2638 413.353 65.3692 413.246C65.475 413.14 65.6178 413.079 65.7671 413.079H513.142C513.292 413.079 513.435 413.14 513.54 413.246C513.645 413.353 513.705 413.497 513.705 413.649C513.705 413.801 513.645 413.945 513.54 414.052C513.435 414.158 513.292 414.219 513.142 414.219Z" fill="#B2B6BB"/>
<path d="M329.685 349.714H422.34C424.196 349.714 426.034 350.085 427.748 350.805C429.465 351.525 431.021 352.58 432.334 353.911C433.646 355.241 434.689 356.82 435.398 358.558C436.106 360.297 436.47 362.159 436.47 364.04V370.82C436.47 374.703 434.947 378.429 432.236 381.174C429.525 383.922 425.85 385.464 422.017 385.464H329.685V349.714Z" fill="white"/>
<path d="M516.112 364.42V369.797C516.124 372.548 515.449 375.257 514.155 377.675C511.654 382.329 507 385.457 501.671 385.457H326.824C326.538 385.445 326.257 385.381 325.998 385.259C325.738 385.141 325.504 384.97 325.31 384.758C325.115 384.545 324.964 384.298 324.865 384.024C324.765 383.754 324.72 383.466 324.731 383.177V382.371C324.721 382.082 324.766 381.794 324.866 381.524C324.965 381.254 325.117 381.003 325.311 380.79C325.505 380.581 325.739 380.41 325.998 380.289C326.258 380.167 326.538 380.103 326.824 380.091H433.41C433.987 379.33 434.49 378.513 434.91 377.652C435.945 375.525 436.481 373.184 436.474 370.812V363.972C436.474 362.746 436.331 361.526 436.042 360.335C435.581 358.411 434.741 356.602 433.571 355.015H326.824C326.538 355.005 326.258 354.938 325.998 354.818C325.739 354.697 325.505 354.527 325.311 354.315C325.117 354.103 324.965 353.854 324.866 353.584C324.766 353.313 324.721 353.024 324.731 352.735V351.934C324.721 351.644 324.766 351.356 324.866 351.085C324.965 350.814 325.117 350.566 325.311 350.354C325.505 350.142 325.739 349.971 325.998 349.851C326.258 349.731 326.538 349.664 326.824 349.654H502.552C508.747 349.654 513.967 354.157 515.591 360.294C515.947 361.639 516.12 363.027 516.112 364.42Z" fill="#B2B6BB"/>
<path opacity="0.1" d="M515.591 360.37H436.039C435.578 358.446 434.738 356.636 433.568 355.05H326.823C326.538 355.039 326.258 354.972 325.998 354.852C325.739 354.732 325.505 354.561 325.311 354.349C325.116 354.137 324.965 353.889 324.866 353.618C324.766 353.347 324.72 353.058 324.731 352.77V351.968C324.72 351.679 324.766 351.39 324.866 351.119C324.965 350.848 325.116 350.6 325.311 350.388C325.505 350.176 325.739 350.006 325.998 349.885C326.258 349.765 326.538 349.698 326.823 349.688H502.553C508.748 349.714 513.968 354.217 515.591 360.37Z" fill="black"/>
<path opacity="0.1" d="M329.685 367.585L342.63 368.186L329.685 368.551V367.585Z" fill="black"/>
<path opacity="0.1" d="M329.685 373.194L360.484 373.794L329.685 374.159V373.194Z" fill="black"/>
<path d="M407.257 413.185H314.419C311.377 413.185 308.46 411.962 306.31 409.781C304.159 407.603 302.951 404.647 302.951 401.565V396.291C302.951 393.399 304.085 390.621 306.104 388.577C308.124 386.528 310.862 385.381 313.717 385.381H407.257V413.185Z" fill="#868A91"/>
<path d="M506.752 413.185H401.265C398.28 413.185 395.419 411.985 393.311 409.845C391.2 407.71 390.015 404.81 390.015 401.785V396.53C390.015 393.578 391.174 390.743 393.232 388.653C395.295 386.567 398.092 385.392 401.006 385.392H506.752V413.197V413.185Z" fill="#F4F4F4"/>
<path d="M382.901 413.189H510.495C511.414 413.189 512.156 412.437 512.156 411.506V410.715C512.156 409.784 511.414 409.032 510.495 409.032H382.901C381.982 409.032 381.24 409.784 381.24 410.715V411.506C381.24 412.437 381.982 413.189 382.901 413.189Z" fill="#868A91"/>
<path d="M382.901 389.542H510.495C511.414 389.542 512.156 388.789 512.156 387.858V387.068C512.156 386.137 511.414 385.385 510.495 385.385H382.901C381.982 385.385 381.24 386.137 381.24 387.068V387.858C381.24 388.789 381.982 389.542 382.901 389.542Z" fill="#868A91"/>
<path opacity="0.1" d="M506.741 399.285L492.589 399.753L506.741 400.034V399.285Z" fill="black"/>
<path opacity="0.1" d="M506.741 392.886L473.074 393.353L506.741 393.634V392.886Z" fill="black"/>
<path d="M473.419 393.262C474.349 394.102 475.02 395.2 475.339 396.42C475.429 396.781 475.477 397.149 475.489 397.518C475.567 400.129 475.489 406.03 475.489 406.03L479.749 403.081L483.997 406.03V398.05C483.997 396.53 483.622 395.063 482.955 394.098C482.629 393.631 482.231 393.281 481.777 393.281L473.419 393.262Z" fill="#EB5310"/>
<path opacity="0.2" d="M473.419 393.262C474.349 394.102 475.02 395.2 475.339 396.42L483.874 396.538C483.874 396.538 483.54 393.726 481.778 393.262H473.419Z" fill="black"/>
<path d="M306.259 308.94H394.553C398.835 308.94 402.945 310.664 405.975 313.734C409.001 316.803 410.704 320.966 410.704 325.307V333.055C410.704 337.489 408.968 341.742 405.87 344.878C402.776 348.013 398.58 349.775 394.204 349.775H306.259V308.94Z" fill="white"/>
<path d="M410.752 324.79V333.583C410.73 337.337 409.012 340.594 406.489 342.323C405.255 343.191 403.789 343.66 402.285 343.668H303.509C302.351 343.668 301.414 344.808 301.414 346.203V347.24C301.414 348.642 302.351 349.779 303.509 349.779H474.135C479.032 349.779 483.356 346.834 485.97 342.323C487.71 339.274 488.617 335.809 488.595 332.287V325.364C488.602 322.916 488.145 320.49 487.245 318.22C485.055 312.74 480.409 308.94 475.027 308.94H303.509C302.351 308.94 301.414 310.08 301.414 311.475V312.512C301.414 313.914 302.351 315.05 303.509 315.05H402.589C404.955 315.05 407.089 316.27 408.589 318.22C409.999 320.111 410.76 322.419 410.752 324.79Z" fill="#868A91"/>
<path opacity="0.1" d="M301.414 346.215V347.252C301.414 348.654 302.351 349.79 303.509 349.79H474.135C479.032 349.79 483.356 346.845 485.97 342.335H406.5C405.266 343.203 403.8 343.672 402.296 343.68H303.509C302.351 343.68 301.414 344.816 301.414 346.215Z" fill="black"/>
<path opacity="0.1" d="M306.259 329.365L318.923 330.053L306.259 330.463V329.365Z" fill="black"/>
<path opacity="0.1" d="M306.259 319.964L336.383 320.652L306.259 321.062V319.964Z" fill="black"/>
<path d="M336.071 320.515C336.071 320.515 334.084 321.811 333.428 323.935C333.306 324.32 333.237 324.721 333.221 325.125C333.113 327.956 333.221 334.359 333.221 334.359L327.353 331.155L321.495 334.359V325.683C321.495 324.042 321.998 322.446 322.931 321.401C323.126 321.147 323.37 320.937 323.649 320.785C323.928 320.632 324.236 320.54 324.551 320.515H336.071Z" fill="#EB5310"/>
<path opacity="0.2" d="M336.071 320.515C336.071 320.515 334.084 321.81 333.427 323.935L321.664 324.06C321.664 324.06 322.124 321.02 324.551 320.511L336.071 320.515Z" fill="black"/>
<path d="M109.623 308.476C109.183 308.481 108.749 308.586 108.354 308.784C107.959 308.981 107.612 309.265 107.34 309.616C103.627 314.45 102.877 324.641 104.407 327.286C106.207 330.402 104.347 331.519 104.782 334.339C105.135 336.619 108.307 338.359 109.485 338.933C109.622 338.999 109.771 339.033 109.923 339.033C110.075 339.033 110.225 338.999 110.362 338.933C111.581 338.336 114.945 336.493 115.237 334.183C115.586 331.352 113.692 330.292 115.402 327.123C116.853 324.432 115.8 314.267 111.948 309.548C111.663 309.208 111.307 308.937 110.905 308.754C110.504 308.571 110.067 308.481 109.627 308.491" fill="#EB5310"/>
<g opacity="0.4">
<g opacity="0.4">
<path opacity="0.4" d="M109.623 308.476C109.183 308.481 108.749 308.586 108.354 308.784C107.959 308.981 107.612 309.265 107.34 309.616C103.627 314.45 102.877 324.641 104.407 327.286C106.207 330.402 104.347 331.519 104.782 334.339C105.135 336.619 108.307 338.359 109.485 338.933C109.622 338.999 109.771 339.033 109.923 339.033C110.075 339.033 110.225 338.999 110.362 338.933C111.581 338.336 114.945 336.493 115.237 334.183C115.586 331.352 113.692 330.292 115.402 327.123C116.853 324.432 115.8 314.267 111.948 309.548C111.663 309.208 111.307 308.937 110.905 308.754C110.504 308.571 110.067 308.481 109.627 308.491" fill="white"/>
</g>
</g>
<path d="M135.829 336.262C135.498 335.968 135.106 335.753 134.682 335.633C134.259 335.513 133.814 335.49 133.38 335.567C127.44 336.707 120.21 343.824 119.625 346.83C118.939 350.375 116.813 349.961 115.294 352.363C114.06 354.312 115.294 357.744 115.812 358.963C115.87 359.105 115.959 359.231 116.073 359.333C116.187 359.434 116.322 359.508 116.468 359.549C117.773 359.929 121.497 360.803 123.218 359.264C125.329 357.364 124.605 355.315 127.958 354.088C130.8 353.051 136.665 344.732 136.868 338.611C136.877 338.165 136.788 337.723 136.607 337.316C136.426 336.91 136.158 336.55 135.822 336.262" fill="#EB5310"/>
<path d="M82.6054 342.824C82.3234 343.06 82.0969 343.358 81.9431 343.695C81.7894 344.031 81.7121 344.398 81.7166 344.769C81.8366 349.861 86.6441 356.827 89.0029 357.716C91.7816 358.761 91.1629 360.475 92.9066 362.059C94.3204 363.344 97.2679 362.77 98.3216 362.512C98.4442 362.481 98.5582 362.423 98.6557 362.341C98.7529 362.259 98.8309 362.157 98.8841 362.041C99.3604 361.007 100.572 358.028 99.5554 356.386C98.3141 354.376 96.5554 354.702 95.9966 351.75C95.5354 349.242 89.5804 343.253 84.6491 342.269C84.2891 342.2 83.9186 342.214 83.5646 342.31C83.211 342.406 82.8829 342.582 82.6054 342.824Z" fill="#EB5310"/>
<path d="M127.293 354.201C127.035 354.014 126.737 353.888 126.424 353.832C126.11 353.777 125.789 353.794 125.482 353.882C121.278 355.121 116.572 360.779 116.362 363.002C116.115 365.605 114.555 365.461 113.628 367.3C112.878 368.793 114.003 371.176 114.465 372.02C114.518 372.117 114.591 372.202 114.68 372.268C114.769 372.333 114.871 372.378 114.978 372.4C115.946 372.574 118.691 372.939 119.827 371.708C121.218 370.188 120.551 368.759 122.88 367.638C124.856 366.681 128.505 360.262 128.212 355.858C128.189 355.536 128.094 355.223 127.935 354.943C127.776 354.663 127.557 354.423 127.293 354.239" fill="#EB5310"/>
<path d="M95.862 323.71C95.5125 323.82 95.1919 324.008 94.923 324.26C94.6545 324.511 94.4449 324.821 94.3095 325.166C92.5058 329.919 94.332 338.219 96.1845 339.951C98.3595 341.992 97.1445 343.337 98.157 345.473C98.982 347.209 101.907 347.814 102.998 347.981C103.123 347.999 103.25 347.99 103.37 347.952C103.49 347.915 103.6 347.85 103.692 347.764C104.521 347.004 106.763 344.724 106.441 342.794C106.047 340.457 104.288 340.073 104.896 337.132C105.41 334.639 102.155 326.803 97.9658 323.984C97.6583 323.782 97.3099 323.653 96.9465 323.606C96.5832 323.558 96.2138 323.594 95.8658 323.71" fill="#EB5310"/>
<path d="M125.059 324.832C124.735 324.658 124.377 324.56 124.011 324.544C123.645 324.529 123.28 324.598 122.944 324.744C118.35 326.815 113.85 333.993 113.944 336.524C114.06 339.526 112.26 339.606 111.488 341.844C110.862 343.661 112.515 346.195 113.16 347.084C113.235 347.187 113.331 347.272 113.442 347.331C113.553 347.391 113.676 347.425 113.802 347.43C114.927 347.48 118.11 347.464 119.213 345.884C120.567 343.949 119.588 342.418 122.07 340.773C124.174 339.378 127.343 331.504 126.345 326.511C126.269 326.149 126.113 325.809 125.89 325.515C125.667 325.222 125.382 324.983 125.055 324.816" fill="#EB5310"/>
<g opacity="0.2">
<g opacity="0.2">
<path opacity="0.2" d="M95.862 323.71C95.5125 323.82 95.1919 324.008 94.923 324.26C94.6545 324.511 94.4449 324.821 94.3095 325.166C92.5058 329.919 94.332 338.219 96.1845 339.951C98.3595 341.992 97.1445 343.337 98.157 345.473C98.982 347.209 101.907 347.814 102.998 347.981C103.123 347.999 103.25 347.99 103.37 347.952C103.49 347.915 103.6 347.85 103.692 347.764C104.521 347.004 106.763 344.724 106.441 342.794C106.047 340.457 104.288 340.073 104.896 337.132C105.41 334.639 102.155 326.803 97.9658 323.984C97.6583 323.782 97.3099 323.653 96.9465 323.606C96.5832 323.558 96.2138 323.594 95.8658 323.71" fill="white"/>
</g>
</g>
<g opacity="0.2">
<g opacity="0.2">
<path opacity="0.2" d="M125.059 324.832C124.735 324.658 124.377 324.56 124.011 324.544C123.645 324.529 123.28 324.598 122.944 324.744C118.35 326.815 113.85 333.993 113.944 336.524C114.06 339.526 112.26 339.606 111.488 341.844C110.862 343.661 112.515 346.195 113.16 347.084C113.235 347.187 113.331 347.272 113.442 347.331C113.553 347.391 113.676 347.425 113.802 347.43C114.927 347.48 118.11 347.464 119.213 345.884C120.567 343.949 119.588 342.418 122.07 340.773C124.174 339.378 127.343 331.504 126.345 326.511C126.269 326.149 126.113 325.809 125.89 325.515C125.667 325.222 125.382 324.983 125.055 324.816" fill="white"/>
</g>
</g>
<path d="M108.803 325.945C108.439 325.933 108.077 326.004 107.744 326.151C107.41 326.299 107.114 326.521 106.876 326.8C103.639 330.698 102.702 339.146 103.876 341.392C105.274 344.052 103.692 344.91 103.966 347.266C104.187 349.166 106.771 350.724 107.734 351.234C107.846 351.293 107.969 351.326 108.095 351.331C108.221 351.335 108.346 351.312 108.462 351.26C109.493 350.804 112.347 349.379 112.658 347.46C113.033 345.119 111.496 344.177 113.014 341.597C114.304 339.408 113.746 330.926 110.689 326.879C110.464 326.587 110.177 326.35 109.849 326.186C109.521 326.021 109.161 325.934 108.796 325.929" fill="#EB5310"/>
<path d="M95.3438 363.975C95.1086 364.141 94.9129 364.359 94.7715 364.611C94.6301 364.864 94.5461 365.145 94.5263 365.435C94.2938 369.425 97.6088 375.185 99.4013 376.033C101.505 377.036 100.901 378.332 102.176 379.685C103.2 380.783 105.551 380.528 106.38 380.392C106.477 380.376 106.57 380.338 106.651 380.281C106.732 380.224 106.8 380.152 106.849 380.065C107.287 379.305 108.424 377.025 107.734 375.687C106.894 374.034 105.484 374.167 105.251 371.826C105.049 369.839 100.774 364.766 97.0013 363.671C96.7241 363.595 96.4339 363.583 96.1515 363.636C95.8691 363.688 95.6021 363.804 95.37 363.975" fill="#EB5310"/>
<g opacity="0.2">
<g opacity="0.2">
<path opacity="0.2" d="M127.293 354.201C127.035 354.014 126.737 353.888 126.424 353.832C126.11 353.777 125.789 353.794 125.482 353.882C121.278 355.121 116.572 360.779 116.362 363.002C116.115 365.605 114.555 365.461 113.628 367.3C112.878 368.793 114.003 371.176 114.465 372.02C114.518 372.117 114.591 372.202 114.68 372.268C114.769 372.333 114.871 372.378 114.978 372.4C115.946 372.574 118.691 372.939 119.827 371.708C121.218 370.188 120.551 368.759 122.88 367.638C124.856 366.681 128.505 360.262 128.212 355.858C128.189 355.536 128.094 355.223 127.935 354.943C127.776 354.663 127.557 354.423 127.293 354.239" fill="black"/>
</g>
</g>
<g opacity="0.2">
<g opacity="0.2">
<path opacity="0.2" d="M108.803 325.945C108.439 325.933 108.077 326.004 107.744 326.151C107.41 326.299 107.114 326.521 106.876 326.8C103.639 330.698 102.702 339.146 103.876 341.392C105.274 344.052 103.692 344.91 103.966 347.266C104.187 349.166 106.771 350.724 107.734 351.234C107.846 351.293 107.969 351.326 108.095 351.331C108.221 351.335 108.346 351.312 108.462 351.26C109.493 350.804 112.347 349.379 112.658 347.46C113.033 345.119 111.496 344.177 113.014 341.597C114.304 339.408 113.746 330.926 110.689 326.879C110.464 326.587 110.177 326.35 109.849 326.186C109.521 326.021 109.161 325.934 108.796 325.929" fill="black"/>
</g>
</g>
<g opacity="0.2">
<g opacity="0.2">
<path opacity="0.2" d="M95.3438 363.975C95.1086 364.141 94.9129 364.359 94.7715 364.611C94.6301 364.864 94.5461 365.145 94.5263 365.435C94.2938 369.425 97.6088 375.185 99.4013 376.033C101.505 377.036 100.901 378.332 102.176 379.685C103.2 380.783 105.551 380.528 106.38 380.392C106.477 380.376 106.57 380.338 106.651 380.281C106.732 380.224 106.8 380.152 106.849 380.065C107.287 379.305 108.424 377.025 107.734 375.687C106.894 374.034 105.484 374.167 105.251 371.826C105.049 369.839 100.774 364.766 97.0013 363.671C96.7241 363.595 96.4339 363.583 96.1515 363.636C95.8691 363.688 95.6021 363.804 95.37 363.975" fill="black"/>
</g>
</g>
<path d="M109.474 385.932L109.178 385.841C109.249 385.597 116.43 361.581 127.335 354.813L127.496 355.079C116.693 361.786 109.545 385.689 109.474 385.932Z" fill="#EB5310"/>
<path d="M109.013 385.924C108.027 379.768 95.7904 365.069 95.6704 364.921L95.9067 364.716C96.4129 365.324 108.315 379.631 109.317 385.875L109.013 385.924Z" fill="#EB5310"/>
<path d="M109.396 385.898L109.088 385.86L110.532 373.224C111.321 366.095 114.334 359.409 119.134 354.137L135.034 336.736L135.263 336.949L119.359 354.349C114.607 359.574 111.622 366.197 110.839 373.258L109.396 385.898Z" fill="#EB5310"/>
<path d="M108.964 385.94C108.885 385.651 100.733 356.679 83.1416 343.501L83.3254 343.246C101.003 356.501 109.182 385.563 109.264 385.856L108.964 385.94Z" fill="#EB5310"/>
<path d="M108.725 327.395L108.417 327.399L109.102 385.871L109.41 385.867L108.725 327.395Z" fill="#EB5310"/>
<path d="M108.934 366.939C108.627 348.399 124.396 325.645 124.557 325.417L124.808 325.599C124.651 325.827 108.938 348.498 109.242 366.932L108.934 366.939Z" fill="#EB5310"/>
<path d="M108.933 367.805C108.558 360.699 95.7708 324.865 95.6395 324.516L95.932 324.409C96.0595 324.77 108.858 360.639 109.241 367.786L108.933 367.805Z" fill="#EB5310"/>
<path d="M109.547 309.258L109.239 309.27L109.858 325.959L110.165 325.947L109.547 309.258Z" fill="#EB5310"/>
<path d="M96.0303 368.985L95.9092 369.275L100.549 371.261L100.67 370.97L96.0303 368.985Z" fill="#EB5310"/>
<path d="M83.8567 348.412L83.7408 348.7L91.8352 352.044L91.9511 351.756L83.8567 348.412Z" fill="#EB5310"/>
<path d="M94.6924 329.393L94.4502 329.585L99.8622 336.585L100.104 336.393L94.6924 329.393Z" fill="#EB5310"/>
<path d="M111.542 333.842L108.756 343.872L109.055 343.957L111.841 333.927L111.542 333.842Z" fill="#EB5310"/>
<path d="M119.015 328.328L117.883 336.739L118.192 336.782L119.323 328.37L119.015 328.328Z" fill="#EB5310"/>
<path d="M125.655 347.32L125.358 347.24C126.108 344.2 127.282 339.602 127.312 339.378H127.62C127.62 339.538 126.247 344.975 125.655 347.305" fill="#EB5310"/>
<path d="M125.31 360.882L118.412 365.027L118.569 365.295L125.467 361.15L125.31 360.882Z" fill="#EB5310"/>
<g opacity="0.3">
<g opacity="0.3">
<path opacity="0.3" d="M109.474 385.932L109.178 385.841C109.249 385.597 116.43 361.581 127.335 354.813L127.497 355.079C116.693 361.786 109.545 385.689 109.474 385.932Z" fill="black"/>
<path opacity="0.3" d="M109.013 385.924C108.027 379.768 95.7903 365.069 95.6703 364.921L95.9065 364.716C96.4128 365.324 108.315 379.631 109.317 385.875L109.013 385.924Z" fill="black"/>
<path opacity="0.3" d="M109.396 385.898L109.088 385.86L110.532 373.225C111.321 366.096 114.335 359.41 119.135 354.137L135.035 336.737L135.263 336.95L119.36 354.35C114.607 359.575 111.622 366.198 110.84 373.259L109.396 385.898Z" fill="black"/>
<path opacity="0.3" d="M108.964 385.94C108.885 385.651 100.733 356.679 83.1416 343.501L83.3254 343.246C101.003 356.501 109.182 385.563 109.264 385.856L108.964 385.94Z" fill="black"/>
<path opacity="0.3" d="M108.725 327.395L108.417 327.399L109.102 385.871L109.409 385.867L108.725 327.395Z" fill="black"/>
<path opacity="0.3" d="M108.935 366.939C108.627 348.399 124.396 325.645 124.557 325.417L124.808 325.599C124.651 325.827 108.938 348.498 109.242 366.932L108.935 366.939Z" fill="black"/>
<path opacity="0.3" d="M108.933 367.805C108.558 360.699 95.7709 324.865 95.6396 324.516L95.9321 324.409C96.0596 324.77 108.858 360.639 109.241 367.786L108.933 367.805Z" fill="black"/>
<path opacity="0.3" d="M109.548 309.258L109.241 309.27L109.859 325.959L110.166 325.947L109.548 309.258Z" fill="black"/>
<path opacity="0.3" d="M96.0303 368.985L95.9092 369.275L100.549 371.261L100.67 370.97L96.0303 368.985Z" fill="black"/>
<path opacity="0.3" d="M83.8567 348.412L83.7408 348.701L91.8352 352.045L91.9511 351.756L83.8567 348.412Z" fill="black"/>
<path opacity="0.3" d="M94.6923 329.393L94.4501 329.585L99.8621 336.585L100.104 336.393L94.6923 329.393Z" fill="black"/>
<path opacity="0.3" d="M111.542 333.842L108.756 343.872L109.056 343.957L111.841 333.927L111.542 333.842Z" fill="black"/>
<path opacity="0.3" d="M119.014 328.328L117.883 336.739L118.192 336.782L119.323 328.371L119.014 328.328Z" fill="black"/>
<path opacity="0.3" d="M125.655 347.32L125.358 347.24C126.108 344.2 127.282 339.602 127.312 339.378H127.62C127.62 339.538 126.247 344.976 125.655 347.305" fill="black"/>
<path opacity="0.3" d="M125.31 360.882L118.412 365.027L118.569 365.295L125.467 361.15L125.31 360.882Z" fill="black"/>
</g>
</g>
<path d="M114.941 412.908H103.691C102.106 412.908 100.587 412.27 99.4661 411.133C98.3452 410.001 97.7149 408.458 97.7137 406.855V386.266H120.911V406.855C120.911 408.458 120.282 410.001 119.162 411.133C118.041 412.27 116.522 412.908 114.937 412.908" fill="#868A91"/>
<path d="M109.471 412.908H114.942C115.727 412.908 116.503 412.752 117.228 412.448C117.953 412.144 118.611 411.696 119.166 411.133C119.721 410.571 120.161 409.906 120.461 409.169C120.761 408.435 120.916 407.649 120.916 406.855V388.793L97.782 389.086L97.7183 390.089H114.751V407.269C114.751 407.269 115.988 412.908 109.501 412.908" fill="#606266"/>
<path d="M121.474 389.086H96.8516C96.6716 389.086 96.4991 389.014 96.3716 388.884C96.2445 388.755 96.1729 388.58 96.1729 388.398V386.958C96.1725 386.867 96.1897 386.775 96.2235 386.692C96.2572 386.608 96.3071 386.532 96.3705 386.468C96.4335 386.403 96.5085 386.354 96.591 386.319C96.6735 386.285 96.762 386.266 96.8516 386.266H121.474C121.564 386.266 121.652 386.285 121.735 386.319C121.817 386.354 121.892 386.403 121.955 386.468C122.019 386.532 122.068 386.608 122.102 386.692C122.136 386.775 122.153 386.867 122.153 386.958V388.398C122.153 388.58 122.081 388.755 121.954 388.884C121.827 389.014 121.654 389.086 121.474 389.086Z" fill="#868A91"/>
<path d="M122.152 388.398V386.958C122.149 386.863 122.128 386.772 122.09 386.684C122.051 386.601 121.997 386.521 121.929 386.456C121.86 386.392 121.781 386.342 121.694 386.312C121.607 386.278 121.514 386.262 121.421 386.266H116.546V389.086H121.421C121.514 389.09 121.606 389.074 121.693 389.04C121.78 389.01 121.859 388.96 121.927 388.896C121.995 388.831 122.05 388.755 122.088 388.668C122.127 388.584 122.149 388.493 122.152 388.398Z" fill="#606266"/>
<path d="M165 161.884H108V183.92H165V161.884Z" fill="#EB5310"/>
<path d="M159 190V182.4H152.625L159 190Z" fill="#EB5310"/>
<path d="M124.739 174.464H128.754V175.389H123.616V166.804H124.739V174.464ZM132.472 175.507C131.619 175.507 130.924 175.224 130.389 174.658C129.854 174.088 129.586 173.328 129.586 172.376V172.176C129.586 171.543 129.705 170.979 129.941 170.483C130.182 169.984 130.515 169.595 130.942 169.316C131.373 169.033 131.838 168.891 132.339 168.891C133.157 168.891 133.793 169.164 134.247 169.711C134.701 170.257 134.928 171.04 134.928 172.058V172.512H130.663C130.678 173.141 130.858 173.65 131.204 174.039C131.553 174.424 131.995 174.617 132.531 174.617C132.911 174.617 133.233 174.538 133.497 174.381C133.76 174.224 133.991 174.015 134.189 173.756L134.847 174.275C134.319 175.096 133.528 175.507 132.472 175.507ZM132.339 169.787C131.904 169.787 131.539 169.949 131.245 170.271C130.95 170.589 130.767 171.038 130.698 171.616H133.851V171.533C133.821 170.979 133.673 170.55 133.409 170.247C133.146 169.941 132.789 169.787 132.339 169.787ZM140.066 175.389C140.004 175.264 139.954 175.039 139.915 174.717C139.414 175.244 138.817 175.507 138.123 175.507C137.502 175.507 136.992 175.331 136.592 174.977C136.197 174.619 135.999 174.167 135.999 173.621C135.999 172.956 136.247 172.441 136.744 172.075C137.244 171.706 137.946 171.521 138.85 171.521H139.897V171.02C139.897 170.639 139.785 170.336 139.56 170.112C139.335 169.884 139.003 169.77 138.565 169.77C138.181 169.77 137.859 169.868 137.599 170.064C137.339 170.261 137.209 170.499 137.209 170.778H136.127C136.127 170.46 136.237 170.153 136.458 169.858C136.683 169.559 136.986 169.323 137.366 169.151C137.75 168.978 138.171 168.891 138.629 168.891C139.354 168.891 139.923 169.076 140.334 169.445C140.745 169.811 140.959 170.316 140.974 170.961V173.898C140.974 174.483 141.048 174.949 141.195 175.295V175.389H140.066ZM138.28 174.558C138.617 174.558 138.937 174.469 139.24 174.293C139.543 174.116 139.762 173.886 139.897 173.603V172.294H139.054C137.735 172.294 137.075 172.685 137.075 173.467C137.075 173.809 137.188 174.077 137.413 174.269C137.638 174.461 137.927 174.558 138.28 174.558ZM145.705 169.988C145.542 169.96 145.366 169.947 145.176 169.947C144.469 169.947 143.99 170.251 143.738 170.861V175.389H142.662V169.009H143.709L143.727 169.746C144.079 169.176 144.58 168.891 145.228 168.891C145.437 168.891 145.596 168.919 145.705 168.974V169.988ZM147.718 169.009L147.753 169.811C148.234 169.198 148.863 168.891 149.639 168.891C150.969 168.891 151.641 169.652 151.652 171.173V175.389H150.576V171.167C150.572 170.707 150.467 170.367 150.261 170.147C150.06 169.927 149.743 169.817 149.313 169.817C148.964 169.817 148.657 169.911 148.393 170.1C148.129 170.289 147.924 170.536 147.777 170.843V175.389H146.7V169.009H147.718Z" fill="black"/>
<path d="M321 241.68H378V219.644H321V241.68Z" fill="#EB5310"/>
<path d="M327 247.76V240.16H333.375L327 247.76Z" fill="#EB5310"/>
<path d="M342.67 233.149H341.547V229.181H337.276V233.149H336.159V224.564H337.276V228.255H341.547V224.564H342.67V233.149ZM347.099 233.267C346.245 233.267 345.551 232.984 345.015 232.418C344.48 231.848 344.213 231.087 344.213 230.136V229.936C344.213 229.303 344.331 228.739 344.567 228.243C344.808 227.744 345.141 227.355 345.568 227.076C345.999 226.793 346.464 226.651 346.965 226.651C347.783 226.651 348.42 226.924 348.873 227.471C349.328 228.017 349.554 228.799 349.554 229.817V230.272H345.289C345.305 230.901 345.485 231.41 345.83 231.799C346.179 232.184 346.622 232.377 347.157 232.377C347.537 232.377 347.859 232.298 348.123 232.141C348.387 231.983 348.617 231.775 348.815 231.516L349.473 232.035C348.945 232.856 348.154 233.267 347.099 233.267ZM346.965 227.547C346.53 227.547 346.166 227.708 345.871 228.031C345.576 228.349 345.394 228.798 345.324 229.376H348.478V229.293C348.447 228.739 348.299 228.31 348.036 228.007C347.772 227.701 347.415 227.547 346.965 227.547ZM351.975 233.149H350.898V224.092H351.975V233.149ZM354.873 233.149H353.796V224.092H354.873V233.149ZM356.316 229.9C356.316 229.275 356.436 228.713 356.677 228.214C356.921 227.715 357.259 227.329 357.689 227.058C358.124 226.787 358.619 226.651 359.173 226.651C360.031 226.651 360.723 226.952 361.251 227.553C361.782 228.155 362.048 228.955 362.048 229.953V230.03C362.048 230.651 361.929 231.209 361.693 231.705C361.46 232.196 361.125 232.579 360.686 232.854C360.252 233.13 359.751 233.267 359.185 233.267C358.331 233.267 357.639 232.967 357.108 232.365C356.58 231.763 356.316 230.967 356.316 229.977V229.9ZM357.398 230.03C357.398 230.737 357.56 231.306 357.881 231.734C358.207 232.162 358.642 232.377 359.185 232.377C359.732 232.377 360.167 232.161 360.488 231.728C360.81 231.292 360.971 230.682 360.971 229.9C360.971 229.2 360.807 228.634 360.477 228.202C360.151 227.765 359.717 227.547 359.173 227.547C358.642 227.547 358.213 227.762 357.887 228.19C357.561 228.619 357.398 229.232 357.398 230.03ZM364.602 230.726H363.631L363.555 224.564H364.684L364.602 230.726ZM363.514 232.601C363.514 232.424 363.567 232.276 363.671 232.159C363.78 232.037 363.939 231.976 364.149 231.976C364.358 231.976 364.517 232.037 364.626 232.159C364.734 232.276 364.789 232.424 364.789 232.601C364.789 232.778 364.734 232.925 364.626 233.043C364.517 233.157 364.358 233.214 364.149 233.214C363.939 233.214 363.78 233.157 363.671 233.043C363.567 232.925 363.514 232.778 363.514 232.601Z" fill="black"/>
<path d="M333.142 372.962L349.818 384.613C350.123 384.834 350.47 384.986 350.838 385.062C351.205 385.138 351.584 385.138 351.95 385.054C352.316 384.97 352.661 384.811 352.962 384.587C353.263 384.362 353.515 384.074 353.699 383.743C354.174 382.869 354.559 381.946 354.847 380.992C355.056 380.327 355.413 379.718 355.889 379.213L373.679 360.24L380.737 352.26L373.053 343.273L349.657 373.635C349.536 373.802 349.368 373.929 349.176 373.999C348.984 374.07 348.776 374.083 348.577 374.034L336.873 370.926C335.836 370.636 334.734 370.687 333.727 371.07C332.857 371.427 332.215 372.02 333.142 372.962Z" fill="#FC9D9D"/>
<path opacity="0.15" d="M355.875 379.213C355.399 379.718 355.042 380.327 354.833 380.992C354.541 381.961 354.148 382.892 353.663 383.777C353.473 384.1 353.219 384.381 352.917 384.602C352.615 384.822 352.271 384.974 351.907 385.054C351.544 385.13 351.168 385.13 350.804 385.054C350.44 384.978 350.095 384.826 349.793 384.606L333.128 372.962C332.982 372.861 332.874 372.712 332.821 372.541C332.768 372.369 332.773 372.185 332.835 372.016L349.38 382.74C351.161 383.986 352.38 382.189 353.044 380.741C353.63 379.449 354.388 378.244 355.294 377.158L378.307 349.467L380.707 352.271L373.65 360.251L355.875 379.213Z" fill="black"/>
<path d="M339.784 371.708L336.874 370.948C335.836 370.659 334.735 370.709 333.728 371.093C332.858 371.438 332.228 372.024 333.143 372.993L349.819 384.644C350.124 384.864 350.472 385.016 350.839 385.092C351.206 385.168 351.585 385.168 351.951 385.085C352.317 385.001 352.662 384.841 352.963 384.617C353.265 384.393 353.515 384.104 353.7 383.774C354.175 382.899 354.559 381.976 354.848 381.022C354.97 380.639 355.141 380.277 355.358 379.939C338.689 374.767 339.784 371.708 339.784 371.708Z" fill="#EB5310"/>
<path opacity="0.3" d="M332.708 371.944C332.641 372.226 332.75 372.564 333.143 372.963L349.82 384.613C350.173 384.864 350.579 385.027 351.007 385.088C351.434 385.145 351.869 385.1 352.276 384.955L332.708 371.944Z" fill="black"/>
<path d="M405.619 324.33H389.869C386.726 324.33 384 326.04 380.531 330.839L349.875 372.02L357.375 378.1L393.619 343.14L405.619 324.33Z" fill="#EB5310"/>
<path d="M430.688 267.71L421.384 269.166C418.823 269.671 416.404 273.148 415.759 275.709L404.434 301.549L412.684 323.589L453.934 324.349C453.934 324.349 454.309 307.629 456.184 300.409L468.619 298.775L461.869 273.353C461.52 272.031 460.785 270.846 459.758 269.952C458.734 269.059 457.47 268.499 456.128 268.345L444.18 266.969L430.688 267.71Z" fill="#3F4249"/>
<path opacity="0.2" d="M418.17 284.069C418.447 283.588 418.552 283.023 418.462 282.473C418.369 281.964 418.087 281.713 417.375 283.1C416.006 285.726 412.346 295.001 410.625 298.68C410.625 298.68 412.125 308.18 411.75 311.98H417.341C417.341 311.98 418.031 301.959 415.335 298.205C414.386 296.848 413.996 295.168 414.251 293.523C414.529 291.612 416.126 287.774 418.17 284.069Z" fill="black"/>
<path opacity="0.2" d="M401.362 324.33H391.935C391.935 324.33 383.092 326.99 384.375 336.638C384.945 340.917 385.462 345.26 383.284 348.969L355.5 376.2H355.526L357.401 378.1L392.895 343.9L403.342 327.636L401.362 324.33Z" fill="black"/>
<path d="M448.732 237.185C448.732 237.185 461.618 237.093 462.323 249.595C462.371 250.473 462.349 251.355 462.42 252.233C462.683 255.493 463.545 261.953 466.17 264.514L464.422 265.035C464.422 265.035 461.797 261.725 461.696 258.875C461.696 258.875 460.751 262.998 462.019 265.745C462.019 265.745 458.318 268.527 449.164 268.839C449.164 268.839 445.556 262.496 448.616 255.668C448.759 255.345 448.927 255.033 449.1 254.722C449.554 253.901 450.825 251.058 449.648 246.491L448.732 237.185Z" fill="black"/>
<path d="M452.231 242.557C452.355 239.154 450.36 236.314 447.769 236.215C445.178 236.116 442.973 238.795 442.845 242.199C442.721 245.603 444.716 248.442 447.307 248.541C449.899 248.64 452.104 245.961 452.231 242.557Z" fill="#EB5310"/>
<path d="M439.973 259.137C442.095 258.693 444.049 257.65 445.609 256.127C447.169 254.604 448.275 252.665 448.793 250.534C450.728 243.314 449.381 239.738 447.555 235.657C446.183 232.582 440.498 227.905 434.145 228.957C427.733 230.021 424.144 233.464 423.341 239.35C421.841 250.366 429.555 264.396 439.973 259.137Z" fill="black"/>
<path d="M397.144 400.193L416.175 393.167C416.528 393.041 416.854 392.844 417.128 392.582C417.401 392.323 417.615 392.008 417.761 391.658C417.908 391.309 417.983 390.932 417.975 390.552C417.968 390.172 417.881 389.8 417.724 389.454C417.293 388.557 416.775 387.706 416.175 386.912C415.759 386.35 415.478 385.7 415.35 385.012L409.256 359.324L406.939 348.881L396.386 350.021L407.261 386.935C407.329 387.132 407.336 387.349 407.28 387.55C407.224 387.756 407.111 387.938 406.954 388.075L397.673 395.945C396.84 396.636 396.244 397.575 395.97 398.627C395.745 399.539 395.843 400.41 397.144 400.193Z" fill="#FC9D9D"/>
<path opacity="0.15" d="M415.346 385.024C415.477 385.712 415.759 386.361 416.175 386.924C416.79 387.726 417.315 388.588 417.75 389.5C417.904 389.846 417.982 390.218 417.982 390.595C417.986 390.971 417.907 391.343 417.761 391.689C417.611 392.035 417.394 392.346 417.124 392.605C416.85 392.859 416.527 393.057 416.175 393.179L397.155 400.201C396.99 400.262 396.806 400.266 396.637 400.209C396.469 400.152 396.326 400.041 396.225 399.893L414.435 392.438C416.467 391.678 415.736 389.633 414.949 388.258C414.251 387.019 413.722 385.693 413.377 384.309L404.43 349.262L406.95 348.905L409.267 359.347L415.346 385.024Z" fill="black"/>
<path d="M442.391 249.926L445.575 266.931L444.311 267.797C439.5 270.94 432.375 272.08 430.695 267.713L431.224 256.146L442.391 249.926Z" fill="#FC9D9D"/>
<path opacity="0.15" d="M431.003 260.383C432.469 260.968 432.308 261.257 433.856 261.071L434.921 260.915C435.049 260.902 435.176 260.87 435.296 260.82H435.371C435.563 260.752 435.746 260.725 435.983 260.645C436.058 260.645 436.133 260.585 436.208 260.573C437.25 260.241 438.221 259.716 439.076 259.027C439.099 259.003 439.129 258.984 439.163 258.973C439.196 258.966 439.23 258.966 439.264 258.973C439.298 258.976 439.328 258.985 439.358 259C439.388 259.015 439.414 259.037 439.433 259.065C439.478 259.119 439.5 259.188 439.5 259.258C439.493 259.329 439.463 259.394 439.41 259.441C438.308 260.34 437.029 260.988 435.66 261.341C434.509 262.555 432.998 263.355 431.355 263.621C430.706 263.72 431.779 263.651 431.123 263.583L431.003 260.383Z" fill="black"/>
<path d="M428.415 320.883V320.91V320.883Z" fill="white" stroke="black" stroke-width="0.92" stroke-miterlimit="10"/>
<path d="M437.895 314.02L434.231 314.921L428.25 314.26C427.564 314.347 426.937 314.701 426.502 315.248L420.067 320.986C419.932 321.138 419.861 321.336 419.869 321.54C419.876 321.743 419.959 321.937 420.101 322.08C420.247 322.222 420.442 322.301 420.645 322.301C420.847 322.301 421.042 322.222 421.189 322.08L426.439 317.642L422.839 322.065C422.767 322.166 422.719 322.285 422.704 322.409C422.685 322.533 422.7 322.66 422.745 322.777C422.786 322.894 422.857 322.999 422.951 323.082C423.045 323.164 423.157 323.222 423.277 323.25C423.412 323.282 423.555 323.275 423.686 323.233C423.817 323.19 423.934 323.112 424.027 323.007L427.642 318.576L424.897 321.951C424.822 322.044 424.77 322.154 424.747 322.272C424.725 322.391 424.732 322.513 424.77 322.627C424.807 322.741 424.875 322.844 424.961 322.925C425.051 323.006 425.156 323.063 425.272 323.091C425.389 323.127 425.509 323.132 425.629 323.106C425.745 323.079 425.854 323.022 425.944 322.939L429.904 319.302L427.226 321.787C427.155 321.853 427.099 321.936 427.061 322.028C427.027 322.12 427.012 322.22 427.024 322.318C427.035 322.417 427.069 322.511 427.121 322.594C427.174 322.677 427.245 322.745 427.331 322.794C427.425 322.846 427.53 322.873 427.635 322.873C427.74 322.873 427.845 322.846 427.939 322.794L431.666 320.735C431.846 320.635 432.041 320.574 432.247 320.557C432.45 320.54 432.656 320.567 432.847 320.636L434.396 321.039C435.334 321.369 436.571 321.145 437.906 321.005L440.955 320.704C440.156 318.687 437.895 314.02 437.895 314.02Z" fill="#FC9D9D"/>
<path opacity="0.15" d="M430.811 320.272C429.93 320.842 428.456 321.792 427.942 322.172C427.222 322.696 426.945 322.138 426.945 322.138C426.93 322.268 426.952 322.4 427.009 322.518C427.065 322.636 427.155 322.735 427.264 322.803C427.361 322.857 427.47 322.886 427.582 322.886C427.695 322.886 427.804 322.857 427.901 322.803L431.794 320.656C431.981 320.549 432.187 320.485 432.397 320.467C432.611 320.449 432.825 320.479 433.024 320.553L432.184 320.173C431.966 320.077 431.726 320.036 431.486 320.053C431.246 320.071 431.017 320.146 430.811 320.272Z" fill="black"/>
<g opacity="0.15">
<path opacity="0.15" d="M427.762 321.613C427.777 321.614 427.792 321.612 427.804 321.606C427.819 321.6 427.83 321.591 427.841 321.578L430.414 319.203C430.462 319.143 430.481 319.059 430.414 319.01C430.387 318.984 430.354 318.969 430.316 318.969C430.279 318.969 430.245 318.984 430.219 319.01L427.646 321.381C427.62 321.407 427.605 321.443 427.605 321.48C427.605 321.517 427.62 321.552 427.646 321.578C427.68 321.601 427.721 321.613 427.762 321.613Z" fill="black"/>
</g>
<g opacity="0.15">
<path opacity="0.15" d="M425.385 321.681C425.411 321.681 425.467 321.681 425.464 321.647L428.16 318.337C428.171 318.323 428.179 318.307 428.186 318.289C428.19 318.272 428.194 318.254 428.19 318.236C428.19 318.218 428.183 318.2 428.175 318.185C428.168 318.169 428.156 318.155 428.141 318.143C428.126 318.132 428.111 318.123 428.096 318.118C428.077 318.113 428.059 318.111 428.044 318.112C428.025 318.114 428.006 318.12 427.991 318.128C427.976 318.137 427.961 318.148 427.95 318.162L425.25 321.48C425.239 321.492 425.228 321.507 425.22 321.524C425.213 321.54 425.209 321.558 425.209 321.576C425.209 321.595 425.213 321.613 425.22 321.629C425.228 321.646 425.239 321.661 425.25 321.673C425.272 321.684 425.295 321.69 425.318 321.691C425.34 321.692 425.362 321.689 425.385 321.681Z" fill="black"/>
</g>
<path opacity="0.2" d="M451.807 286.854L448.748 308.514L435.75 313.5L437.625 320.34L449.4 319.58L449.741 324.235L453.941 324.117C453.99 322.24 454.433 307.135 456.191 300.371L461.651 299.652L462.191 285.931L451.807 286.854Z" fill="black"/>
<path d="M424.339 252.659C424.012 252.748 423.716 252.916 423.469 253.149C423.221 253.386 423.034 253.681 422.921 254.008C422.809 254.338 422.779 254.691 422.827 255.037C422.876 255.382 423.007 255.71 423.202 255.995C423.397 256.274 423.652 256.502 423.952 256.66C424.252 256.812 424.586 256.885 424.924 256.873C425.261 256.86 425.587 256.762 425.876 256.588C426.169 256.411 426.412 256.164 426.585 255.87" stroke="white" stroke-width="1.46" stroke-miterlimit="10" stroke-linecap="round"/>
<path d="M427.32 258.951C428.194 259.703 429.21 260.271 430.305 260.622C431.4 260.973 432.551 261.1 433.695 260.995L434.355 260.938C435.491 260.829 436.59 260.485 437.591 259.928C438.604 259.372 439.496 258.615 440.216 257.701C440.936 256.779 441.476 255.725 441.802 254.596C442.121 253.457 442.226 252.267 442.11 251.089L440.869 238.461C440.79 237.669 440.411 236.938 439.811 236.425C439.519 236.175 439.177 235.987 438.814 235.872C438.446 235.757 438.064 235.718 437.681 235.756L426.33 236.869C425.839 236.922 425.359 237.074 424.927 237.316C424.492 237.558 424.11 237.886 423.802 238.279C423.172 239.09 422.88 240.118 422.985 241.144L424.159 252.86C424.402 255.226 425.535 257.407 427.32 258.951Z" fill="#FC9D9D"/>
<path d="M453.938 324.33C453.938 324.33 456.75 333.287 455.891 340.978C455.164 347.514 449.438 349.79 442.733 349.718L433.83 349.581L406.313 342.95L415.688 383.61L405.938 386.27L386.685 337.25C386.115 335.824 385.898 334.277 386.059 332.746C386.216 331.215 386.741 329.747 387.593 328.471C388.44 327.195 389.588 326.15 390.926 325.428C392.269 324.706 393.765 324.329 395.284 324.33H453.938Z" fill="#EB5310"/>
<path d="M431.764 248.402C431.745 248.216 431.779 248.027 431.861 247.86C431.944 247.693 432.075 247.555 432.236 247.463C432.398 247.371 432.581 247.329 432.769 247.343C432.953 247.356 433.129 247.424 433.275 247.539C433.421 247.653 433.53 247.809 433.59 247.987C433.65 248.164 433.658 248.356 433.609 248.537C433.564 248.718 433.463 248.881 433.328 249.006C433.189 249.131 433.016 249.211 432.833 249.238C432.709 249.255 432.581 249.246 432.461 249.213C432.341 249.18 432.225 249.123 432.128 249.045C432.026 248.967 431.944 248.87 431.884 248.76C431.82 248.65 431.779 248.528 431.764 248.402Z" fill="black"/>
<path d="M432.075 248.471C432.071 248.445 432.071 248.418 432.079 248.393C432.082 248.367 432.094 248.343 432.109 248.322C432.124 248.3 432.142 248.283 432.165 248.269C432.187 248.255 432.214 248.246 432.24 248.243C432.277 248.237 432.319 248.242 432.352 248.259C432.39 248.275 432.42 248.302 432.439 248.337C432.461 248.371 432.472 248.41 432.469 248.45C432.469 248.49 432.454 248.528 432.431 248.561C432.409 248.593 432.375 248.617 432.337 248.631C432.3 248.645 432.262 248.647 432.225 248.637C432.184 248.628 432.15 248.606 432.124 248.577C432.097 248.547 432.079 248.51 432.075 248.471Z" fill="white"/>
<path d="M424.519 249.455C424.5 249.269 424.534 249.081 424.616 248.913C424.699 248.747 424.83 248.608 424.991 248.516C425.152 248.424 425.336 248.382 425.524 248.396C425.707 248.409 425.884 248.478 426.03 248.592C426.176 248.707 426.285 248.862 426.345 249.04C426.405 249.217 426.412 249.409 426.364 249.59C426.319 249.771 426.217 249.934 426.079 250.059C425.944 250.184 425.771 250.265 425.587 250.291C425.464 250.308 425.336 250.299 425.216 250.266C425.096 250.233 424.98 250.176 424.882 250.098C424.781 250.02 424.699 249.924 424.639 249.813C424.575 249.703 424.534 249.581 424.519 249.455Z" fill="black"/>
<path d="M424.826 249.478C424.823 249.452 424.823 249.425 424.826 249.4C424.834 249.374 424.841 249.35 424.856 249.329C424.875 249.307 424.894 249.289 424.916 249.276C424.935 249.262 424.961 249.253 424.988 249.25C425.025 249.243 425.066 249.247 425.104 249.264C425.138 249.28 425.168 249.307 425.19 249.34C425.213 249.374 425.224 249.414 425.22 249.454C425.22 249.494 425.205 249.533 425.183 249.565C425.16 249.598 425.13 249.623 425.093 249.637C425.055 249.651 425.014 249.653 424.976 249.644C424.939 249.634 424.901 249.614 424.875 249.584C424.849 249.554 424.83 249.517 424.826 249.478Z" fill="white"/>
<path opacity="0.15" d="M442.44 249.99L441.124 250.18L442.972 252.703L442.44 249.99Z" fill="black"/>
<g opacity="0.15">
<path opacity="0.15" d="M428.572 252.636C428.625 252.779 428.707 252.909 428.816 253.016C428.921 253.125 429.049 253.207 429.191 253.255C429.33 253.305 429.476 253.323 429.622 253.308L430.882 253.251C430.924 253.259 430.961 253.259 431.002 253.251C431.04 253.24 431.074 253.22 431.1 253.194C431.13 253.167 431.152 253.135 431.171 253.099C431.186 253.061 431.197 253.02 431.197 252.978C431.19 252.896 431.156 252.819 431.1 252.761C431.07 252.735 431.032 252.715 430.995 252.704C430.957 252.695 430.916 252.695 430.879 252.704L429.619 252.761C429.544 252.766 429.472 252.753 429.405 252.723C429.334 252.697 429.27 252.656 429.214 252.602C429.157 252.55 429.112 252.487 429.082 252.415C429.052 252.344 429.034 252.268 429.03 252.191C429.026 252.033 429.082 251.88 429.187 251.762C429.281 251.646 429.416 251.569 429.562 251.545C429.626 251.53 429.679 251.494 429.72 251.443C429.757 251.392 429.776 251.329 429.776 251.264C429.78 251.199 429.757 251.136 429.72 251.085C429.682 251.033 429.626 250.995 429.562 250.979C429.274 251.003 429.004 251.139 428.812 251.359C428.61 251.59 428.509 251.891 428.524 252.199C428.509 252.346 428.524 252.496 428.572 252.636Z" fill="black"/>
</g>
<path d="M445.5 267.14L455.899 268.193C457.252 268.333 458.531 268.885 459.57 269.775C460.609 270.665 461.359 271.853 461.719 273.182L472.102 311.661C472.29 312.356 472.327 313.084 472.207 313.794C472.091 314.505 471.821 315.181 471.424 315.776C471.022 316.371 470.497 316.87 469.886 317.24C469.275 317.609 468.596 317.84 467.887 317.916L437.625 321.48L435.938 314.07L458.437 307.61L445.5 267.14Z" fill="#3F4249"/>
<path d="M441.596 250.386C441.596 250.386 445.751 250.519 446.378 246.206C447.004 241.893 441.878 241.38 441.42 245.731L441.143 250.469L441.596 250.386Z" fill="#FC9D9D"/>
<path d="M442.946 248.714C443.317 248.702 443.685 248.791 444.007 248.973C444.334 249.16 444.604 249.43 444.795 249.755C444.986 250.085 445.087 250.46 445.095 250.842C445.102 251.223 445.009 251.6 444.825 251.933C444.649 252.26 444.39 252.535 444.075 252.727C443.756 252.914 443.396 253.009 443.029 253.004C442.657 252.995 442.297 252.885 441.982 252.685C441.667 252.481 441.409 252.198 441.232 251.864" stroke="white" stroke-width="1.46" stroke-miterlimit="10" stroke-linecap="round"/>
<path opacity="0.15" d="M445.125 244.34C445.148 244.275 445.148 244.203 445.125 244.139C445.102 244.075 445.061 244.021 445.005 243.983C444.825 243.85 444.615 243.758 444.397 243.713C444.18 243.667 443.959 243.667 443.741 243.713C443.527 243.777 443.332 243.89 443.167 244.044C443.006 244.198 442.879 244.386 442.792 244.595C442.522 245.116 442.399 245.704 442.44 246.293V246.745C442.44 247.072 443.006 247.16 442.984 246.745V246.251C442.965 245.769 443.062 245.29 443.261 244.853C443.321 244.712 443.407 244.583 443.512 244.473C443.621 244.367 443.749 244.283 443.887 244.226C444.191 244.177 444.499 244.249 444.75 244.427C444.814 244.463 444.885 244.474 444.956 244.457C445.024 244.44 445.087 244.397 445.125 244.336V244.34Z" fill="black"/>
<path d="M436.845 245.537C437.13 246.042 437.295 246.606 437.333 247.186C437.351 247.463 437.336 247.741 437.291 248.015C437.186 248.709 436.89 249.359 436.433 249.888C435.983 250.409 435.39 250.784 434.73 250.967C434.501 251.029 434.269 251.062 434.036 251.066C433.568 251.093 433.103 251.025 432.66 250.866C432.221 250.708 431.816 250.462 431.471 250.143C430.763 249.488 430.331 248.584 430.26 247.616V247.555C430.249 247.171 430.29 246.787 430.384 246.415C429.795 246.3 429.184 246.373 428.64 246.624C429.011 247.179 429.229 247.824 429.274 248.493C429.338 249.46 429.026 250.415 428.408 251.153C428.104 251.514 427.736 251.809 427.32 252.022C426.904 252.236 426.45 252.363 425.985 252.396C425.636 252.414 425.288 252.377 424.954 252.286C424.219 252.09 423.563 251.665 423.079 251.07C422.588 250.463 422.295 249.717 422.239 248.934C422.171 247.967 422.483 247.012 423.105 246.275C423.728 245.537 424.609 245.076 425.561 244.99C425.933 244.978 426.304 245.021 426.664 245.119C427.328 245.304 427.928 245.679 428.393 246.198C429.06 245.846 429.833 245.746 430.568 245.917C430.751 245.472 431.018 245.068 431.355 244.728C431.689 244.397 432.086 244.139 432.525 243.968C432.638 243.92 432.754 243.88 432.874 243.846C433.106 243.789 433.346 243.755 433.586 243.743C434.333 243.694 435.071 243.892 435.698 244.31C436.166 244.623 436.56 245.043 436.845 245.537Z" stroke="white" stroke-width="1.45" stroke-miterlimit="10"/>
<path d="M429.15 254.98C429.124 254.984 429.097 254.995 429.075 255.01C429.056 255.03 429.037 255.052 429.022 255.075C429.011 255.101 429.004 255.129 429.004 255.158C429.004 255.187 429.011 255.216 429.022 255.242C429.307 255.677 429.705 256.023 430.17 256.241C430.631 256.457 431.141 256.533 431.644 256.46C432.146 256.387 432.615 256.169 432.997 255.831C433.384 255.488 433.669 255.044 433.819 254.547C433.837 254.417 433.785 254.307 433.627 254.33L429.15 254.98Z" fill="white"/>
<path d="M441.709 240.266C441.709 240.266 444.068 230.044 429.083 233.704C420.458 235.813 419.801 239.704 419.569 241.714C419.336 243.724 424.069 240.339 424.069 240.339C424.069 240.339 424.069 244.382 425.648 243.2C427.583 241.752 429.814 238.549 429.814 238.549C429.814 238.549 434.715 243.842 439.62 242.668C442.406 242.003 441.709 240.266 441.709 240.266Z" fill="black"/>
<path d="M438.431 238.382C438.431 238.382 440.91 246.077 441.004 247.612C441.131 249.706 444.116 242.672 441.604 236.455L438.431 238.382Z" fill="black"/>
<path d="M392.76 325.311H447V322.62H392.76L392.73 322.673C392.516 323.079 392.408 323.532 392.411 323.992C392.415 324.452 392.535 324.903 392.76 325.303V325.311Z" fill="#21252B"/>
<path opacity="0.3" d="M392.76 325.311H447V322.62H392.76C392.505 323.02 392.37 323.486 392.37 323.962C392.37 324.438 392.505 324.903 392.76 325.303V325.311Z" fill="black"/>
<path d="M392.64 322.685H424.44L412.594 298.779H380.794L392.64 322.685Z" fill="#21252B"/>
<path opacity="0.3" d="M392.64 322.685H424.44L412.594 298.779H380.794L392.64 322.685Z" fill="black"/>
<path d="M446.884 325.23H425.006C424.658 325.23 424.32 325.089 424.073 324.837C423.821 324.586 423.683 324.244 423.683 323.889C423.683 323.533 423.821 323.192 424.073 322.94C424.32 322.689 424.658 322.547 425.006 322.547H446.884V325.23Z" fill="#21252B"/>
<path d="M424.297 322.977L425.336 322.548L413.49 298.779H412.305L424.297 322.977Z" fill="#21252B"/>
<path opacity="0.2" d="M403.309 313.569C404.156 312.791 403.972 311.19 402.904 309.992C401.835 308.794 400.279 308.453 399.431 309.231C398.584 310.009 398.764 311.61 399.836 312.808C400.905 314.006 402.461 314.347 403.309 313.569Z" fill="white"/>
<path opacity="0.3" d="M424.114 322.601L392.715 322.62L392.542 322.278H423.953L424.114 322.601Z" fill="black"/>
<path opacity="0.2" d="M447.12 344.037C446.126 344.907 444.964 345.559 443.711 345.951C442.455 346.343 441.135 346.468 439.83 346.317L403.5 341.62L406.335 343.049L406.312 342.95L433.83 349.6L442.732 349.737C449.437 349.806 455.164 347.529 455.891 340.997C456.75 333.306 453.937 324.349 453.937 324.349H448.969C448.969 324.349 454.016 337.82 447.12 344.037Z" fill="black"/>
<path opacity="0.2" d="M403.5 341.62L413.19 384.085L415.875 383.42L406.125 342.76L403.5 341.62Z" fill="black"/>
<path d="M399.983 393.98L397.673 395.937C396.84 396.629 396.244 397.567 395.97 398.62C395.745 399.539 395.843 400.41 397.144 400.193L416.175 393.167C416.528 393.041 416.854 392.844 417.128 392.582C417.401 392.323 417.615 392.008 417.761 391.658C417.908 391.309 417.983 390.932 417.975 390.552C417.968 390.172 417.881 389.8 417.724 389.454C417.293 388.557 416.775 387.706 416.175 386.912C415.935 386.589 415.744 386.239 415.598 385.863C401.809 396.659 399.983 393.98 399.983 393.98Z" fill="#EB5310"/>
<path opacity="0.3" d="M396.075 399.961C396.262 400.182 396.596 400.284 397.144 400.193L416.175 393.167C416.58 393.023 416.947 392.779 417.244 392.46C417.54 392.141 417.754 391.753 417.874 391.332L396.075 399.961Z" fill="black"/>
<path opacity="0.2" d="M467.887 317.916C468.596 317.84 469.275 317.609 469.886 317.24C470.497 316.87 471.022 316.371 471.424 315.776C471.821 315.181 472.091 314.504 472.207 313.794C472.327 313.084 472.29 312.356 472.102 311.661L471.142 308.093C470.906 314.849 465.75 315.02 465.75 315.02L437.25 319.899L437.625 321.48L467.887 317.916Z" fill="black"/>
<path d="M431.73 297.175L430.886 296.742L430.054 297.202L430.2 296.252L429.514 295.594L430.447 295.442L430.852 294.576L431.284 295.431L432.225 295.552L431.557 296.233L431.73 297.175Z" fill="white"/>
<path d="M446.355 296.035L445.511 295.602L444.679 296.061L444.825 295.111L444.139 294.454L445.072 294.302L445.477 293.436L445.909 294.291L446.85 294.412L446.182 295.092L446.355 296.035Z" fill="white"/>
<path d="M440.355 309.335L439.511 308.902L438.679 309.361L438.825 308.411L438.139 307.754L439.072 307.602L439.477 306.736L439.909 307.591L440.85 307.712L440.182 308.392L440.355 309.335Z" fill="white"/>
<path d="M457.605 311.995L456.761 311.561L455.929 312.021L456.075 311.071L455.389 310.414L456.322 310.262L456.727 309.396L457.159 310.251L458.1 310.372L457.432 311.052L457.605 311.995Z" fill="white"/>
<path d="M442.98 320.355L442.136 319.922L441.304 320.381L441.45 319.431L440.764 318.774L441.697 318.622L442.102 317.756L442.534 318.611L443.475 318.732L442.807 319.412L442.98 320.355Z" fill="white"/>
<path d="M410.73 296.795L409.886 296.362L409.054 296.821L409.2 295.871L408.514 295.214L409.447 295.062L409.852 294.196L410.284 295.051L411.225 295.172L410.557 295.852L410.73 296.795Z" fill="white"/>
<path d="M423.48 309.335L422.636 308.902L421.804 309.361L421.95 308.411L421.264 307.754L422.197 307.602L422.602 306.736L423.034 307.591L423.975 307.712L423.307 308.392L423.48 309.335Z" fill="white"/>
<path d="M455.197 304.562L454.264 304.714L454.95 305.372L454.804 306.322L455.179 306.117C455.272 305.357 455.374 304.654 455.479 303.966L455.197 304.562Z" fill="white"/>
<path d="M452.355 285.015L451.511 284.582L450.679 285.041L450.825 284.091L450.139 283.434L451.072 283.282L451.477 282.416L451.909 283.271L452.85 283.392L452.182 284.072L452.355 285.015Z" fill="white"/>
<path d="M465.855 296.035L465.011 295.602L464.179 296.061L464.325 295.111L463.639 294.454L464.572 294.302L464.977 293.436L465.409 294.291L466.35 294.412L465.682 295.092L465.855 296.035Z" fill="white"/>
<path d="M449.73 271.335L448.886 270.902L448.054 271.361L448.2 270.411L447.514 269.754L448.447 269.602L448.852 268.736L449.284 269.591L450.225 269.712L449.557 270.392L449.73 271.335Z" fill="white"/>
<path d="M433.98 283.875L433.136 283.442L432.304 283.901L432.45 282.951L431.764 282.294L432.697 282.142L433.102 281.276L433.534 282.131L434.475 282.252L433.807 282.932L433.98 283.875Z" fill="white"/>
<path d="M423.48 275.135L422.636 274.702L421.804 275.161L421.95 274.211L421.264 273.554L422.197 273.402L422.602 272.536L423.034 273.391L423.975 273.512L423.307 274.192L423.48 275.135Z" fill="white"/>
<path d="M422.73 289.955L421.886 289.521L421.054 289.981L421.2 289.031L420.514 288.374L421.447 288.222L421.852 287.355L422.284 288.21L423.225 288.332L422.557 289.012L422.73 289.955Z" fill="white"/>
<path d="M463.125 236.2C463.125 231.428 468.412 227.555 474.937 227.555C481.462 227.555 486.75 231.42 486.75 236.2C486.75 240.981 481.462 244.845 474.937 244.845C474.105 244.845 473.272 244.78 472.447 244.652L466.624 246.62L467.876 243.132C465 241.555 463.125 239.039 463.125 236.2Z" fill="#B2B6BB"/>
<path d="M479.314 237.755C480.038 237.755 480.626 237.159 480.626 236.425C480.626 235.69 480.038 235.095 479.314 235.095C478.59 235.095 478.001 235.69 478.001 236.425C478.001 237.159 478.59 237.755 479.314 237.755Z" fill="white"/>
<path d="M474.938 237.755C475.661 237.755 476.25 237.159 476.25 236.425C476.25 235.69 475.661 235.095 474.938 235.095C474.214 235.095 473.625 235.69 473.625 236.425C473.625 237.159 474.214 237.755 474.938 237.755Z" fill="white"/>
<path d="M470.561 237.755C471.285 237.755 471.874 237.159 471.874 236.425C471.874 235.69 471.285 235.095 470.561 235.095C469.837 235.095 469.249 235.69 469.249 236.425C469.249 237.159 469.837 237.755 470.561 237.755Z" fill="white"/>
</svg>
