<svg width="868" height="675" viewBox="0 0 868 675" fill="none" xmlns="http://www.w3.org/2000/svg">
<path opacity="0.1" d="M272.65 481.951V491.626H115.375V386.326H125.838" fill="black"/>
<path d="M283.619 376.143H126.344V481.443H283.619V376.143Z" fill="white"/>
<path d="M132.531 380.813C132.531 381.488 131.969 382.051 131.294 382.051C130.619 382.051 130.056 381.488 130.056 380.813C130.056 380.138 130.619 379.576 131.294 379.576C131.969 379.576 132.531 380.138 132.531 380.813Z" fill="#EB5310"/>
<path d="M136.863 380.813C136.863 381.488 136.3 382.107 135.625 382.107C134.95 382.107 134.331 381.544 134.331 380.869C134.331 380.194 134.894 379.576 135.569 379.576C136.3 379.576 136.863 380.138 136.863 380.813Z" fill="#EB5310"/>
<path d="M141.138 380.813C141.138 381.488 140.575 382.051 139.9 382.051C139.225 382.051 138.663 381.488 138.663 380.813C138.663 380.138 139.225 379.576 139.9 379.576C140.575 379.576 141.138 380.138 141.138 380.813Z" fill="#EB5310"/>
<g opacity="0.6">
<path opacity="0.6" d="M132.531 380.813C132.531 381.488 131.969 382.051 131.294 382.051C130.619 382.051 130.056 381.488 130.056 380.813C130.056 380.138 130.619 379.576 131.294 379.576C131.969 379.576 132.531 380.138 132.531 380.813Z" fill="white"/>
<path opacity="0.6" d="M136.862 380.813C136.862 381.488 136.3 382.107 135.625 382.107C134.95 382.107 134.331 381.544 134.331 380.869C134.331 380.194 134.894 379.576 135.569 379.576C136.3 379.576 136.862 380.138 136.862 380.813Z" fill="white"/>
<path opacity="0.6" d="M141.137 380.813C141.137 381.488 140.575 382.051 139.9 382.051C139.225 382.051 138.662 381.488 138.662 380.813C138.662 380.138 139.225 379.576 139.9 379.576C140.575 379.576 141.137 380.138 141.137 380.813Z" fill="white"/>
</g>
<path d="M126.006 375.807V481.839H284.013V375.807H126.006ZM283.281 376.482V385.145H126.681V376.482H283.281ZM126.681 481.107V385.876H283.225V481.107H126.681Z" fill="#EB5310"/>
<path opacity="0.6" d="M126.006 375.807V481.839H284.013V375.807H126.006ZM283.281 376.482V385.145H126.681V376.482H283.281ZM126.681 481.107V385.876H283.225V481.107H126.681Z" fill="white"/>
<path d="M182.144 396.505H140.181V438.468H182.144V396.505Z" fill="#EB5310"/>
<g opacity="0.6">
<path opacity="0.6" d="M182.144 396.505H140.181V438.468H182.144V396.505Z" fill="white"/>
</g>
<path d="M162.512 452.643H142.825V472.331H162.512V452.643Z" fill="#EB5310"/>
<path opacity="0.6" d="M162.512 452.643H142.825V472.331H162.512V452.643Z" fill="white"/>
<path d="M198.231 452.643H178.544V472.331H198.231V452.643Z" fill="#EB5310"/>
<path opacity="0.6" d="M198.231 452.643H178.544V472.331H198.231V452.643Z" fill="white"/>
<path d="M234.006 452.643H214.319V472.331H234.006V452.643Z" fill="#EB5310"/>
<path opacity="0.6" d="M234.006 452.643H214.319V472.331H234.006V452.643Z" fill="white"/>
<path d="M269.781 452.643H250.094V472.331H269.781V452.643Z" fill="#EB5310"/>
<path opacity="0.6" d="M269.781 452.643H250.094V472.331H269.781V452.643Z" fill="white"/>
<g opacity="0.6">
<path opacity="0.6" d="M262.3 403.988H189.231C189.006 403.988 188.894 403.819 188.894 403.65C188.894 403.481 189.063 403.312 189.231 403.312H262.3C262.469 403.312 262.638 403.481 262.638 403.65C262.694 403.819 262.525 403.988 262.3 403.988Z" fill="#EB5310"/>
<path opacity="0.6" d="M262.3 411.862H189.231C189.006 411.862 188.894 411.694 188.894 411.525C188.894 411.356 189.063 411.188 189.231 411.188H262.3C262.469 411.188 262.638 411.356 262.638 411.525C262.694 411.694 262.525 411.862 262.3 411.862Z" fill="#EB5310"/>
<path opacity="0.6" d="M262.3 419.68H189.231C189.063 419.68 188.894 419.511 188.894 419.343C188.894 419.118 189.063 419.005 189.231 419.005H262.3C262.525 419.005 262.638 419.174 262.638 419.343C262.638 419.511 262.525 419.68 262.3 419.68Z" fill="#EB5310"/>
<path opacity="0.6" d="M231.588 427.555H189.231C189.063 427.555 188.894 427.386 188.894 427.218C188.894 426.993 189.063 426.88 189.231 426.88H231.588C231.813 426.88 231.925 427.049 231.925 427.218C231.981 427.386 231.813 427.555 231.588 427.555Z" fill="#EB5310"/>
</g>
<path opacity="0.1" d="M704.087 309.318V316.125H546.812V241.987H557.275" fill="black"/>
<path d="M715.056 234.844H557.781V308.981H715.056V234.844Z" fill="white"/>
<path d="M563.969 239.063C563.969 239.738 563.406 240.3 562.731 240.3C562.056 240.3 561.494 239.738 561.494 239.063C561.494 238.388 562.056 237.825 562.731 237.825C563.406 237.825 563.969 238.388 563.969 239.063Z" fill="#EB5310"/>
<path d="M568.3 239.063C568.3 239.738 567.738 240.357 567.063 240.357C566.388 240.357 565.769 239.794 565.769 239.119C565.769 238.444 566.331 237.825 567.006 237.825C567.738 237.825 568.3 238.388 568.3 239.063Z" fill="#EB5310"/>
<path d="M572.575 239.063C572.575 239.738 572.012 240.3 571.338 240.3C570.663 240.3 570.1 239.738 570.1 239.063C570.1 238.388 570.663 237.825 571.338 237.825C572.012 237.825 572.575 238.388 572.575 239.063Z" fill="#EB5310"/>
<g opacity="0.6">
<path opacity="0.6" d="M563.969 239.063C563.969 239.738 563.406 240.3 562.731 240.3C562.056 240.3 561.494 239.738 561.494 239.063C561.494 238.388 562.056 237.825 562.731 237.825C563.406 237.825 563.969 238.388 563.969 239.063Z" fill="white"/>
<path opacity="0.6" d="M568.3 239.063C568.3 239.738 567.737 240.357 567.062 240.357C566.387 240.357 565.769 239.794 565.769 239.119C565.769 238.444 566.331 237.825 567.006 237.825C567.737 237.825 568.3 238.388 568.3 239.063Z" fill="white"/>
<path opacity="0.6" d="M572.575 239.063C572.575 239.738 572.012 240.3 571.337 240.3C570.662 240.3 570.1 239.738 570.1 239.063C570.1 238.388 570.662 237.825 571.337 237.825C572.012 237.825 572.575 238.388 572.575 239.063Z" fill="white"/>
</g>
<path d="M557.444 234.62V309.264H715.45V234.62H557.444ZM714.719 235.126V242.945H558.175V235.126H714.719ZM558.119 308.701V243.395H714.663V308.701H558.119Z" fill="#EB5310"/>
<path opacity="0.6" d="M557.444 234.62V309.264H715.45V234.62H557.444ZM714.719 235.126V242.945H558.175V235.126H714.719ZM558.119 308.701V243.395H714.663V308.701H558.119Z" fill="white"/>
<path d="M613.581 255.318H571.619V297.28H613.581V255.318Z" fill="#EB5310"/>
<g opacity="0.6">
<path opacity="0.6" d="M613.581 255.318H571.619V297.28H613.581V255.318Z" fill="white"/>
</g>
<g opacity="0.6">
<path opacity="0.6" d="M693.737 262.8H620.669C620.444 262.8 620.331 262.631 620.331 262.462C620.331 262.294 620.5 262.125 620.669 262.125H693.737C693.906 262.125 694.075 262.294 694.075 262.462C694.131 262.631 693.962 262.8 693.737 262.8Z" fill="#EB5310"/>
<path opacity="0.6" d="M693.737 270.675H620.669C620.444 270.675 620.331 270.506 620.331 270.338C620.331 270.169 620.5 270 620.669 270H693.737C693.906 270 694.075 270.169 694.075 270.338C694.131 270.506 693.962 270.675 693.737 270.675Z" fill="#EB5310"/>
<path opacity="0.6" d="M693.738 278.493H620.669C620.5 278.493 620.331 278.324 620.331 278.155C620.331 277.93 620.5 277.818 620.669 277.818H693.738C693.963 277.818 694.075 277.986 694.075 278.155C694.075 278.324 693.963 278.493 693.738 278.493Z" fill="#EB5310"/>
<path opacity="0.6" d="M663.025 286.368H620.669C620.5 286.368 620.331 286.199 620.331 286.03C620.331 285.805 620.5 285.693 620.669 285.693H663.025C663.25 285.693 663.362 285.861 663.362 286.03C663.419 286.199 663.25 286.368 663.025 286.368Z" fill="#EB5310"/>
</g>
<path d="M742.731 558.786H113.631C113.181 558.786 112.788 559.18 112.788 559.63C112.788 560.08 113.181 560.474 113.631 560.474H742.731C743.181 560.474 743.575 560.08 743.575 559.63C743.575 559.18 743.181 558.786 742.731 558.786Z" fill="#B2B6BB"/>
<path opacity="0.07" d="M207.344 186.862H627.137C628.487 186.862 629.612 187.987 629.612 189.337V461.306C629.612 462.656 628.487 463.781 627.137 463.781H207.344C205.994 463.781 204.869 462.656 204.869 461.306V189.337C204.869 187.987 205.994 186.862 207.344 186.862Z" fill="black"/>
<path d="M216.475 178H636.269C637.619 178 638.744 179.125 638.744 180.475V452.444C638.744 453.794 637.619 454.919 636.269 454.919H216.475C215.125 454.919 214 453.794 214 452.444V180.475C214 179.069 215.069 178 216.475 178Z" fill="white"/>
<path d="M632.987 455.062H219.381C216.006 455.062 213.25 452.644 213.25 449.719V182.531C213.25 179.606 216.006 177.188 219.381 177.188H632.987C636.362 177.188 639.119 179.606 639.119 182.531V449.719C639.119 452.644 636.362 455.062 632.987 455.062ZM219.381 178.144C216.569 178.144 214.319 180.112 214.319 182.531V449.719C214.319 452.138 216.569 454.106 219.381 454.106H632.987C635.8 454.106 638.05 452.138 638.05 449.719V182.531C638.05 180.112 635.8 178.144 632.987 178.144H219.381Z" fill="#EB5310"/>
<g opacity="0.6">
<path opacity="0.6" d="M632.987 455.062H219.381C216.006 455.062 213.25 452.644 213.25 449.719V182.531C213.25 179.606 216.006 177.188 219.381 177.188H632.987C636.362 177.188 639.119 179.606 639.119 182.531V449.719C639.119 452.644 636.362 455.062 632.987 455.062ZM219.381 178.144C216.569 178.144 214.319 180.112 214.319 182.531V449.719C214.319 452.138 216.569 454.106 219.381 454.106H632.987C635.8 454.106 638.05 452.138 638.05 449.719V182.531C638.05 180.112 635.8 178.144 632.987 178.144H219.381Z" fill="white"/>
</g>
<path d="M215.669 177.245H636.644C637.994 177.245 639.063 178.314 639.063 179.72V193.445H213.194V179.72C213.194 178.37 214.319 177.245 215.669 177.245Z" fill="#EB5310"/>
<path d="M606.719 188.269C608.333 188.269 609.644 186.96 609.644 185.344C609.644 183.729 608.333 182.419 606.719 182.419C605.104 182.419 603.794 183.729 603.794 185.344C603.794 186.96 605.104 188.269 606.719 188.269Z" fill="white"/>
<path d="M616.056 188.269C617.671 188.269 618.981 186.96 618.981 185.344C618.981 183.729 617.671 182.419 616.056 182.419C614.442 182.419 613.131 183.729 613.131 185.344C613.131 186.96 614.442 188.269 616.056 188.269Z" fill="white"/>
<path d="M625.394 188.269C627.008 188.269 628.319 186.96 628.319 185.344C628.319 183.729 627.008 182.419 625.394 182.419C623.779 182.419 622.469 183.729 622.469 185.344C622.469 186.96 623.779 188.269 625.394 188.269Z" fill="white"/>
<path d="M296.556 180.786H231.419C230.744 180.786 230.125 181.18 229.787 181.799L223.375 194.624H304.544L298.187 181.799C297.906 181.18 297.231 180.786 296.556 180.786Z" fill="#DADDDF"/>
<path d="M639.119 193.443H213.25V209.699H639.119V193.443Z" fill="#DADDDF"/>
<path d="M263.087 197.212V205.875C263.087 206.156 263.425 206.381 263.762 206.381H618.306C618.7 206.381 618.981 206.156 618.981 205.875V197.212C618.981 196.931 618.644 196.706 618.306 196.706H263.762C263.425 196.706 263.087 196.931 263.087 197.212Z" fill="white"/>
<path d="M616.562 326.812H570.438V362.813H616.562V326.812Z" stroke="#B2B6BB" stroke-width="2" stroke-miterlimit="10"/>
<path d="M515.313 242.438H466.375V275.625H515.313V242.438Z" stroke="#B2B6BB" stroke-width="2" stroke-miterlimit="10"/>
<path d="M633.044 198.732H624.606V199.857H633.044V198.732Z" fill="#EB5310"/>
<path d="M633.044 200.982H624.606V202.107H633.044V200.982Z" fill="#EB5310"/>
<path d="M633.044 203.232H624.606V204.357H633.044V203.232Z" fill="#EB5310"/>
<path opacity="0.2" d="M612.456 198.676L613.356 200.532L615.381 200.814V200.87L613.919 202.276L612.456 198.676ZM613.919 202.332L614.256 204.357V204.414L612.456 203.457H612.4L610.6 204.414H610.544L610.881 202.389L613.919 202.332ZM610.881 202.276L609.419 200.87V200.814L611.444 200.532L612.344 198.676C612.344 198.62 612.344 198.62 612.4 198.62C612.456 198.62 612.456 198.62 612.456 198.676L610.881 202.276Z" stroke="black" stroke-width="0.8" stroke-miterlimit="10"/>
<path d="M238.45 201.826H233.05C232.881 201.826 232.712 201.657 232.769 201.432C232.769 201.264 232.937 201.151 233.05 201.151H238.45C238.619 201.151 238.787 201.264 238.844 201.432C238.844 201.601 238.731 201.77 238.562 201.826C238.506 201.826 238.45 201.826 238.45 201.826Z" fill="#EB5310"/>
<path d="M236.256 204.299C236.144 204.299 236.087 204.243 236.031 204.187C235.919 204.074 235.919 203.849 236.031 203.737L238.225 201.543L236.031 199.349C235.919 199.237 235.919 199.012 236.031 198.899C236.144 198.787 236.369 198.787 236.481 198.899L239.181 201.599L236.537 204.243C236.425 204.243 236.369 204.299 236.256 204.299Z" fill="#EB5310"/>
<path d="M225.962 201.826H220.562C220.394 201.826 220.225 201.714 220.169 201.545C220.169 201.376 220.281 201.207 220.45 201.151C220.506 201.151 220.506 201.151 220.562 201.151H225.962C226.131 201.151 226.3 201.32 226.244 201.545C226.244 201.714 226.131 201.826 225.962 201.826Z" fill="#EB5310"/>
<path d="M222.756 204.301C222.644 204.301 222.587 204.245 222.531 204.189L219.887 201.545L222.587 198.845C222.7 198.732 222.925 198.732 223.037 198.845C223.15 198.957 223.15 199.182 223.037 199.295L220.844 201.489L223.037 203.682C223.15 203.795 223.15 204.02 223.037 204.132C222.925 204.245 222.812 204.301 222.756 204.301Z" fill="#EB5310"/>
<path d="M250.994 204.749C249.475 204.749 248.294 203.511 248.294 202.049C248.294 200.586 249.531 199.349 250.994 199.349C251.387 199.349 251.837 199.461 252.175 199.63C252.344 199.686 252.456 199.911 252.4 200.08C252.344 200.249 252.119 200.361 251.95 200.305C251.95 200.305 251.894 200.305 251.894 200.249C250.881 199.743 249.644 200.136 249.137 201.149C248.631 202.161 249.025 203.399 250.037 203.905C251.05 204.411 252.287 204.018 252.794 203.005C252.906 202.724 253.019 202.443 253.019 202.105C253.019 201.936 253.187 201.768 253.356 201.768C253.525 201.768 253.694 201.936 253.694 202.105C253.694 203.511 252.456 204.749 250.994 204.749Z" fill="#EB5310"/>
<path d="M251.388 201.207C251.219 201.207 251.05 201.094 251.05 200.869C251.05 200.701 251.163 200.588 251.275 200.532L252.569 200.026L252.063 198.732C252.006 198.563 252.063 198.338 252.288 198.282C252.513 198.226 252.681 198.282 252.738 198.507L253.469 200.419L251.556 201.151C251.5 201.207 251.444 201.207 251.388 201.207Z" fill="#EB5310"/>
<g opacity="0.3">
<path opacity="0.3" d="M290.256 191.025C290.144 191.025 290.031 190.969 289.975 190.913C289.806 190.744 289.806 190.519 289.975 190.35L294.644 185.681C294.812 185.512 295.037 185.512 295.206 185.681C295.375 185.85 295.375 186.075 295.206 186.244L290.537 190.913C290.481 191.025 290.369 191.025 290.256 191.025Z" fill="black"/>
<path opacity="0.3" d="M294.925 191.025C294.812 191.025 294.7 190.969 294.644 190.913L289.975 186.244C289.806 186.075 289.806 185.85 289.975 185.681C290.144 185.512 290.369 185.512 290.537 185.681L295.206 190.35C295.375 190.519 295.375 190.744 295.206 190.913C295.15 191.025 295.037 191.025 294.925 191.025Z" fill="black"/>
</g>
<path d="M267.25 254.25H260.781V286.875H267.25V254.25Z" fill="#EB5310"/>
<path d="M274 254.25H267.531V286.875H274V254.25Z" fill="#EB5310"/>
<path opacity="0.2" d="M274 254.25H267.531V286.875H274V254.25Z" fill="black"/>
<path d="M418.562 288H294.531V291.825H418.562V288Z" fill="#EB5310"/>
<path d="M261.681 383.964H314.387C315.006 383.964 315.512 384.47 315.512 385.089V397.97C315.512 398.589 315.006 399.095 314.387 399.095H261.681C261.062 399.095 260.556 398.589 260.556 397.97V385.089C260.556 384.47 261.062 383.964 261.681 383.964Z" fill="#EB5310"/>
<path d="M419.181 307.237H260.781V311.062H419.181V307.237Z" fill="#B2B6BB"/>
<path d="M419.181 318.656H260.781V322.481H419.181V318.656Z" fill="#B2B6BB"/>
<path d="M419.181 330.076H260.781V333.901H419.181V330.076Z" fill="#B2B6BB"/>
<path d="M419.181 341.438H260.781V345.263H419.181V341.438Z" fill="#B2B6BB"/>
<path d="M419.181 352.857H260.781V356.682H419.181V352.857Z" fill="#B2B6BB"/>
<path d="M345.663 364.219H260.781V368.044H345.663V364.219Z" fill="#B2B6BB"/>
<path d="M284.8 262.8H287.5L293.35 278.212H290.313L288.906 274.387H283.506L282.1 278.212H279.006L284.8 262.8ZM288.288 272.306L286.15 266.231L283.956 272.306H288.288Z" fill="#21252B"/>
<path d="M307.469 274.275C307.525 275.457 306.963 276.582 306.006 277.2C305.5 277.538 304.994 277.819 304.431 277.988C303.813 278.157 303.138 278.269 302.519 278.269H295.038V262.857H303.306C303.813 262.857 304.319 262.969 304.769 263.194C305.219 263.419 305.556 263.7 305.894 264.094C306.175 264.488 306.456 264.882 306.625 265.332C306.794 265.782 306.85 266.288 306.85 266.738C306.85 267.469 306.681 268.2 306.288 268.875C305.894 269.55 305.331 270.057 304.656 270.338C305.5 270.563 306.231 271.069 306.738 271.744C307.244 272.475 307.525 273.375 307.469 274.275ZM298.075 265.388V269.269H302.069C302.575 269.269 303.025 269.1 303.363 268.763C303.756 268.369 303.925 267.863 303.925 267.357C303.925 266.85 303.756 266.344 303.419 265.95C303.138 265.613 302.688 265.444 302.181 265.444L298.075 265.388ZM304.488 273.713C304.488 273.432 304.431 273.15 304.375 272.925C304.263 272.7 304.15 272.475 303.981 272.25C303.813 272.082 303.644 271.913 303.419 271.8C303.194 271.688 302.969 271.632 302.688 271.632H298.075V275.682H302.519C302.8 275.682 303.025 275.625 303.306 275.513C303.531 275.4 303.756 275.288 303.925 275.063C304.094 274.894 304.263 274.669 304.319 274.444C304.431 274.219 304.488 273.994 304.488 273.713Z" fill="#21252B"/>
<path d="M316.413 278.382C315.344 278.382 314.275 278.157 313.319 277.707C312.419 277.257 311.631 276.694 310.956 275.963C309.606 274.501 308.875 272.532 308.875 270.563C308.875 269.551 309.044 268.538 309.438 267.638C309.831 266.738 310.337 265.838 311.012 265.107C311.687 264.376 312.531 263.813 313.431 263.363C314.387 262.913 315.4 262.688 316.469 262.744C317.538 262.744 318.55 262.969 319.506 263.419C320.406 263.869 321.194 264.488 321.869 265.219C322.544 265.951 323.05 266.794 323.388 267.751C323.725 268.651 323.95 269.663 323.95 270.619C323.95 271.632 323.781 272.644 323.388 273.544C323.05 274.444 322.488 275.288 321.813 276.019C321.138 276.751 320.294 277.313 319.45 277.707C318.494 278.101 317.481 278.382 316.413 278.382ZM311.913 270.507C311.913 271.182 312.025 271.801 312.194 272.419C312.363 273.038 312.7 273.601 313.094 274.051C313.488 274.557 313.938 274.894 314.5 275.176C315.063 275.457 315.738 275.626 316.413 275.626C317.088 275.626 317.763 275.513 318.325 275.176C318.888 274.894 319.338 274.501 319.731 273.994C320.125 273.488 320.406 272.926 320.575 272.307C320.969 271.069 320.969 269.719 320.575 268.482C320.35 267.863 320.069 267.301 319.675 266.851C319.281 266.401 318.831 266.007 318.269 265.726C317.706 265.444 317.031 265.276 316.413 265.276C315.738 265.276 315.063 265.444 314.5 265.726C313.938 266.007 313.488 266.401 313.094 266.907C312.7 267.413 312.419 267.976 312.25 268.594C312.025 269.269 311.969 269.888 311.913 270.507Z" fill="#21252B"/>
<path d="M332.781 275.681C333.4 275.681 334.019 275.568 334.581 275.231C335.031 274.95 335.481 274.556 335.762 274.106C336.044 273.6 336.269 273.093 336.381 272.531C336.494 271.912 336.55 271.293 336.55 270.675V262.8H339.531V270.675C339.531 271.687 339.419 272.7 339.137 273.656C338.912 274.556 338.519 275.343 337.956 276.075C337.394 276.806 336.662 277.368 335.875 277.706C334.919 278.156 333.85 278.325 332.781 278.325C331.713 278.381 330.644 278.156 329.631 277.706C328.788 277.312 328.113 276.75 327.55 276.018C326.988 275.287 326.594 274.443 326.369 273.543C326.144 272.587 326.031 271.631 326.031 270.675V262.8H329.012V270.675C329.012 271.293 329.069 271.912 329.181 272.531C329.294 273.093 329.519 273.656 329.8 274.162C330.475 275.175 331.6 275.793 332.781 275.681Z" fill="#21252B"/>
<path d="M354.1 265.443H349.15V278.268H346.169V265.443H341.219V262.8H354.044V265.443H354.1Z" fill="#21252B"/>
<path d="M367.15 275.681C367.769 275.681 368.387 275.568 368.95 275.231C369.4 274.95 369.794 274.556 370.131 274.106C370.412 273.6 370.637 273.093 370.75 272.531C370.862 271.912 370.919 271.293 370.919 270.675V262.8H373.9V270.675C373.9 271.687 373.787 272.7 373.506 273.656C373.281 274.556 372.887 275.343 372.325 276.075C371.762 276.806 371.031 277.368 370.244 277.706C369.287 278.156 368.219 278.325 367.15 278.325C366.081 278.381 365.012 278.156 364 277.706C363.156 277.312 362.481 276.75 361.919 276.018C361.356 275.287 360.962 274.443 360.737 273.543C360.512 272.587 360.4 271.631 360.4 270.675V262.8H363.437V270.675C363.437 271.293 363.494 271.912 363.606 272.531C363.719 273.093 363.944 273.656 364.225 274.162C364.506 274.612 364.9 275.006 365.406 275.287C365.969 275.568 366.531 275.737 367.15 275.681Z" fill="#21252B"/>
<path d="M386.106 266.85C385.937 266.681 385.769 266.569 385.544 266.456C385.206 266.288 384.925 266.062 384.587 265.95C384.194 265.781 383.744 265.612 383.35 265.5C382.9 265.387 382.45 265.331 382 265.331C381.325 265.275 380.706 265.444 380.144 265.781C379.75 266.062 379.525 266.569 379.525 267.075C379.525 267.356 379.581 267.638 379.75 267.862C379.919 268.087 380.144 268.312 380.425 268.425C380.762 268.594 381.156 268.762 381.55 268.875C382 268.987 382.506 269.156 383.069 269.269C383.8 269.494 384.475 269.719 385.15 269.944C385.712 270.169 386.219 270.45 386.725 270.787C387.119 271.125 387.512 271.575 387.737 272.025C387.962 272.587 388.131 273.206 388.075 273.825C388.075 274.556 387.906 275.287 387.625 275.962C387.344 276.525 386.894 277.031 386.387 277.369C385.825 277.762 385.206 277.987 384.587 278.156C383.856 278.325 383.125 278.381 382.45 278.381C381.269 278.381 380.144 278.212 379.019 277.875C377.95 277.537 376.881 277.031 375.981 276.412L377.331 273.825C377.556 273.994 377.781 274.162 378.006 274.331C378.4 274.556 378.794 274.781 379.244 274.95C379.75 275.175 380.256 275.4 380.762 275.512C381.325 275.681 381.887 275.737 382.506 275.737C384.137 275.737 384.981 275.231 384.981 274.162C384.981 273.881 384.869 273.544 384.7 273.319C384.475 273.037 384.194 272.869 383.912 272.7C383.519 272.531 383.069 272.362 382.675 272.194L381.044 271.687C380.369 271.519 379.75 271.294 379.131 271.012C378.625 270.787 378.175 270.506 377.781 270.169C377.444 269.831 377.162 269.494 376.937 269.044C376.769 268.537 376.656 268.031 376.656 267.525C376.656 266.794 376.769 266.119 377.106 265.444C377.387 264.825 377.781 264.319 378.344 263.925C378.85 263.531 379.469 263.194 380.144 263.025C380.875 262.8 381.606 262.688 382.337 262.688C383.35 262.688 384.362 262.856 385.319 263.194C386.162 263.475 386.95 263.925 387.681 264.375L386.106 266.85Z" fill="#21252B"/>
<path d="M529.656 375.188C565.229 375.188 594.062 346.352 594.062 310.781C594.062 275.21 565.229 246.375 529.656 246.375C494.085 246.375 465.25 275.21 465.25 310.781C465.25 346.352 494.085 375.188 529.656 375.188Z" fill="#EB5310"/>
<path opacity="0.8" d="M529.656 375.188C565.229 375.188 594.062 346.352 594.062 310.781C594.062 275.21 565.229 246.375 529.656 246.375C494.085 246.375 465.25 275.21 465.25 310.781C465.25 346.352 494.085 375.188 529.656 375.188Z" fill="white"/>
<path d="M529.656 375.75C493.769 375.75 464.688 346.669 464.688 310.781C464.688 274.894 493.769 245.812 529.656 245.812C565.544 245.812 594.625 274.894 594.625 310.781C594.569 346.669 565.544 375.694 529.656 375.75ZM529.656 246.938C494.387 246.938 465.812 275.512 465.812 310.781C465.812 346.05 494.387 374.625 529.656 374.625C564.925 374.625 593.5 346.05 593.5 310.781C593.444 275.512 564.925 246.994 529.656 246.938Z" fill="#EB5310"/>
<path d="M514.75 552.824L489.494 553.443L499.562 546.243C501.194 545.061 502.206 543.205 502.262 541.18L502.712 533.193L516.437 533.249L514.75 552.824Z" fill="#FC9D9D"/>
<path opacity="0.15" d="M511.938 543.6V543.431C512.05 542.587 511.431 541.8 510.531 541.631L502.375 540.45L502.488 538.875H516.1L514.863 552.262L503.837 551.025L507.494 549.619C509.969 548.606 511.656 546.244 511.938 543.6Z" fill="black"/>
<path d="M560.2 552.319H548.838L546.756 533.138L560.144 533.194L560.2 552.319Z" fill="#FC9D9D"/>
<path opacity="0.15" d="M557.331 549.111L557.05 543.205C556.994 542.418 556.431 541.799 555.7 541.686L547.544 540.449L547.375 538.818L560.144 538.874L560.2 552.486L557.331 549.111Z" fill="black"/>
<path d="M558.4 389.474L560.875 539.774H546.138L533.369 411.749C533.256 410.905 532.581 410.286 531.738 410.286C530.894 410.286 530.219 410.905 530.163 411.749L516.494 539.774H501.812L505.188 389.474H558.4Z" fill="#EB5310"/>
<path d="M561.325 539.774H545.575L545.294 536.568H561.269L561.325 539.774Z" fill="#EB5310"/>
<path opacity="0.2" d="M561.325 539.774H545.575L545.294 536.568H561.269L561.325 539.774Z" fill="black"/>
<path opacity="0.2" d="M561.325 539.774H554.744L554.575 536.568H561.269L561.325 539.774Z" fill="black"/>
<path opacity="0.2" d="M510.812 538.875L522.231 417.15C522.681 413.269 526 410.344 529.881 410.344H531.681C530.837 410.344 530.162 410.962 530.106 411.806L516.55 539.1L510.812 538.875Z" fill="black"/>
<path d="M516.888 539.774H501.194L501.419 536.568H517.225L516.888 539.774Z" fill="#EB5310"/>
<path opacity="0.2" d="M516.888 539.774H501.194L501.419 536.568H517.225L516.888 539.774Z" fill="black"/>
<path opacity="0.2" d="M517 539.774H510.812L511.038 536.568H517.225L517 539.774Z" fill="black"/>
<path opacity="0.2" d="M558.4 389.475L560.931 536.456L554.575 536.512L551.538 382.781L558.4 389.475Z" fill="black"/>
<path d="M468.794 309.263C468.794 309.263 469.187 301.388 468.625 299.981L464.237 292.275C464.237 292.275 463.506 292.106 463.506 293.738C463.562 294.806 463.9 295.819 464.575 296.663L464.687 298.744L463.169 297.731L459.906 292.838C459.906 292.838 457.881 289.575 457.206 289.913C455.969 290.531 457.037 291.769 458.05 293.288L460.244 296.775C460.244 296.775 460.581 297.394 459.512 296.55C458.444 295.706 455.912 291.319 455.406 290.756C454.9 290.194 454.169 288.619 453.269 289.069C452.369 289.519 453.775 291.431 453.775 291.431L457.487 297.956C457.487 297.956 455.462 295.538 455.125 295.144C454.787 294.75 453.887 293.344 453.269 292.669C452.65 291.994 451.975 291.769 451.581 291.994C451.187 292.163 450.962 292.669 451.131 293.063L454.9 298.35C454.9 298.35 456.756 300.713 456.756 300.881C456.756 301.05 455.237 300.206 455.237 300.206L453.719 298.631C453.719 298.631 452.031 296.213 451.244 296.381C450.456 296.55 450.681 297.169 450.681 297.169L453.887 301.613L458.331 306.281L462.1 309.656C462.437 310.444 462.831 311.175 463.281 311.906C463.337 312.075 468.794 309.263 468.794 309.263Z" fill="#FC9D9D"/>
<path opacity="0.3" d="M464.237 299.531C464.237 299.531 463 302.625 464.069 305.156" stroke="black" stroke-width="0.6" stroke-miterlimit="10" stroke-linecap="round"/>
<path d="M480.438 556.989V556.426C480.438 554.626 481.9 553.164 483.7 553.164H488.2C489.156 553.164 490.056 552.826 490.731 552.151L502.262 541.182L505.862 545.907C506.875 547.257 508.844 547.539 510.194 546.47C510.362 546.301 510.531 546.189 510.7 545.964C511.262 545.289 512.162 544.839 513.062 544.839H515.481V556.708L480.438 556.989Z" fill="#3F4249"/>
<path d="M480.438 556.986V558.786H515.537V556.818L480.438 556.986Z" fill="black"/>
<path d="M504.569 544.163L496.75 550.519C495.906 551.194 494.612 551.138 493.825 550.351L493.262 549.788L502.262 541.238C502.712 541.126 503.275 541.294 503.556 541.688L504.512 543.038C504.737 543.319 504.794 543.769 504.681 544.107L504.569 544.163Z" fill="black"/>
<path d="M550.3 543.656H549.344C548.5 543.656 547.769 544.331 547.656 545.174L547.488 548.718C547.431 549.787 547.15 550.911 546.644 551.868L546.306 552.487C545.688 553.724 545.35 555.074 545.35 556.48V557.099H563.35C563.35 555.356 562.788 553.612 561.831 552.206C561.1 551.137 560.65 549.899 560.481 548.549L560.088 545.006C559.919 544.218 559.188 543.599 558.344 543.656H557.725" fill="#3F4249"/>
<path d="M563.237 557.044H545.294V558.788H563.237V557.044Z" fill="black"/>
<path d="M552.662 542.026H555.306C556.544 542.026 557.556 543.039 557.556 544.276C557.556 544.332 557.556 544.445 557.556 544.501L556.994 549.339C556.769 550.801 555.531 551.926 554.069 551.926C552.55 551.926 551.256 550.801 551.144 549.282L550.581 544.445C550.412 543.264 551.2 542.195 552.381 542.026C552.437 542.026 552.55 542.026 552.662 542.026Z" fill="black"/>
<path d="M549.231 545.232H558.737" stroke="white" stroke-width="1.15" stroke-linecap="round" stroke-linejoin="round"/>
<path d="M549.512 547.482H558.456" stroke="white" stroke-width="1.15" stroke-linecap="round" stroke-linejoin="round"/>
<path d="M549.794 549.674H558.231" stroke="white" stroke-width="1.15" stroke-linecap="round" stroke-linejoin="round"/>
<path d="M495.625 546.411L499.113 549.73" stroke="white" stroke-width="1.15" stroke-linecap="round" stroke-linejoin="round"/>
<path d="M497.538 544.724L501.081 548.099" stroke="white" stroke-width="1.15" stroke-linecap="round" stroke-linejoin="round"/>
<path d="M499.45 543.094L502.994 546.412" stroke="white" stroke-width="1.15" stroke-linecap="round" stroke-linejoin="round"/>
<path d="M498.325 335.475L502.938 330.019L504.513 388.8C504.569 389.081 504.794 389.306 505.075 389.363H557.95C558.625 389.363 559.188 388.8 559.244 388.125L560.931 337.669L570.325 315.956C570.325 310.556 565.6 308.531 561.831 307.519L541.863 302.625L540.344 304.369C537.025 308.137 531.288 308.475 527.519 305.212C526.675 304.481 526 303.581 525.494 302.625H527.125L505.863 304.65H505.75C502.881 304.875 500.238 306.225 498.325 308.363L487.694 325.181L498.325 335.475Z" fill="#21252B"/>
<path opacity="0.3" d="M543.55 313.595C543.55 313.595 542.2 309.545 539.95 309.095L531.456 314.945C531.456 314.945 527.856 310.445 523.356 309.095C521.725 310.051 520.375 311.457 519.419 313.145L519.756 306.901L541.75 306.451C541.75 306.395 544.45 311.795 543.55 313.595Z" fill="black"/>
<path d="M487.694 325.239L485.163 329.232L468.456 306.339L461.425 309.039L478.244 343.689C478.975 345.882 480.831 347.514 483.081 348.076H483.194C485.275 348.47 487.356 347.907 488.931 346.501L498.325 335.42L487.694 325.239Z" fill="#FC9D9D"/>
<path d="M541.806 301.276L542.706 302.064C542.706 302.064 546.194 307.295 544.169 313.257L543.494 313.595L543.438 313.089C543.213 310.895 541.806 308.982 539.837 308.082C536.8 310.107 533.988 312.414 531.456 314.945C531.456 314.945 527.631 309.432 523.469 308.195C523.469 308.195 520.431 308.701 519.419 313.145L518.8 313.032C518.8 313.032 517.394 306.395 520.6 302.626L522.569 300.939C523.131 300.601 523.75 300.432 524.369 300.432H539.556C540.4 300.432 541.187 300.714 541.806 301.276Z" fill="#21252B"/>
<path d="M541.806 301.276L542.706 302.064C542.706 302.064 546.194 307.295 544.169 313.257L543.494 313.595L543.438 313.089C543.213 310.895 541.806 308.982 539.837 308.082C536.8 310.107 533.988 312.414 531.456 314.945C531.456 314.945 527.631 309.432 523.469 308.195C523.469 308.195 520.431 308.701 519.419 313.145L518.8 313.032C518.8 313.032 517.394 306.395 520.6 302.626L522.569 300.939C523.131 300.601 523.75 300.432 524.369 300.432H539.556C540.4 300.432 541.187 300.714 541.806 301.276Z" fill="white"/>
<path opacity="0.2" d="M484.994 328.555L486.231 330.861C486.569 331.255 487.187 331.311 487.581 330.974C487.637 330.918 487.637 330.918 487.694 330.861L486.681 326.755L484.994 328.555Z" fill="black"/>
<path opacity="0.3" d="M502.994 330.131L504.681 329.344C504.85 329.288 505.019 329.344 505.075 329.456C505.131 329.513 505.131 329.625 505.075 329.738L503.162 333.956L502.994 330.131Z" fill="black"/>
<path opacity="0.3" d="M547.656 389.362L551.987 389.474H557.95C558.738 389.474 559.356 388.856 559.356 388.124L562.112 337.781L557.5 334.574C557.219 333.899 556.375 333.562 555.7 333.899C555.25 334.124 554.913 334.518 554.913 335.024L554.575 360.506L547.656 389.362Z" fill="black"/>
<path opacity="0.2" d="M547.656 389.362L546.194 393.637L545.35 392.231C545.012 392.568 544.9 393.131 545.069 393.581C546.756 397.406 549.287 400.781 552.494 403.424L550.075 389.418L547.656 389.362Z" fill="black"/>
<path d="M570.156 315.562L574.206 360.619C574.375 362.588 573.869 364.5 572.744 366.131L555.419 395.663C555.981 398.588 554.856 401.625 552.494 403.481C552.494 403.481 548.444 398.925 546.925 394.594L559.975 361.856L559.75 339.806L570.156 315.562Z" fill="#FC9D9D"/>
<path d="M540.344 302.907C540.344 303.132 532.413 313.313 531.288 313.313C530.219 312.751 523.412 303.807 523.469 303.582L523.75 297.563V294.188C523.581 293.401 522.625 292.669 522.625 291.657C522.344 286.876 521.781 282.601 521.781 282.601C521.781 282.601 537.363 272.194 538.319 284.288L538.712 286.032L540.344 302.907Z" fill="#FC9D9D"/>
<path d="M557.275 340.311L556.319 332.83L570.325 314.943L572.294 338.005L557.275 340.311Z" fill="#21252B"/>
<path d="M557.275 340.314L560.031 361.857L548.95 389.645L555.475 395.72L572.8 366.189C573.925 364.557 574.431 362.589 574.263 360.676L572.35 338.12L557.275 340.314Z" fill="#FC9D9D"/>
<path d="M499.619 334.126L488.706 323.776L487.694 325.351L498.325 335.589L499.619 334.126Z" fill="white"/>
<path d="M572.069 335.589L556.994 338.176L557.275 340.426L572.294 338.176L572.069 335.589Z" fill="white"/>
<path d="M516.775 265.331C519.194 264.6 521.669 266.794 524.144 266.344C525.662 266.062 526.787 264.881 528.137 264.15C531.794 262.012 538.037 263.812 538.544 268.369C543.494 266.962 546.644 274.162 544.619 278.887C542.987 282.712 542.2 285.806 538.712 288.056C536.8 282.319 541.412 274.837 533.087 272.306C527.856 271.35 524.706 277.594 519.7 277.762C516.1 278.325 513.4 272.925 517.337 271.575C513.906 271.35 513.456 266.287 516.775 265.331Z" fill="black"/>
<path d="M520.375 271.126C520.375 271.126 513.681 297.001 527.181 298.857C538.881 300.432 540.231 282.207 540.231 282.207L539.725 273.714L530.725 270.057L520.375 271.126Z" fill="#FC9D9D"/>
<path opacity="0.15" d="M539.556 286.706C538.937 286.593 538.375 286.143 538.15 285.581L539.669 288.393L539.556 286.706Z" fill="black"/>
<path opacity="0.15" d="M535 296.268C533.537 297.956 531.456 299.081 529.262 299.306C527.575 300.374 525.606 300.937 523.637 300.824L523.919 297.506L524.369 297.787C527.8 299.699 532.131 298.912 534.662 295.931C534.719 295.818 534.944 295.818 535 295.874C535.056 295.987 535.056 296.156 535 296.268Z" fill="black"/>
<path d="M529.825 281.87C530.444 281.87 530.95 282.376 530.95 282.995C530.95 283.614 530.444 284.12 529.825 284.12C529.206 284.12 528.7 283.614 528.7 282.995V282.939C528.756 282.376 529.206 281.87 529.825 281.87Z" fill="black"/>
<path d="M529.263 282.882C529.387 282.882 529.488 282.781 529.488 282.657C529.488 282.533 529.387 282.432 529.263 282.432C529.138 282.432 529.038 282.533 529.038 282.657C529.038 282.781 529.138 282.882 529.263 282.882Z" fill="white"/>
<path d="M521.163 284.12C521.784 284.12 522.288 283.616 522.288 282.995C522.288 282.373 521.784 281.87 521.163 281.87C520.541 281.87 520.038 282.373 520.038 282.995C520.038 283.616 520.541 284.12 521.163 284.12Z" fill="black"/>
<path d="M520.656 282.825C520.78 282.825 520.881 282.724 520.881 282.6C520.881 282.476 520.78 282.375 520.656 282.375C520.532 282.375 520.431 282.476 520.431 282.6C520.431 282.724 520.532 282.825 520.656 282.825Z" fill="white"/>
<path opacity="0.2" d="M524.875 289.238L526.281 289.35C526.45 289.35 526.619 289.238 526.675 289.069C526.675 288.901 526.562 288.788 526.394 288.732L524.987 288.619C524.65 288.563 524.313 288.226 524.425 287.944C524.538 287.663 524.819 287.326 525.1 287.382C525.269 287.382 525.381 287.269 525.494 287.101C525.55 286.932 525.381 286.819 525.212 286.763C524.537 286.707 523.919 287.213 523.806 287.944C523.637 288.563 524.2 289.182 524.875 289.238Z" fill="black"/>
<path d="M528.869 291.375C529.038 291.375 529.094 291.488 529.038 291.656C528.644 293.175 527.069 294.019 525.55 293.625C524.819 293.4 524.2 292.894 523.806 292.219C523.75 292.106 523.806 291.994 523.863 291.938H523.919L528.869 291.375Z" fill="white"/>
<path d="M518.238 275.344C521.05 276.188 524.088 275.625 526.394 273.882C527.969 272.644 529.263 270.844 531.175 270.338C532.525 270.057 533.931 270.282 535.056 271.069C536.181 271.8 537.138 272.813 537.925 273.938C537.138 277.594 537.531 283.444 537.813 283.669C538.319 284.063 538.656 284.007 539.106 283.557C539.837 282.825 540.569 280.238 540.794 279.225C541.3 276.919 541.469 277.313 541.075 275.007C540.681 272.7 540.175 270.45 538.544 268.763C536.463 266.682 533.65 265.444 530.669 265.388C527.688 265.332 524.819 266.232 522.4 267.919C521.219 268.65 520.263 269.663 519.644 270.844L518.238 275.344Z" fill="black"/>
<path d="M538.994 275.063C537.531 273.994 535.563 274.107 534.156 275.232C533.931 275.457 533.65 275.682 533.313 275.907C533.031 276.132 532.638 276.132 532.3 275.907C532.075 275.682 531.963 275.344 532.075 275.063C532.188 274.782 532.3 274.501 532.525 274.219C531.175 275.682 529.263 276.469 527.294 276.413C526.506 276.357 525.55 276.132 525.213 275.401C524.875 274.669 525.213 273.713 525.775 273.038C528.25 269.776 532.863 269.101 536.181 271.576C537.25 272.363 538.094 273.488 538.6 274.726" fill="black"/>
<path d="M539.219 280.8C539.5 279.675 540.625 279 541.694 279.281C541.806 279.281 541.919 279.338 542.031 279.394C544.619 280.238 544 285.525 540.456 286.594C538.263 286.987 538.6 285.694 538.825 283.894L539.219 280.8Z" fill="#FC9D9D"/>
<path opacity="0.2" d="M542.313 280.857C541.919 280.576 541.469 280.519 541.075 280.688C540.681 280.857 540.344 281.138 540.175 281.532C539.95 282.038 539.837 282.544 539.894 283.107V283.557C539.894 283.726 540.062 283.782 540.175 283.782C540.344 283.782 540.4 283.613 540.4 283.501V282.938C540.4 282.488 540.456 282.038 540.569 281.644C540.681 281.419 540.906 281.194 541.131 281.082C541.413 281.026 541.694 281.082 541.919 281.194C542.031 281.251 542.2 281.194 542.256 281.082C542.481 281.082 542.425 280.969 542.313 280.857Z" fill="black"/>
<path d="M534.044 282.095L538.881 281.532L538.825 280.857L534.044 281.364C534.044 280.52 533.369 279.901 532.525 279.901L527.462 280.07H527.406L523.525 280.182H522.906L518.406 280.351C517.619 280.464 517 281.139 517 281.982L517.056 283.164C517.056 285.357 518.8 287.214 521.05 287.214C523.244 287.214 525.1 285.47 525.1 283.22C525.1 283.107 525.1 282.995 525.1 282.882L525.044 281.701C525.044 281.364 524.931 281.026 524.706 280.745L526.281 280.689C526.056 280.97 525.944 281.307 526 281.589L526.056 282.77C526 284.964 527.8 286.82 530.05 286.82C532.3 286.82 534.1 285.076 534.1 282.826C534.1 282.714 534.1 282.601 534.1 282.489L534.044 282.095ZM521.275 286.595C519.362 286.707 517.788 285.245 517.675 283.389C517.675 283.332 517.675 283.276 517.675 283.22L517.619 282.039C517.619 281.532 518.012 281.139 518.462 281.082L522.962 280.914H523.581C524.088 280.914 524.481 281.307 524.481 281.814L524.538 282.995C524.594 284.851 523.131 286.482 521.275 286.595ZM530.163 286.257C528.25 286.37 526.675 284.907 526.563 283.051C526.563 282.995 526.563 282.939 526.563 282.826L526.506 281.645C526.563 281.195 526.9 280.801 527.406 280.745L532.469 280.576C532.975 280.576 533.369 280.97 533.369 281.476L533.425 282.657C533.481 284.57 532.019 286.201 530.163 286.257Z" fill="black"/>
<path d="M700.038 473.513H665.725C663.869 473.513 662.35 471.994 662.35 470.138V442.013C662.35 440.157 663.869 438.638 665.725 438.638H700.038C701.894 438.638 703.413 440.157 703.413 442.013V470.138C703.413 471.994 701.894 473.513 700.038 473.513Z" fill="#B2B6BB"/>
<path d="M692.387 462.431H676.3H673.431V449.719H692.387V452.925V462.431Z" stroke="white" stroke-width="1.65" stroke-linecap="round" stroke-linejoin="round"/>
<path d="M673.431 449.719L682.881 457.2L692.387 449.719" stroke="white" stroke-width="1.65" stroke-linecap="round" stroke-linejoin="round"/>
<path d="M146.144 223.143H178.769C180.85 223.143 182.481 224.831 182.481 226.856V258.412C182.481 260.493 180.794 262.125 178.769 262.125H146.144C144.062 262.125 142.431 260.437 142.431 258.412V226.856C142.375 224.831 144.062 223.143 146.144 223.143Z" fill="#B2B6BB"/>
<path d="M154.638 234.619C150.194 239.062 150.194 246.206 154.638 250.65C159.081 255.094 166.225 255.094 170.669 250.65C175.113 246.206 175.113 239.062 170.669 234.619C166.281 230.231 159.081 230.231 154.638 234.619ZM170.669 236.25H167.069C166.675 235.069 166.225 233.944 165.663 232.819C167.631 233.437 169.375 234.619 170.669 236.25ZM158.519 241.987C158.519 240.525 158.688 239.006 159.081 237.6H166.338C166.675 239.062 166.844 240.525 166.9 241.987H158.519ZM166.788 243.337C166.675 244.8 166.394 246.319 166 247.725H159.306C158.913 246.262 158.631 244.8 158.519 243.337H166.788ZM162.681 232.425C163.244 232.425 163.75 232.481 164.313 232.537C164.988 233.719 165.55 234.956 165.944 236.25H159.419C159.869 234.956 160.375 233.719 161.05 232.537C161.613 232.481 162.119 232.425 162.681 232.425ZM159.7 232.875C159.138 233.944 158.688 235.125 158.294 236.306H154.694C155.988 234.675 157.731 233.494 159.7 232.875ZM153.794 237.6H157.956C157.619 239.062 157.394 240.525 157.394 241.987H152.5C152.613 240.469 153.006 238.95 153.794 237.6ZM153.794 247.725C153.006 246.375 152.556 244.856 152.5 243.337H157.394C157.45 244.8 157.731 246.319 158.069 247.725H153.794ZM154.694 249.075H158.463C158.856 250.256 159.306 251.381 159.869 252.506C157.788 251.887 155.988 250.706 154.694 249.075ZM162.681 252.9C162.231 252.9 161.781 252.844 161.331 252.787C160.713 251.55 160.206 250.312 159.756 249.019H165.606C165.156 250.312 164.65 251.55 164.031 252.787C163.581 252.844 163.131 252.9 162.681 252.9ZM165.494 252.506C166.056 251.381 166.506 250.256 166.9 249.075H170.669C169.319 250.706 167.519 251.887 165.494 252.506ZM171.569 247.725H167.294C167.688 246.262 167.913 244.8 167.969 243.337H172.863C172.806 244.856 172.356 246.375 171.569 247.725ZM172.863 241.987H167.969C167.969 240.525 167.744 239.006 167.406 237.6H171.569C172.356 238.95 172.806 240.469 172.863 241.987Z" fill="white"/>
<path d="M371.875 488.643H402.306C404.444 488.643 406.187 490.387 406.187 492.524V520.874C406.187 523.012 404.444 524.756 402.306 524.756H373.112C370.3 524.756 367.994 522.449 367.994 519.637V492.524C367.994 490.387 369.737 488.643 371.875 488.643Z" fill="#B2B6BB"/>
<path d="M395.331 510.525L393.137 508.331C392.8 507.938 392.294 507.656 391.731 507.656C391.225 507.656 390.719 507.881 390.325 508.275L389.087 509.513L388.862 509.4C388.75 509.344 388.581 509.288 388.469 509.231C387.231 508.444 386.162 507.431 385.262 506.306C384.869 505.8 384.531 505.294 384.25 504.731C384.531 504.45 384.812 504.169 385.094 503.888L385.431 503.55C386.219 502.875 386.331 501.694 385.656 500.85C385.6 500.794 385.544 500.738 385.431 500.625L384.363 499.556C384.25 499.444 384.137 499.331 384.025 499.163L383.294 498.431C382.9 498.037 382.45 497.812 381.887 497.812C381.381 497.812 380.875 498.037 380.481 498.431L379.131 499.781C378.625 500.288 378.287 500.963 378.231 501.694C378.175 502.706 378.344 503.719 378.738 504.619C379.413 506.475 380.425 508.219 381.775 509.681C383.462 511.706 385.6 513.394 387.962 514.519C389.031 515.081 390.212 515.419 391.45 515.588H391.731C392.631 515.588 393.475 515.25 394.094 514.575L394.15 514.519C394.375 514.294 394.6 514.013 394.825 513.844L395.331 513.338C396.119 512.606 396.175 511.369 395.444 510.581C395.387 510.581 395.331 510.581 395.331 510.525ZM394.431 512.55L393.981 513C393.7 513.225 393.475 513.506 393.194 513.788C392.8 514.181 392.294 514.35 391.787 514.35H391.619C390.55 514.238 389.537 513.9 388.581 513.394C386.331 512.325 384.363 510.75 382.788 508.838C381.606 507.431 380.65 505.856 379.975 504.169C379.638 503.438 379.469 502.594 379.525 501.75C379.525 501.3 379.75 500.906 380.087 500.625L381.381 499.331C381.55 499.163 381.719 499.05 381.944 499.05C382.169 499.05 382.394 499.163 382.506 499.331L383.125 500.063C383.237 500.175 383.35 500.344 383.519 500.456L384.587 501.525C384.756 501.694 384.812 501.862 384.869 502.087C384.869 502.312 384.756 502.481 384.587 502.65L384.25 502.988L383.294 503.944L383.238 504C382.956 504.225 382.844 504.619 383.012 504.956V505.013C383.35 505.744 383.8 506.475 384.306 507.094C385.319 508.331 386.5 509.456 387.85 510.3C388.019 510.413 388.187 510.469 388.356 510.581C388.469 510.638 388.637 510.694 388.75 510.75L388.806 510.806C389.144 510.975 389.594 510.919 389.875 510.638L391.225 509.288C391.394 509.119 391.562 509.006 391.787 509.006C391.956 509.006 392.181 509.119 392.294 509.288L394.487 511.481C394.769 511.763 394.769 512.213 394.431 512.55C394.487 512.55 394.431 512.55 394.431 512.55Z" fill="white"/>
<path d="M410.913 115.255H442.019C444.213 115.255 446.013 117.055 446.013 119.249V148.274C446.013 150.468 444.213 152.268 442.019 152.268H412.206C409.281 152.268 406.975 149.905 406.975 147.036V119.305C406.919 116.999 408.719 115.255 410.913 115.255Z" fill="#B2B6BB"/>
<path d="M431.219 130.444C431.219 127.8 429.081 125.719 426.494 125.719C423.85 125.719 421.769 127.856 421.712 130.444C421.712 133.088 423.85 135.169 426.437 135.169C429.081 135.225 431.219 133.088 431.219 130.444ZM422.894 130.444C422.894 128.475 424.469 126.9 426.437 126.9C428.406 126.9 429.981 128.475 429.981 130.444C429.981 132.413 428.406 133.988 426.437 133.988C424.469 133.988 422.894 132.413 422.894 130.444Z" fill="white"/>
<path d="M425.987 144.449C426.156 144.731 426.55 144.787 426.831 144.562C426.887 144.506 426.944 144.506 426.944 144.449C427 144.393 427.225 144.056 427.562 143.606L431.05 138.206C432.681 135.449 434.144 132.356 434.144 130.499C434.256 126.224 430.881 122.681 426.662 122.568C422.387 122.456 418.844 125.831 418.731 130.049C418.731 130.162 418.731 130.331 418.731 130.443C418.731 132.299 420.137 135.224 421.712 137.924L425.369 143.606C425.706 144.056 425.931 144.393 425.987 144.449ZM426.437 123.918C430.037 123.918 432.962 126.843 432.962 130.443C432.962 133.256 428.631 140.006 426.437 143.043C424.244 139.949 419.912 133.256 419.912 130.443C419.912 126.843 422.837 123.918 426.437 123.918Z" fill="white"/>
<path d="M252.625 522.786C254.537 523.18 256.169 524.305 257.181 525.936C258.194 527.568 258.812 529.368 258.981 531.28C259.431 534.936 258.306 539.043 256.844 542.418C253.187 540.561 251.387 536.174 250.6 533.868C249.419 530.268 249.362 523.011 252.625 522.786Z" fill="#EB5310"/>
<path d="M262.3 547.876C261.175 546.019 261.119 543.713 262.188 541.801C263.256 539.944 265.056 538.594 267.138 538.032C268.094 537.751 269.163 537.694 270.006 538.257C270.738 538.819 271.075 539.776 270.963 540.732C270.794 541.632 270.4 542.476 269.781 543.207C267.756 545.626 265.45 547.707 262.3 547.876Z" fill="#EB5310"/>
<path d="M255.1 549.561C253.3 545.399 249.588 542.305 245.144 541.349C244.019 541.124 242.613 541.124 241.994 542.08C241.375 543.036 241.881 544.33 242.5 545.286C245.369 549.224 250.319 551.08 255.1 549.899" fill="#EB5310"/>
<path d="M253.525 528.411C254.256 530.999 254.987 533.586 255.662 536.174C256.337 538.761 257.012 541.405 257.631 543.993C258.25 546.58 258.869 549.224 259.431 551.868C259.994 554.511 260.556 557.099 261.006 559.743L257.181 544.105L255.269 536.286C254.706 533.643 254.087 530.999 253.525 528.411Z" fill="#21252B"/>
<path d="M261.4 559.237C261.119 557.606 261.006 555.975 261.006 554.344C261.006 552.712 261.231 551.025 261.625 549.45C262.019 547.819 262.694 546.3 263.65 544.95C264.156 544.275 264.719 543.656 265.338 543.15C266.013 542.644 266.744 542.25 267.475 541.969C266.013 542.7 264.775 543.825 263.875 545.175C262.975 546.525 262.356 548.044 262.019 549.619C261.625 551.194 261.4 552.825 261.344 554.4C261.231 555.975 261.288 557.606 261.4 559.237Z" fill="#21252B"/>
<path d="M260.556 559.406C259.994 557.887 259.375 556.368 258.587 554.906C257.856 553.443 257.013 552.093 256 550.799C255.044 549.506 253.863 548.381 252.513 547.537C251.163 546.637 249.588 546.131 247.956 546.074C248.8 546.018 249.588 546.131 250.431 546.299C251.219 546.524 252.006 546.862 252.738 547.256C254.144 548.099 255.381 549.224 256.394 550.574C257.406 551.868 258.25 553.274 258.925 554.793C259.6 556.256 260.162 557.774 260.556 559.406Z" fill="#21252B"/>
<path d="M632.875 522.786C630.962 523.18 629.331 524.305 628.319 525.936C627.306 527.568 626.687 529.368 626.519 531.28C626.069 534.936 627.194 539.043 628.656 542.418C632.312 540.561 634.112 536.174 634.844 533.868C636.081 530.268 636.081 523.011 632.875 522.786Z" fill="#EB5310"/>
<path d="M623.2 547.876C624.325 546.019 624.381 543.713 623.313 541.801C622.244 539.944 620.444 538.594 618.363 538.032C617.406 537.751 616.338 537.694 615.494 538.257C614.763 538.819 614.425 539.776 614.538 540.732C614.706 541.632 615.1 542.476 615.719 543.207C617.744 545.626 620.106 547.707 623.2 547.876Z" fill="#EB5310"/>
<path d="M630.456 549.561C632.256 545.399 635.969 542.305 640.413 541.349C641.538 541.124 642.888 541.124 643.563 542.08C644.238 543.036 643.675 544.33 643 545.286C640.131 549.224 635.181 551.08 630.4 549.899" fill="#EB5310"/>
<path d="M632.031 528.411C631.3 530.999 630.569 533.586 629.894 536.174C629.219 538.761 628.544 541.405 627.925 543.993C627.306 546.58 626.688 549.224 626.125 551.868C625.563 554.511 625 557.099 624.55 559.743L628.375 544.105L630.288 536.286C630.794 533.643 631.413 530.999 632.031 528.411Z" fill="#21252B"/>
<path d="M624.1 559.237C624.381 557.606 624.494 555.975 624.494 554.344C624.494 552.712 624.269 551.025 623.875 549.45C623.481 547.819 622.806 546.3 621.85 544.95C621.344 544.275 620.781 543.656 620.162 543.15C619.487 542.644 618.756 542.25 618.025 541.969C619.487 542.7 620.725 543.825 621.625 545.175C622.525 546.525 623.144 548.044 623.481 549.619C623.875 551.194 624.1 552.825 624.156 554.4C624.269 555.975 624.269 557.606 624.1 559.237Z" fill="#21252B"/>
<path d="M625 559.406C625.563 557.887 626.181 556.368 626.969 554.906C627.7 553.443 628.544 552.093 629.556 550.799C630.512 549.506 631.694 548.381 633.044 547.537C634.394 546.637 635.969 546.131 637.6 546.074C636.756 546.018 635.969 546.131 635.125 546.299C634.338 546.524 633.55 546.862 632.819 547.256C631.413 548.099 630.175 549.224 629.163 550.574C628.15 551.868 627.306 553.274 626.631 554.793C625.956 556.256 625.394 557.774 625 559.406Z" fill="#21252B"/>
</svg>
