<svg xmlns="http://www.w3.org/2000/svg" xmlns:xlink="http://www.w3.org/1999/xlink" width="1920" height="1095.017" viewBox="0 0 1920 1095.017">
  <defs>
    <linearGradient id="linear-gradient" x1="0.5" y1="1" x2="0.5" gradientUnits="objectBoundingBox">
      <stop offset="0" stop-color="gray" stop-opacity="0.251"/>
      <stop offset="0.54" stop-color="gray" stop-opacity="0.122"/>
      <stop offset="1" stop-color="gray" stop-opacity="0.102"/>
    </linearGradient>
    <linearGradient id="linear-gradient-2" x1="0" y1="0.5" x2="1" y2="0.5" xlink:href="#linear-gradient"/>
  </defs>
  <g id="Group_8" data-name="Group 8" transform="translate(0.02 0)">
    <path id="Path_130" data-name="Path 130" d="M1181.476,888.91c37.09-2.115,83.109-27.272,118.89-38.4q63.523-19.7,127.55-37.913,222.894-63.423,450.571-108.082,21.248-4.179,42.562-8.156a301.272,301.272,0,0,0-99.455-119.444,305.6,305.6,0,0,0,1.678-31.518c0-166.386-132.971-301.27-297.057-301.27a292.322,292.322,0,0,0-144.165,37.845c-116.138-76.4-267.721-122.633-433.57-122.633C712.813,159.34,505.93,252.7,388.7,393.294l550.949,93.078,337.907,57.062C892.34,554.93,505.93,566.359,121.82,539.372A304.476,304.476,0,0,0,77.983,923.7h0c0,6.025.252,12,.7,17.924,9.784,2.8,19.233,5.522,27.709,7.3q204.1,43.115,410.812,72.167c-101.553,62.617-225.227,71.478-342.371,98,56.726,46.824,133.76,75.523,218.648,75.523H1657.439c136.865,0,247.8-95.277,247.8-212.824h0A302.406,302.406,0,0,0,1945.518,871.2C1692.264,895.657,1435.854,874.426,1181.476,888.91Z" transform="translate(-27.268 -99.593)" fill="#6c63ff" opacity="0.1"/>
    <path id="Path_131" data-name="Path 131" d="M1947.978,822.429a302.092,302.092,0,0,0-127.55-247.414,309.975,309.975,0,0,0,1.678-31.5c0-166.386-133.038-301.22-297.057-301.22a292.493,292.493,0,0,0-144.182,37.829C1264.729,203.694,1113.13,157.44,947.281,157.44c-269.768,0-501.977,122.431-604.957,298-5.723-.336-11.479-.52-17.286-.52C161,454.917,27.98,589.8,27.98,756.187a302.981,302.981,0,0,0,48.872,165.6h0c0,149.7,141.3,271.061,315.519,271.061H1656.359c136.848,0,247.783-95.293,247.783-212.841h0a302.966,302.966,0,0,0,43.837-157.575Z" transform="translate(-28 -100.882)" fill="#ffdab8"/>
    <path id="Path_132" data-name="Path 132" d="M1134.923,591.173a18.7,18.7,0,0,0-8.19-3.592c-3.139-.722-6.344-1.175-9.533-1.678l-41.32-5.958a48.666,48.666,0,0,0-12.654-.671,16.061,16.061,0,0,0-11.01,5.706,8.577,8.577,0,0,0-1.913,5.37,14.166,14.166,0,0,0,1.88,5.572,18.606,18.606,0,0,1,1.024,2.467,56.482,56.482,0,0,0,1.477,5.622,4.772,4.772,0,0,0,.7,1.108,1.8,1.8,0,0,1,0,.285c-.453,2.316,1.007,4.733.353,6.965-.571,1.913-2.434,3.071-3.608,4.666a7.015,7.015,0,0,0-.168,7.737c1.259,1.947,3.541,3.273,4.2,5.5.856,2.937-1.46,5.773-3.524,8.039a124.6,124.6,0,0,0-10.506,13.242,8.205,8.205,0,0,0-1.678,3.944c-.185,2.92,2.618,5.488,2.131,8.391-.386,2.282-2.618,3.675-4.548,5.035-7.133,4.7-12.856,12.252-13.426,20.794a72.84,72.84,0,0,0-16.246-36.922c-2.4-2.887-5.035-5.79-6.025-9.449-.369-1.46-.436-3.021-.94-4.431-1.678-4.448-7.015-6.361-9.348-10.456-1.678-2.887-1.678-6.6-3.759-9.13s-5.354-3.1-7.15-5.555a35.523,35.523,0,0,1-2.282-5.169,11.3,11.3,0,0,0-3.1-3.726,9.075,9.075,0,0,0-.772-.554,2.667,2.667,0,0,0,.89-1.98c0-1.964-1.947-3.256-3.642-4.229-2.182-1.242-4.313-2.585-6.394-3.978a14.952,14.952,0,0,0,5.723-4.682,15.389,15.389,0,0,0,2.182-10.07,12.7,12.7,0,0,0-3-7.7c-1.057-1.125-2.383-1.93-3.491-2.987-2.87-2.8-3.843-6.948-5.035-10.775-1.578-5.035-4.045-10.321-8.643-12.99-2.215-1.292-4.8-1.9-6.965-3.256s-3.978-3.927-3.222-6.394c.5-1.678,2.064-2.836,3.122-4.263a8.492,8.492,0,0,0-2.131-11.748c-1.242-.789-2.769-1.477-3.021-2.92a5.336,5.336,0,0,1-3.894-4.128,15.91,15.91,0,0,1,0-5.975q.654-4.682,1.292-9.331a6.075,6.075,0,0,0,4.666,0,41.08,41.08,0,0,0,5.035,6.579A65.739,65.739,0,0,1,960.2,523.89c.957,2.685,1.93,5.689,4.414,7.116.856.487,1.829.738,2.669,1.259a9.967,9.967,0,0,1,2.618,2.685c2.014,2.669,4.028,5.32,6.025,7.989l.1.4a2.349,2.349,0,0,0,.269.671,2.231,2.231,0,0,0,1.443.738c6.176,1.427,13.107,2.736,18.461-.638,4.833-3.021,6.948-9,11.043-12.99,2.9-2.836,7.015-5.035,7.838-9.029a29.677,29.677,0,0,1-2.887-1.057c.839-.839,1.678-1.812,2.82-2.92a35.565,35.565,0,0,0,4.464-5.32,34.3,34.3,0,0,0,3.357-7.519q4.85-13.829,9.734-27.675c1.544-4.364,3.088-8.761,5.035-13.007,2.014-4.6,4.4-9.012,6.6-13.527a179.579,179.579,0,0,0,13.057-36.755,13.426,13.426,0,0,0,.52-5.354c-.47-2.9-2.669-5.186-4.766-7.25a34.979,34.979,0,0,0-7.15-5.924,11.748,11.748,0,0,0-8.962-1.443c-4.3,1.259-7,5.656-7.989,10.07s-.621,8.962-1.041,13.426c-.6,6.461-2.82,12.7-3.357,19.183-.285,3.743,0,7.536-.453,11.278a41.152,41.152,0,0,1-5.035,13.9,89.96,89.96,0,0,1-21.7,26.752c-1.024.856-2.081,1.678-3.088,2.6a16.012,16.012,0,0,1,.218-2.182,13.153,13.153,0,0,0-2.131.755,6.392,6.392,0,0,0-.252-2.517c-1.343-4.011-7.317-5.035-8.392-9.113a18.668,18.668,0,0,1-.285-3.055c-.353-3.575-2.786-6.6-3.625-10.07-.772-3.206-.184-6.713-1.678-9.684a27.065,27.065,0,0,0-4.464-5.035,19.753,19.753,0,0,1-4.246-8.005c-.218-.822-.42-1.678-.655-2.5a11.445,11.445,0,0,0-.6-5.522c-1.527-3.793-5.471-6.226-6.9-10.07-1.108-2.987-.621-6.713-2.719-9.029a9.819,9.819,0,0,0-3.978-2.4,88.5,88.5,0,0,0-23.949-5.656c-4.6-.42-9.667-.655-12.956-3.894-3.843-3.759-4.028-10.523-8.526-13.426-3.961-2.568-9.566-.671-12.638,2.937a15.983,15.983,0,0,0-1.276,1.678,17.96,17.96,0,0,1-.352-6.881c0-.571.117-1.158.168-1.678a33.566,33.566,0,0,0,18.193-14.366v.1l.2.52c.487,1.225,1.259,2.4,2.4,2.534h0a3.356,3.356,0,0,0,2.081-.755,17.222,17.222,0,0,0,2.786-2.417q.638-.7,1.208-1.46a19.01,19.01,0,0,0,1.98-3.357,19.946,19.946,0,0,0,1.678-5.622c.3-1.947.336-3.944.672-5.891a36.25,36.25,0,0,1,1.225-4.448c.168-.487.336-.973.487-1.46s.369-1.141.537-1.678a38.885,38.885,0,0,0,1.678-10.64v-1.812a17.706,17.706,0,0,0-5.639-12.5c-2.886-2.366-6.713-3.357-8.828-6.562-1.376-2.148-1.678-4.917-2.484-7.435a16.783,16.783,0,0,0-13.191-11.866,14.685,14.685,0,0,0-10.439,2.87h0l-.235.185h0a16.781,16.781,0,0,0-4.162,4.632,13.844,13.844,0,0,1-5.908-3.357c-1.678-1.561-2.97-3.525-4.666-5.035a12,12,0,0,0-11.949-2.517,14.282,14.282,0,0,0-8.542,9.784c-.923,3.457-.755,7.435-2.685,10.321-1.494,2.249-3.944,3.357-5.656,5.4a10.171,10.171,0,0,0-2.115,4.481h0a12.148,12.148,0,0,0-.285,2.8h0a5.109,5.109,0,0,0,.1,1.242v.2a8.9,8.9,0,0,0,.285,1.359h0a11.748,11.748,0,0,0,2.5,4.6,11.045,11.045,0,0,0,4.045,2.92,16.386,16.386,0,0,0,1.947.621l2,.453.7.168a33.465,33.465,0,0,0-.94,29.555,13.446,13.446,0,0,1-.168,1.41,116.069,116.069,0,0,0,.873,19.787c.235,2.6.369,5.471-1.225,7.535a14.287,14.287,0,0,1-2.433,2.165c.906-1.175,1.829-2.333,2.769-3.491-2.366-2.383-6.109-2.685-9.465-2.45a43.855,43.855,0,0,0-18.461,5.639c-3.759,2.165-7.62,5.035-11.916,4.531-2.534-.285-5.035-1.678-7.5-1.007a15.21,15.21,0,0,0-3.843,2.282,5.2,5.2,0,0,1-3.155.973c-2.635-3.239-6.713-5.438-9.868-8.073a77.758,77.758,0,0,1-9.818-10.523c-5.438-6.562-10.859-13.141-16.2-19.77-4.5-5.572-9.113-11.6-9.9-18.73a18.328,18.328,0,0,1-.117-2.131,54.219,54.219,0,0,1,1.276-10.07,5.033,5.033,0,0,0,0-2.434c-.5-1.678-2.434-2.3-4.1-2.668h0c.218-1.292.369-2.618.453-3.877.94-14.433-.084-29.1,2.971-43.233,1.158-5.438,3.055-10.943,6.965-14.886,6.126-6.193,16.38-7.687,21.079-15.021,3.927-6.109,2.366-14.752-2.568-20.14s-12.537-7.586-19.77-7.317a10.2,10.2,0,0,0-5.757,1.544,12.235,12.235,0,0,0-3.491,5.3l-7.2,17.5a105.874,105.874,0,0,0-5.27,14.064c-2.014,7.351-2.467,15.1-4.062,22.523,0,5.706-3.675,12.822-5.689,18.075-2.249,5.908-4.682,11.748-6.713,17.773-.5,1.51-2.266,5.992-3.357,10.07a6.147,6.147,0,0,0-1.141.856,30.382,30.382,0,0,0-2.383,3.541c-1.527,2.014-4.011,3.088-5.69,5.035s-2.031,5.522.3,6.495a6.848,6.848,0,0,0,1.46.319,5.683,5.683,0,0,1,.906.151c2.518.7,3.508,3.877,3.138,6.5s-1.678,5.035-1.9,7.653c-.453,4.632,2.266,8.945,4.884,12.839a110.687,110.687,0,0,0,8.962,12.067c2.366,2.652,5.035,5.035,7.418,7.586,9.08,9.331,16.3,20.24,24.453,30.377a67.352,67.352,0,0,0,9.952,10.439,74.967,74.967,0,0,0,7.535,5.186l14.031,8.895a15.375,15.375,0,0,0,5.3,2.5,7.05,7.05,0,0,0,1.88,0c.084.42.151.822.252,1.242,1.091,4.4,3.491,8.391,3.759,12.873s-.134,9.063.185,13.594c.3,4.179,1.225,8.391,1.46,12.5.47,7.922-1.477,15.742-3.357,23.5-2.836,11.345-4.548,22.926-10.07,33.213-1.544,2.836-3.357,5.723-3.357,8.962a4.64,4.64,0,0,0,.1,1.175h0l-2.517,1.427c-.738.42-1.477.839-2.148,1.276-3.189,2.081-6.6,4.38-7.9,7.972-1.057,2.9-.571,6.227-1.846,9.046a4,4,0,0,1-.2.369c-1.343,2.618-4.011,4.565-4.615,7.435h0c-.453,2.2.42,4.531,0,6.713v.084a24.3,24.3,0,0,0-.906,3.357,4.015,4.015,0,0,0,.1,1.108,6.4,6.4,0,0,0,2.014,3.273,13.431,13.431,0,0,0,1.964,1.561q1.074.7,2.215,1.309l.436.235c.638.336,1.276.654,1.93.957l.436.185c.755.336,1.527.638,2.3.906l.537.168c.6.2,1.225.386,1.846.537l.42.134.386.084,1.678.352.621.117q1.108.185,2.266.3h.671c.571,0,1.124.084,1.678.1h3.071a18.777,18.777,0,0,0,2.366-.218h.252c.7-.1,1.41-.218,2.115-.369l.537-.117c.655-.151,1.309-.3,1.964-.5l.353-.1c.789-.235,1.578-.487,2.35-.789a61.674,61.674,0,0,0,7.754-3.843c1.678-.923,3.357-1.863,5.035-2.719a39.068,39.068,0,0,1,3.826-1.678,21.6,21.6,0,0,1,10.07-1.678,39.445,39.445,0,0,1,5.035,1.024q0,.277,0,.554,2.047,12.084,4.045,24.167a49.2,49.2,0,0,1,6.948-4.179,15.452,15.452,0,0,0-.89,3.776,14.968,14.968,0,0,0,0,3c.151,1.594.487,3.357-.47,4.615-.587.772-1.678,1.208-2,2.081a7.1,7.1,0,0,0-.168,2.736,4.363,4.363,0,0,1-3.994,4.061,6.378,6.378,0,0,1-2.534,7.485,8.865,8.865,0,0,0-1.947,1.276,5.807,5.807,0,0,0-1.124,2.534,44.847,44.847,0,0,1-13.141,21.6,42.242,42.242,0,0,0-6.495,6.344,28.879,28.879,0,0,0-2.937,5.79q-6.713,16.414-13.628,32.844c-2.551,6.126-5.035,12.352-5.84,18.948-2.014,18.092-18.126,33.432-15.1,51.389a25.176,25.176,0,0,0,5.236,12.268c3.357,4.045,8.391,6.361,13.426,8.24,12.94,5.035,26.584,7.787,40.178,10.556l21.348,4.38a93.321,93.321,0,0,0,12.721,2.014c5.152.352,10.439-.134,15.457,1.175,3.1.806,6.075,2.3,9.281,2.467,2.752.151,6.142-.436,7.77,1.813s.369,5.219,1.913,7.217c2.484,3.172,8.543,0,11.245,2.987a13.912,13.912,0,0,1,1.678,3.709,6.715,6.715,0,0,0,1.678,2.115,14.182,14.182,0,0,1,.2,2.87,49.483,49.483,0,0,1-2.417,11.446q-3.021,10.221-6.025,20.458a45.309,45.309,0,0,0-1.678,7.385,17.739,17.739,0,0,0,0,3.659c.353,3.709,2.484,7.536,6.025,8.744a11.043,11.043,0,0,0,8.156-1.007,36.049,36.049,0,0,0,6.713-4.531,45.833,45.833,0,0,0,9.684-9.969c8.391-12.553,5.673-29.538,11.564-43.417,3.91-9.264,11.53-16.783,14.064-26.551a10.625,10.625,0,0,0,.2-5.74c-1.057-3.357-4.632-5.27-7.972-6.478h-.151a68.806,68.806,0,0,0-8.392-2.4c-.7-.151-1.426-.268-2.148-.386a13.177,13.177,0,0,1-3.709-4.833,11.24,11.24,0,0,0-.789-2.9,3.021,3.021,0,0,0-2.417-1.343c-1.678-.168-3.927.436-5.756.3-3.743-.268-6.227-3.944-9.583-5.639s-7-1.276-10.573-1.024a9.784,9.784,0,0,1-3.827-.235,14.383,14.383,0,0,1-4.028-2.769,16.884,16.884,0,0,0-14.786-2.97,16.11,16.11,0,0,1-5.035,1.141c-3.273-.185-5.589-3.1-8.005-5.32-6.613-6.059-16.028-7.653-24.05-11.631a5.488,5.488,0,0,1-2.887-2.484c-.923-2.282,1.158-4.565,3.038-6.126l13.8-11.463c15.1-12.554,33.985-22,41-40.413a23.374,23.374,0,0,1,3.357-6.9,9.364,9.364,0,0,1,1.863-1.678,14.1,14.1,0,0,1,10.322-2.014,34.859,34.859,0,0,1,12.151,5.3q9.012,5.454,17.538,11.748A155.144,155.144,0,0,1,966.624,722.6c8.811,8.391,16.145,18.344,24.352,27.39s17.588,17.488,28.984,21.818,25.174,4.145,34.959-3.122c11.295-8.391,14.92-23.4,17.773-37.157,6.294-6.075,8.19-15.323,11.261-23.5,1.93-5.186,4.4-10.07,6.478-15.239,2.484-6.075,4.431-12.352,6.378-18.612a89.523,89.523,0,0,0,4.464-19.418c.805-10.456-2-21.583.94-31.4,3.877-.856,7.4-3.038,11.211-4.313,5.672-1.863,11.748-1.561,17.756-1.527h.386a9.164,9.164,0,0,0,5.908-1.393c2.014-1.678,2.333-4.548,2.433-7.149C1140.142,602.552,1139.74,595.335,1134.923,591.173ZM891.755,304.89a12.468,12.468,0,0,1-4.246.3Z" transform="translate(433.085 -54.204)" fill="url(#linear-gradient)"/>
    <path id="Path_133" data-name="Path 133" d="M846.459,356.1a18.462,18.462,0,0,1-6.982,3.709l-11.9,4.263c-6.461,2.316-13.208,4.649-20.022,3.81-3.81-.47-20.139-2.87-22.607-5.84-3.759-4.6,9.415-11.362,13.913-15.239a19.035,19.035,0,0,0,2.82-2.484c1.678-2.047,1.46-4.917,1.225-7.5a115.8,115.8,0,0,1-.873-19.754,39.867,39.867,0,0,1,.671-4.682c1.678-7.72,8.861-4.9,14.534-2.853a113.647,113.647,0,0,1,19.72,8.543,14.148,14.148,0,0,1,4.867,4.129c2.484,3.759,1.494,8.694,1.091,13.426-.353,3.675-.336,7.2,1.964,9.868a25.408,25.408,0,0,1,3.172,3.357A6.293,6.293,0,0,1,846.459,356.1Z" transform="translate(484.994 0.758)" fill="#be6f72"/>
    <path id="Path_134" data-name="Path 134" d="M730.086,288.795c1.678-7.435,2.048-15.1,4.061-22.472a105.193,105.193,0,0,1,5.27-14.014l7.4-17.27a12.185,12.185,0,0,1,3.491-5.287,10.338,10.338,0,0,1,5.757-1.544c7.233-.268,14.836,1.98,19.77,7.3s6.495,13.93,2.568,20.022c-4.7,7.334-14.953,8.811-21.079,14.987-3.91,3.944-5.807,9.432-6.965,14.853-3.055,14.1-2.031,28.716-2.971,43.115-.3,4.481-1.175,9.6-5.035,11.916a14.684,14.684,0,0,1-7.519,1.46l-11.009.185c-1.846,0-8.543,1.158-9.768-.235-2.148-2.434,2.752-14.551,3.642-17.253,1.98-5.991,4.414-11.832,6.713-17.723C726.41,301.584,730.086,294.484,730.086,288.795Z" transform="translate(436.995 -52.895)" fill="#be6f72"/>
    <path id="Path_135" data-name="Path 135" d="M881.594,584.577c-2.534,9.7-10.153,17.253-14.064,26.5-5.891,13.846-3.239,30.78-11.563,43.3a45.744,45.744,0,0,1-9.683,9.986,35.957,35.957,0,0,1-6.713,4.515,11.042,11.042,0,0,1-8.156,1.007c-3.541-1.208-5.673-5.035-6.025-8.727a17.611,17.611,0,0,1,0-3.642,45.142,45.142,0,0,1,1.678-7.368q3.021-10.187,6.025-20.408a49.4,49.4,0,0,0,2.417-11.412c.218-4.229-2.467-9.734-1.326-13.678.52-1.779,2.467-3.357,3.357-4.85a28.08,28.08,0,0,0,2.887-6.864c1.376-4.682,2.316-9.684,5.2-13.628a31.984,31.984,0,0,1,6.545-6.126,17.353,17.353,0,0,1,6.243-3.508,15.288,15.288,0,0,1,6.713.319,65.876,65.876,0,0,1,8.391,2.383h.151c3.357,1.208,6.914,3.071,7.972,6.461A10.552,10.552,0,0,1,881.594,584.577Z" transform="translate(512.811 178.575)" fill="#3f3d56"/>
    <path id="Path_136" data-name="Path 136" d="M1001.467,467.51c-.1,2.6-.419,5.5-2.433,7.133a9.162,9.162,0,0,1-5.908,1.393h-.453c-5.991,0-12.084-.336-17.756,1.527-4.313,1.427-8.274,4.045-12.772,4.565-6.193.7-12.016-2.685-17.5-5.639a174.163,174.163,0,0,0-15.893-7.552c-3.558-1.46-10.825-2.4-12.537-6.294a57.275,57.275,0,0,1-1.477-5.605,18.635,18.635,0,0,0-1.024-2.467,14.183,14.183,0,0,1-1.88-5.555,8.578,8.578,0,0,1,1.913-5.37,16.1,16.1,0,0,1,10.993-5.656,48.67,48.67,0,0,1,12.654.671l41.32,5.941c3.189.453,6.394.906,9.533,1.678a18.7,18.7,0,0,1,8.19,3.592C1001.317,453.966,1001.719,461.166,1001.467,467.51Z" transform="translate(571.508 89.313)" fill="#3f3d56"/>
    <path id="Path_137" data-name="Path 137" d="M1077.309,472.408c-5.035,10.624-1.41,23.194-2.316,34.942a89.064,89.064,0,0,1-4.464,19.367c-1.947,6.243-3.894,12.5-6.377,18.562-2.081,5.035-4.548,10.07-6.478,15.205-3.071,8.19-5.035,17.4-11.261,23.5-2.853,13.728-6.478,28.732-17.773,37.057-9.818,7.25-23.5,7.5-34.959,3.122S972.9,611.387,964.7,602.341s-15.541-18.9-24.352-27.323a152.7,152.7,0,0,0-16.061-13.141q-8.526-6.193-17.538-11.647a35.128,35.128,0,0,0-12.151-5.287,14.1,14.1,0,0,0-10.322,2.014,9.369,9.369,0,0,0-1.863,1.678,23.092,23.092,0,0,0-3.357,6.881c-7.049,18.361-25.963,27.793-41.068,40.313l-13.8,11.429c-1.88,1.561-3.961,3.843-3.038,6.109a5.487,5.487,0,0,0,2.887,2.484c8.022,3.961,17.437,5.555,24.05,11.6,2.417,2.215,4.733,5.136,8.006,5.3a16.074,16.074,0,0,0,5.035-1.124,16.933,16.933,0,0,1,14.786,2.954,14.382,14.382,0,0,0,4.028,2.769,9.784,9.784,0,0,0,3.827.235c3.575-.252,7.368-.571,10.573,1.024s5.84,5.354,9.583,5.622c1.829.134,4.011-.47,5.756-.3a3.021,3.021,0,0,1,2.417,1.343,11.118,11.118,0,0,1,.789,2.887c.688,2.366,3,3.81,4.515,5.757,2.316,2.987,2.652,7.049,2.417,10.825a46.187,46.187,0,0,1-14.7,30.914,18.192,18.192,0,0,1-9.046,5.035,8.391,8.391,0,0,1-8.962-3.977,13.8,13.8,0,0,0-1.678-3.693c-2.7-2.971-8.761.185-11.245-2.987-1.544-1.98-.436-5.152-1.913-7.2s-5.035-1.678-7.77-1.8c-3.206-.168-6.176-1.678-9.281-2.467-5.035-1.309-10.3-.822-15.457-1.175a93.312,93.312,0,0,1-12.721-2.014l-21.348-4.363c-13.594-2.769-27.239-5.572-40.178-10.523-4.951-1.88-9.935-4.2-13.426-8.224a25.178,25.178,0,0,1-5.236-12.252c-3.038-17.907,13.074-33.213,15.1-51.255.722-6.579,3.357-12.789,5.84-18.9q6.831-16.38,13.628-32.777a29.193,29.193,0,0,1,2.853-5.807,42.139,42.139,0,0,1,6.5-6.327,44.694,44.694,0,0,0,13.141-21.549,5.81,5.81,0,0,1,1.125-2.534,9.432,9.432,0,0,1,1.947-1.259,6.377,6.377,0,0,0,2.534-7.469,4.364,4.364,0,0,0,3.994-4.061,7.015,7.015,0,0,1,.168-2.719c.4-.873,1.41-1.309,2-2.081.957-1.259.621-3.021.47-4.6a14.974,14.974,0,0,1,0-3,15.424,15.424,0,0,1,4.5-9.382c4.011-3.944,9.717-2.92,15.256-3.86a87.4,87.4,0,0,0,16.112-5.152,158.282,158.282,0,0,1,45.5-10.523,99.339,99.339,0,0,1,45.952,7.318,26.13,26.13,0,0,1,5.924,3.356,11.229,11.229,0,0,1,3.1,3.709,34.585,34.585,0,0,0,2.283,5.152c1.8,2.45,5.186,3.239,7.149,5.555s2.131,6.227,3.759,9.1c2.333,4.1,7.737,5.992,9.348,10.439.5,1.41.571,2.954.94,4.414.906,3.659,3.625,6.545,6.025,9.432a72.518,72.518,0,0,1,16.246,36.922c.537-8.509,6.26-16.044,13.426-20.744,1.93-1.259,4.162-2.652,4.548-4.934.487-2.887-2.316-5.454-2.131-8.391a8.222,8.222,0,0,1,1.678-3.927,124.179,124.179,0,0,1,10.506-13.208c2.064-2.266,4.38-5.035,3.524-8.022-.654-2.232-2.937-3.541-4.2-5.488a6.982,6.982,0,0,1,.168-7.72c1.175-1.594,3.038-2.752,3.608-4.649.655-2.232-.806-4.649-.353-6.948a8.592,8.592,0,0,1,3.457-4.481,28.751,28.751,0,0,1,7.5-4.934c4.431-1.678,9.365-1.057,14.064-.4,7.854,1.091,16.666,2.769,21.1,9.348C1077.98,461.768,1079.424,468.011,1077.309,472.408Z" transform="translate(459.348 95.156)" fill="#65617d"/>
    <path id="Path_138" data-name="Path 138" d="M1001.488,467.51c-.1,2.6-.419,5.5-2.434,7.133a9.162,9.162,0,0,1-5.907,1.393h-.453c.688-3.491,4.934-5.488,5.673-9.029a7.989,7.989,0,0,0-1.846-6.092c-3.592-4.85-9.365-7.535-15.1-9.5a100.06,100.06,0,0,0-50.449-3.776,50.8,50.8,0,0,0-13.259,4.078,43.19,43.19,0,0,0-4.028,2.853,14.18,14.18,0,0,1-1.88-5.555,8.577,8.577,0,0,1,1.913-5.371,16.1,16.1,0,0,1,10.993-5.656,48.671,48.671,0,0,1,12.654.671L978.68,444.6c3.189.453,6.394.906,9.533,1.678a18.7,18.7,0,0,1,8.19,3.592C1001.337,453.966,1001.74,461.166,1001.488,467.51Z" transform="translate(571.487 89.313)" opacity="0.1"/>
    <path id="Path_139" data-name="Path 139" d="M881.594,583.371c-2.534,9.7-10.153,17.253-14.064,26.5-5.891,13.846-3.239,30.78-11.563,43.3a45.744,45.744,0,0,1-9.683,9.986,35.96,35.96,0,0,1-6.713,4.515,11.042,11.042,0,0,1-8.156,1.007c-3.541-1.208-5.673-5.035-6.025-8.727a17.611,17.611,0,0,1,0-3.642l.1.268c1.46,3.524,3.843,7.217,7.6,7.838a10.288,10.288,0,0,0,7.754-2.736c5.538-4.448,8.761-11.077,11.832-17.471a72.662,72.662,0,0,0,5.673-14.484c.671-2.853.99-5.773,1.678-8.626,3.189-13.863,14.047-25.174,16.447-39.222a9.6,9.6,0,0,0,.135-2.937,14.853,14.853,0,0,0-1.443-3.659,18.121,18.121,0,0,1-1.276-4.061c3.357,1.208,6.915,3.071,7.972,6.461a10.558,10.558,0,0,1-.269,5.69Z" transform="translate(512.811 179.781)" opacity="0.1"/>
    <path id="Path_140" data-name="Path 140" d="M886.488,603.766a24.319,24.319,0,0,1-7.569,10.338,36.922,36.922,0,0,1-16.3,7.049,16.213,16.213,0,0,1-8.391-.1c-3.726-1.292-6.411-4.783-10.221-5.79-2.719-.738-5.639-.084-8.391-.487-4.951-.688-8.794-4.464-12.789-7.485-12.235-9.2-28.3-12.168-40.531-21.365a3.759,3.759,0,0,1-1.309-1.359,4.041,4.041,0,0,1-.252-1.9,38.6,38.6,0,0,1,3.675-16.128,56.267,56.267,0,0,1,6.915-9.852c10.959-13.426,21.969-26.953,35.093-38.282,5.5-4.75,11.513-9.18,18.461-11.329,3.86-1.192,11.48-2.316,16.179-.3a9.362,9.362,0,0,0-1.863,1.678,23.1,23.1,0,0,0-3.357,6.881c-7.065,18.377-25.98,27.809-41.084,40.329l-13.8,11.429c-1.88,1.561-3.961,3.843-3.038,6.109a5.487,5.487,0,0,0,2.887,2.484c8.022,3.961,17.437,5.555,24.05,11.6,2.417,2.215,4.733,5.136,8.006,5.3a16.074,16.074,0,0,0,5.035-1.124,16.933,16.933,0,0,1,14.786,2.954,14.382,14.382,0,0,0,4.028,2.769,9.784,9.784,0,0,0,3.827.235c3.575-.252,7.368-.571,10.573,1.024s5.84,5.354,9.583,5.622C882.561,604.2,884.743,603.564,886.488,603.766Z" transform="translate(482.574 135.32)" opacity="0.1"/>
    <path id="Path_141" data-name="Path 141" d="M758.041,453.206c-3.189,2.047-6.579,4.364-7.888,7.922-1.074,2.9-.571,6.226-1.863,9.046s-4.2,4.783-4.833,7.8c-.453,2.2.436,4.515,0,6.713a28.952,28.952,0,0,0-.923,3.491c-.168,2.5,1.98,4.531,4.078,5.924a34.07,34.07,0,0,0,30.495,3.357c4.481-1.678,8.526-4.414,12.822-6.562a25.358,25.358,0,0,1,13.812-3.357c2.769.3,5.421,1.309,8.19,1.678a8.592,8.592,0,0,0,7.67-2.283,9.565,9.565,0,0,0,1.678-3.977c2.333-9.214,1.276-18.981-.94-28.246s-5.572-18.176-7.938-27.39c-1.678-6.831-2.971-13.829-5.773-20.291s-7.519-12.47-14.114-14.937a2.634,2.634,0,0,0-1.678-.218,2.852,2.852,0,0,0-1.091.806,51.606,51.606,0,0,0-11.513,19.367c-2.635,8.039-3.357,16.565-5.773,24.637-1.041,3.357-2.383,7.854-5.035,10.422S761.045,451.275,758.041,453.206Z" transform="translate(456.669 58.102)" fill="#3f3d56"/>
    <path id="Path_142" data-name="Path 142" d="M821.316,482.96a9.785,9.785,0,0,1-1.762,3.977,8.509,8.509,0,0,1-7.67,2.266c-2.752-.336-5.4-1.359-8.173-1.678a25.309,25.309,0,0,0-13.812,3.357c-4.3,2.148-8.392,4.817-12.839,6.545a33.885,33.885,0,0,1-20.358,1.158,32.846,32.846,0,0,1-10.07-4.431c-2.115-1.376-4.246-3.357-4.078-5.924a28.686,28.686,0,0,1,.923-3.474c.436-2.2-.437-4.515,0-6.713.638-3.021,3.558-5.035,4.833-7.821s.789-6.126,1.846-9.029c1.309-3.575,4.716-5.874,7.9-7.938s6.982-3.642,9.533-6.143a9.469,9.469,0,0,0,.89-1.242,30.217,30.217,0,0,0,3.995-9.247c2.467-8.089,3.138-16.6,5.756-24.654a51.71,51.71,0,0,1,11.53-19.351,2.535,2.535,0,0,1,1.074-.806,2.685,2.685,0,0,1,1.678.2c6.579,2.484,11.295,8.492,14.114,14.954s4.011,13.426,5.773,20.274c2.35,9.214,5.723,18.159,7.938,27.406S823.649,473.729,821.316,482.96Z" transform="translate(456.683 58.054)" fill="#eb5310" opacity="0.74"/>
    <path id="Path_143" data-name="Path 143" d="M835.743,335.551a33.566,33.566,0,0,1-40.883-18.461,39.8,39.8,0,0,1,.672-4.682c1.678-7.72,8.861-4.9,14.534-2.853a113.652,113.652,0,0,1,19.72,8.543,14.149,14.149,0,0,1,4.867,4.129C837.136,325.934,836.146,330.868,835.743,335.551Z" transform="translate(492.168 0.779)" opacity="0.1"/>
    <circle id="Ellipse_16" data-name="Ellipse 16" cx="33.566" cy="33.566" r="33.566" transform="translate(1284.208 269.097)" fill="#be6f72"/>
    <path id="Path_144" data-name="Path 144" d="M921.34,458.326c0,2.786-3.776,3.676-6.579,3.524-10.07-.587-19.921-3.357-29.89-2.518-12.6,1.141-24.184,8.106-36.822,8.744-4.867.252-9.818-.47-14.618.42-6.21,1.158-11.748,4.934-18.075,5.471-5.488.47-10.909-1.594-16.4-1.376A26.349,26.349,0,0,0,788,475.713a15.424,15.424,0,0,1,4.5-9.382c4.011-3.944,9.717-2.92,15.256-3.86a87.393,87.393,0,0,0,16.112-5.152,158.28,158.28,0,0,1,45.5-10.523,99.338,99.338,0,0,1,45.935,7.267,26.13,26.13,0,0,1,5.924,3.356,2.632,2.632,0,0,1,.117.906Z" transform="translate(487.515 95.174)" opacity="0.1"/>
    <path id="Path_145" data-name="Path 145" d="M825.988,347.1l-13.594-5.035-5.74-2.115A27.761,27.761,0,0,0,799.337,338c-6.579-.5-12.772,3.877-16.28,9.466s-4.833,12.251-5.958,18.747q-2.316,13.326-3.927,26.752a174.742,174.742,0,0,0-1.762,24.4c.386,20.777,4.783,41.269,9.617,61.493a216.31,216.31,0,0,1,5.354,27.272c.4,3.793.587,7.6.99,11.412.436,4.28,1.141,8.509,1.846,12.755l4.045,24.117c5.035-3.575,10.758-6.713,16.951-6.9,5.488-.2,10.926,1.846,16.4,1.376,6.294-.52,11.866-4.3,18.075-5.454,4.8-.889,9.751-.185,14.635-.419,12.621-.638,24.218-7.62,36.805-8.744,9.986-.906,19.9,1.913,29.907,2.5,2.786.168,6.562-.722,6.562-3.524,0-1.947-1.947-3.239-3.642-4.212A179.577,179.577,0,0,1,906.21,512.81c-6.612-5.236-13.326-10.607-17.874-17.689-10.959-17.035-7.2-40.078-16.548-58.052-7.6-14.6,0-33.734,0-50.2,0-8.207,0-16.514-1.93-24.486a103.874,103.874,0,0,0-4.5-13.091l-6.529-16.531a2.7,2.7,0,0,0-.772-1.259,2.567,2.567,0,0,0-1.494-.453,15.743,15.743,0,0,0-10.842,3.474c-3.071,2.5-5.035,6.092-8.056,8.693C834.363,346.089,830.1,348.606,825.988,347.1Z" transform="translate(476.262 16.858)" fill="#e3e8f4"/>
    <path id="Path_146" data-name="Path 146" d="M823.783,341.822c1.074-4.6,2.232-9.382,5.3-12.973s8.677-5.488,12.638-2.92c4.5,2.92,4.682,9.667,8.526,13.426,3.357,3.222,8.391,3.474,12.956,3.894a87.859,87.859,0,0,1,23.949,5.639,9.784,9.784,0,0,1,3.978,2.383c2.1,2.383,1.678,6.042,2.719,9.012,1.427,3.827,5.37,6.26,6.9,10.07,1.678,4.229,0,8.962-1.41,13.309-2.534,7.8-4.129,15.91-6.6,23.748S886.769,422.967,881,428.875c-2.551,2.618-6.344,5.035-9.7,3.474L870,441.664a15.829,15.829,0,0,0,0,5.958,5.337,5.337,0,0,0,3.893,4.129c.252,1.443,1.779,2.131,3.021,2.92a8.391,8.391,0,0,1,2.131,11.748c-1.057,1.427-2.618,2.551-3.122,4.246-.755,2.45,1.041,5.035,3.222,6.378s4.75,1.964,6.965,3.256c4.6,2.652,7.066,7.871,8.643,12.94,1.175,3.827,2.148,7.972,5.035,10.758,1.108,1.057,2.434,1.863,3.491,2.97a12.738,12.738,0,0,1,3,7.7,15.289,15.289,0,0,1-2.182,10.07c-3.357,4.8-9.617,6.227-15.1,8.391-8.912,3.659-16.246,10.2-24.1,15.776a25.712,25.712,0,0,1-10.993,5.169c-5.438.722-10.791-1.678-16.263-1.9a40.384,40.384,0,0,0-9.7,1.276l-10.07,2.182c.537-7.8-3.759-15.625-6.159-23.06-4.531-14-5.371-28.967-4.3-43.636s4.061-29.135,7.015-43.535c2.064-10.07,1.863-20.593,5.035-30.377,2.971-9.415,7.217-18.461,8.777-28.262C830.8,370.907,820.191,357.464,823.783,341.822Z" transform="translate(500.403 12.599)" fill="#eb5310"/>
    <path id="Path_147" data-name="Path 147" d="M872.807,354.373a18.46,18.46,0,0,1,1.93,5.454,19.687,19.687,0,0,0,4.246,7.989,27.513,27.513,0,0,1,4.464,5.035c1.544,2.92.957,6.478,1.678,9.667.839,3.474,3.273,6.495,3.625,10.07a18.455,18.455,0,0,0,.285,3.055c1.091,4.061,7.066,5.035,8.392,9.1.89,2.635-.638,5.5-.353,8.274a7.282,7.282,0,0,1,.151,2.618,5.32,5.32,0,0,1-1.913,2.45,38.6,38.6,0,0,0-11.043,19.653,111.923,111.923,0,0,0-2.535,22.707l-6.562-8.677a9.97,9.97,0,0,0-2.618-2.685c-.839-.5-1.813-.755-2.669-1.259-2.484-1.41-3.457-4.4-4.414-7.082A65.455,65.455,0,0,0,853.724,420.4c-2.668-3.138-5.773-6.294-6.361-10.372a19.11,19.11,0,0,1,.3-5.606c1.678-10.993,3.474-22.254,8.828-32.005,2.5-4.565,5.74-8.693,8.14-13.326C866.245,356.018,868.51,348.029,872.807,354.373Z" transform="translate(527.724 31.08)" fill="#eb5310"/>
    <path id="Path_148" data-name="Path 148" d="M801.89,407.371a7.671,7.671,0,0,1-1.041,4.028,5.3,5.3,0,0,1-5.3,1.678,15.339,15.339,0,0,1-5.3-2.484q-7.015-4.431-14.03-8.878a77.68,77.68,0,0,1-7.536-5.169,67.262,67.262,0,0,1-9.952-10.422c-8.157-10.07-15.373-21-24.453-30.209-2.467-2.517-5.035-4.934-7.418-7.569a110.467,110.467,0,0,1-8.962-12.05c-2.618-3.877-5.337-8.173-4.884-12.805.269-2.618,1.527-5.035,1.9-7.636s-.621-5.773-3.138-6.478a5.672,5.672,0,0,0-.906-.151,6.854,6.854,0,0,1-1.46-.319c-2.333-.973-1.98-4.582-.3-6.478s4.162-2.954,5.689-5.035a30.358,30.358,0,0,1,2.383-3.541,9.079,9.079,0,0,1,3.911-1.964,60.521,60.521,0,0,1,29.79-1.124c1.678.369,3.592,1.04,4.095,2.668a4.917,4.917,0,0,1,0,2.417,54.022,54.022,0,0,0-1.276,10.07,17.844,17.844,0,0,0,.118,2.115c.789,7.116,5.4,13.141,9.9,18.7,5.337,6.612,10.758,13.175,16.2,19.72a77.487,77.487,0,0,0,9.818,10.489c3.357,2.786,7.7,5.035,10.322,8.61,2.131,2.887,1.443,6.831,1.678,10.3a228.746,228.746,0,0,1,.167,31.518Z" transform="translate(433.078 -11.361)" fill="#eb5310"/>
    <path id="Path_149" data-name="Path 149" d="M902.133,451.366a35.233,35.233,0,0,0,4.464-5.287,34.87,34.87,0,0,0,3.357-7.5l9.734-27.608c1.544-4.364,3.088-8.744,5.035-12.99,2.014-4.582,4.4-9,6.6-13.426a179.071,179.071,0,0,0,13.04-36.5,13.524,13.524,0,0,0,.52-5.354c-.47-2.9-2.668-5.169-4.766-7.233a34.884,34.884,0,0,0-7.15-5.908A11.748,11.748,0,0,0,924,328.113c-4.3,1.259-7,5.656-7.989,10.07s-.621,8.928-1.041,13.426c-.6,6.445-2.82,12.671-3.357,19.133-.285,3.743,0,7.519-.453,11.245a41.072,41.072,0,0,1-5.035,13.879,90.11,90.11,0,0,1-21.7,26.685,34.9,34.9,0,0,0-6.511,6.26,20.425,20.425,0,0,0-3.139,7.821,18.008,18.008,0,0,0,1.359,12.7c2.736,4.666,7.989,6.713,13.007,7.754C895.924,458.5,897.485,456.183,902.133,451.366Z" transform="translate(545.977 14.661)" fill="#be6f72"/>
    <path id="Path_150" data-name="Path 150" d="M830.055,279.97a15.658,15.658,0,0,1,15.205-8.24,16.783,16.783,0,0,1,13.191,11.849c.789,2.5,1.108,5.27,2.484,7.418,2.081,3.239,5.941,4.179,8.828,6.529a17.672,17.672,0,0,1,5.639,12.486,37.779,37.779,0,0,1-2.232,14.115,44.9,44.9,0,0,0-1.678,5.908c-.336,1.947-.369,3.927-.672,5.874a19.132,19.132,0,0,1-7.7,12.7,3.356,3.356,0,0,1-2.081.755c-1.309-.151-2.115-1.678-2.6-3.055-2.669-7.7-2.031-17.119-6.948-23.261a25.427,25.427,0,0,0-7.955-5.924,10.255,10.255,0,0,0-4.062-1.527,10.691,10.691,0,0,0-5.874,2.148,36.57,36.57,0,0,1-11.614,5.135,14.265,14.265,0,0,1-12-2.585c-2.316-1.913-4.011-4.783-6.579-6.277s-5.253-1.41-7.787-2.434A11.53,11.53,0,0,1,790.95,294c1.678-2.014,4.162-3.155,5.656-5.387,1.93-2.887,1.762-6.847,2.685-10.3a14.182,14.182,0,0,1,8.543-9.751,12,12,0,0,1,11.949,2.5c1.678,1.51,3.021,3.457,4.666,5.035a13.427,13.427,0,0,0,12.419,3.357" transform="translate(487.921 -25.944)" fill="#3f3d56"/>
    <path id="Path_151" data-name="Path 151" d="M830.622,424.727a6.512,6.512,0,0,0-1.779,7.116c.369.789,17.689-2.551,19.519-2.8,4.565-.654,12.57-.336,15.642-4.515,5.471-7.4-11.48-5.757-14.584-5.488C843.511,419.542,835.119,420.347,830.622,424.727Z" transform="translate(514.945 76.326)" opacity="0.1"/>
    <path id="Path_152" data-name="Path 152" d="M754.883,295.915a54.03,54.03,0,0,0-1.275,10.07c-5.035,1.024-10.271-.654-15.1-2.333l-13.879-4.733a3.944,3.944,0,0,0-5.3.99c-2.232,2.316-5.3,6.713-8.391,9.315a6.851,6.851,0,0,1-1.46-.319c-2.333-.973-1.98-4.582-.3-6.478s4.162-2.954,5.689-5.035a30.353,30.353,0,0,1,2.383-3.541,9.079,9.079,0,0,1,3.911-1.964,60.52,60.52,0,0,1,29.79-1.124c1.678.369,3.592,1.04,4.1,2.668A4.919,4.919,0,0,1,754.883,295.915Z" transform="translate(433.125 -11.361)" fill="#3f3d56"/>
    <path id="Path_153" data-name="Path 153" d="M754.883,295.915a54.03,54.03,0,0,0-1.275,10.07c-5.035,1.024-10.271-.654-15.1-2.333l-13.879-4.733a3.944,3.944,0,0,0-5.3.99c-2.232,2.316-5.3,6.713-8.391,9.315a6.851,6.851,0,0,1-1.46-.319c-2.333-.973-1.98-4.582-.3-6.478s4.162-2.954,5.689-5.035a30.353,30.353,0,0,1,2.383-3.541,9.079,9.079,0,0,1,3.911-1.964,60.52,60.52,0,0,1,29.79-1.124c1.678.369,3.592,1.04,4.1,2.668A4.919,4.919,0,0,1,754.883,295.915Z" transform="translate(433.125 -11.361)" fill="#eb5310" opacity="0.81"/>
    <path id="Path_154" data-name="Path 154" d="M824.958,485.8c2.417.806,5.035,1.98,5.857,4.4l-19.435-4.934-10.07-2.568c-1.779-.453-8.156-.973-9.331-2.366-1.678-2.048,4.28-.638,5.354-.487,3.256.487,6.512.99,9.751,1.578C813.193,482.506,819.067,484.3,824.958,485.8Z" transform="translate(490.013 117.382)" opacity="0.1"/>
    <path id="Path_155" data-name="Path 155" d="M832.4,498.861c-1.678-1.124-6.5-.99-8.559-1.477-3.021-.722-5.991-1.678-8.962-2.6-6.025-1.964-12-4.2-18.193-5.639-1.141-.252-5.035-.319-4.85-1.762s3.894-1.947,4.817-2.014c5.488-.4,12.335,2.165,17.437,3.994A76.849,76.849,0,0,1,832.4,498.861Z" transform="translate(490.11 121.519)" opacity="0.1"/>
    <path id="Path_156" data-name="Path 156" d="M818.441,478.186c-6.159-1.678-11.748-5.5-18.092-6.243a7.35,7.35,0,0,1-4.615-1.41,5.437,5.437,0,0,1-1.494-2.685c4.246-.218,9.18,1.578,13.04,3.273a41.024,41.024,0,0,1,6.109,3.256C814.8,475.232,816.914,477.7,818.441,478.186Z" transform="translate(491.747 109.652)" opacity="0.1"/>
    <path id="Path_157" data-name="Path 157" d="M887.027,384.46A29.353,29.353,0,0,0,907.6,416.9c-.822,3.978-4.934,6.176-7.838,9.012-4.1,3.978-6.21,9.936-11.043,12.956-5.387,3.357-12.319,2.047-18.461.638a2.249,2.249,0,0,1-1.443-.755,2.059,2.059,0,0,1-.268-.655c-2.031-7.435-3.357-15.373-1.276-22.825,1.678-6.344,5.706-11.748,8.929-17.353S879.727,386.306,887.027,384.46Z" transform="translate(540.574 53.104)" fill="#eb5310"/>
    <path id="Path_158" data-name="Path 158" d="M820.829,327.142a43.637,43.637,0,0,0-18.461,5.622c-3.759,2.148-7.619,5.035-11.916,4.515-2.534-.285-5.035-1.678-7.5-1.007a14.719,14.719,0,0,0-3.843,2.282,4.347,4.347,0,0,1-4.229.671L773.2,362.453c-.638,8.828-1.259,17.84.856,26.45,1.091,4.4,3.491,8.391,3.759,12.856s-.134,9.046.185,13.56c.3,4.179,1.225,8.291,1.46,12.47.47,7.888-1.477,15.709-3.357,23.379-2.836,11.312-4.548,22.875-10.07,33.113-1.544,2.836-3.357,5.723-3.357,8.945a4.572,4.572,0,0,0,.1,1.175c-1.678.923-3.239,1.8-4.666,2.7-3.189,2.064-6.6,4.364-7.9,7.938-1.057,2.9-.571,6.226-1.846,9.029s-4.2,4.8-4.833,7.821c-.453,2.2.42,4.515,0,6.713a28.65,28.65,0,0,0-.923,3.474c-.168,2.518,1.963,4.548,4.078,5.924a32.846,32.846,0,0,0,10.07,4.431l10.019-39.776h0a320.707,320.707,0,0,0,22.708-52.816,113.559,113.559,0,0,1,6.562-17.387,81.706,81.706,0,0,0,5.035-9.868c1.527-4.229,1.678-8.811,2.417-13.275a92.9,92.9,0,0,1,3.944-15.323c1.813-5.387,3.911-10.758,4.28-16.414.554-8.089-2.383-16.632.738-24.117a32.076,32.076,0,0,1,5.119-7.7c4.33-5.3,8.274-10.858,12.6-16.162C827.928,327.193,824.185,326.941,820.829,327.142Z" transform="translate(456.717 14.188)" fill="#eb5310"/>
    <g id="Group_4" data-name="Group 4" transform="translate(1276.574 248.504)" opacity="0.1">
      <path id="Path_159" data-name="Path 159" d="M818.333,271.81l-2.1.151-.235.168a12.38,12.38,0,0,0,2.333-.319Z" transform="translate(-770.067 -271.81)"/>
      <path id="Path_160" data-name="Path 160" d="M875.3,296.958a45.227,45.227,0,0,1-2.148,9.8,44.9,44.9,0,0,0-1.678,5.908c-.336,1.947-.369,3.927-.672,5.874a19.134,19.134,0,0,1-7.7,12.7,3.356,3.356,0,0,1-2.081.755c-1.309-.151-2.115-1.678-2.6-3.054-2.669-7.7-2.031-17.119-6.948-23.261a25.427,25.427,0,0,0-7.955-5.924,10.254,10.254,0,0,0-4.062-1.527,10.69,10.69,0,0,0-5.874,2.148,36.568,36.568,0,0,1-11.614,5.136,14.265,14.265,0,0,1-12-2.585c-2.316-1.913-4.011-4.783-6.579-6.277s-5.253-1.41-7.787-2.434a11.463,11.463,0,0,1-6.546-7.485,4.786,4.786,0,0,1-.134-.638,11.749,11.749,0,0,0,.135,5.673,11.462,11.462,0,0,0,6.545,7.485c2.534,1.024,5.388,1.041,7.787,2.434s4.263,4.364,6.579,6.277a14.266,14.266,0,0,0,12,2.585,36.57,36.57,0,0,0,11.614-5.136,10.691,10.691,0,0,1,5.874-2.148,10.253,10.253,0,0,1,4.061,1.527,25.426,25.426,0,0,1,7.838,5.975c4.917,6.143,4.28,15.558,6.948,23.261.487,1.393,1.292,2.9,2.6,3.055a3.356,3.356,0,0,0,2.2-.806,19.133,19.133,0,0,0,7.72-12.755c.3-1.947.336-3.927.672-5.874a44.864,44.864,0,0,1,1.678-5.908A37.776,37.776,0,0,0,875.4,297.63C875.363,297.428,875.33,297.193,875.3,296.958Z" transform="translate(-788.631 -262.117)"/>
    </g>
    <path id="Path_161" data-name="Path 161" d="M870.93,372.81l-1.141,15.323c-.168,2.081-4.145,51.624-33.482,109.525C811.132,547.319,762.143,612,669.652,648.352q-10.825,4.28-22.472,7.989l-8.66-27.188a317.927,317.927,0,0,0,62.466-27.323c47.143-27.222,83.8-66.074,109.357-116.071a311.778,311.778,0,0,0,28.7-84.418H733.813V372.81Z" transform="translate(386.124 45.202)" fill="#f18520"/>
    <path id="Path_162" data-name="Path 162" d="M655.122,648.355C747.6,612,796.6,547.339,821.76,497.678c29.336-57.9,33.331-107.411,33.482-109.525l1.141-15.323h11.748l-1.141,15.323c-.151,2.081-4.145,51.624-33.482,109.525C808.333,547.339,759.344,612,666.87,648.355q-10.825,4.28-22.489,8.006l-1.141-3.575Q649.315,650.621,655.122,648.355Z" transform="translate(389.325 45.215)" fill="#fff" opacity="0.1"/>
    <path id="Path_163" data-name="Path 163" d="M633.93,629.152l-8.66,27.188q-11.664-3.726-22.489-8.005C510.307,611.983,461.3,547.319,436.143,497.658c-29.336-57.9-33.331-107.411-33.482-109.525L401.52,372.81H538.569v28.531H433.324a311.963,311.963,0,0,0,28.783,84.418c25.56,50,62.2,88.849,109.341,116.054a317.2,317.2,0,0,0,62.483,27.339Z" transform="translate(225.369 45.202)" fill="#f18520"/>
    <path id="Path_164" data-name="Path 164" d="M614.269,648.355C521.795,612,472.789,547.339,447.631,497.678c-29.337-57.9-33.331-107.411-33.482-109.525l-1.141-15.323H401.26l1.141,15.323c.151,2.081,4.145,51.624,33.482,109.525C461.057,547.339,510.047,612,602.521,648.355q10.825,4.28,22.489,8.006l1.141-3.575Q620.092,650.621,614.269,648.355Z" transform="translate(225.193 45.215)" fill="#fff" opacity="0.1"/>
    <path id="Path_165" data-name="Path 165" d="M811.563,762.188V916.037H494.92V762.188l10.07-13.426c102.611-36.419,123.4-131.393,127.55-168.97A154.5,154.5,0,0,0,633.6,564.15h39.155a154.512,154.512,0,0,0,1.057,15.642c4.212,37.577,25.006,132.585,127.55,168.97Z" transform="translate(288.721 174.986)" fill="#ef8420"/>
    <rect id="Rectangle_18" data-name="Rectangle 18" width="316.643" height="19.3" transform="translate(783.641 937.174)" opacity="0.1"/>
    <path id="Path_166" data-name="Path 166" d="M521.773,748.762c102.611-36.419,123.4-131.393,127.55-168.97a154.5,154.5,0,0,0,1.057-15.642H633.6a154.5,154.5,0,0,1-1.057,15.642c-4.213,37.577-25.007,132.585-127.55,168.97l-10.07,13.426V916.037H511.7V762.188Z" transform="translate(288.721 174.986)" fill="#fff" opacity="0.1"/>
    <path id="Path_167" data-name="Path 167" d="M466.26,372.81h28.4v28.531H468.777Q467.25,387.243,466.26,372.81Z" transform="translate(269.282 45.202)" opacity="0.1"/>
    <path id="Path_168" data-name="Path 168" d="M565.253,536.6l-8.66,27.188q-11.664-3.726-22.489-8.005A300.676,300.676,0,0,1,502.77,509.26,317.193,317.193,0,0,0,565.253,536.6Z" transform="translate(294.046 137.754)" opacity="0.1"/>
    <path id="Path_169" data-name="Path 169" d="M638.51,536.593a317.933,317.933,0,0,0,62.466-27.323,301.863,301.863,0,0,1-31.334,46.539q-10.825,4.28-22.472,7.989Z" transform="translate(386.117 137.761)" opacity="0.1"/>
    <path id="Path_170" data-name="Path 170" d="M723.71,372.81q-.99,14.433-2.518,28.531H695.33V372.81Z" transform="translate(424.658 45.202)" opacity="0.1"/>
    <path id="Path_171" data-name="Path 171" d="M618.229,579.792a108.484,108.484,0,0,1-41.269,0,154.493,154.493,0,0,0,1.057-15.642h39.155a154.493,154.493,0,0,0,1.057,15.642Z" transform="translate(344.368 174.986)" opacity="0.1"/>
    <path id="Path_172" data-name="Path 172" d="M468.26,344.65c.722,211.565,91.349,382.65,203.073,382.65S873.668,556.215,874.406,344.65Z" transform="translate(270.638 26.101)" fill="#ef8420"/>
    <path id="Path_173" data-name="Path 173" d="M504.343,344.65H468.26c.722,211.565,91.349,382.65,203.073,382.65a109.683,109.683,0,0,0,18.042-1.527C586.093,708.52,505.031,544.7,504.343,344.65Z" transform="translate(270.638 26.101)" fill="#fff" opacity="0.06"/>
    <rect id="Rectangle_19" data-name="Rectangle 19" width="215.375" height="55.384" transform="translate(834.275 996.065)" fill="#f0f2cd"/>
    <path id="Path_174" data-name="Path 174" d="M507.16,601.052H712.465V593.5H497.09v55.384h10.07Z" transform="translate(337.185 402.565)" fill="#fff" opacity="0.1"/>
    <path id="Path_175" data-name="Path 175" d="M549.883,578.2c-3.877-1.292-26.7-19.351-28.43-27.524s12.067-84.317,12.067-84.317a31,31,0,0,1-3.357-.252v-1.225L533,364.858s11.631-67.132-10.338-63.221-8.19,63.221-8.19,63.221-2.5,30.109-4.263,39.138c-1.678,8.71-9.365,44.189-4.129,55.216a12,12,0,0,0,.638,1.141h0s.873,37.845-8.61,43.015c-9.046,4.917-12.805,29.672-13.124,31.888l-.487-.2h0a26.3,26.3,0,0,1-7-6.394c-.2-.252-.353-.52-.537-.789a36.961,36.961,0,0,0-11.379-57.716,23.832,23.832,0,0,0-2.232-9.264c-4.364-9.331-28.531-21.532-45.7-21.818-7.922-.235-14.417,2.014-16.783,8.207-1.208,3.138-.839,6.713-1.343,9.969-1.007,6.713-5.32,11.966-10.859,16.145a68.082,68.082,0,0,0-7.233-6.965c-5.606-4.3-16.783-18.461-16.783-18.461s-34.892-36.134-37.476-46.036-37.443-69.364-45.2-59.009,26.7,55.484,26.7,55.484,6.545,16.4,11.58,21.935S363.9,481.935,363.9,481.935l1.846,3.826c-8.156,4.3-15.608,9.768-18.243,18.293-3.86,12.554,4.582,25.174,10.422,36.922,11.379,22.925,13.007,52.161-1.678,73.106-13.158,18.495-35.983,27.289-57.347,34.976a56.442,56.442,0,0,0,36.251,12.033c-4.934,14.3-22.422,19.032-37.325,21.683,7.821,7.519,19.015,10.254,29.756,11.916a89.16,89.16,0,0,0,15.927,1.259h1.309l1.309-.1a45.574,45.574,0,0,0,5.421-.688c7.754-1.577,15.289-5.807,19.25-12.654,3.357-5.857,4.531-13.846,10.624-16.783a13.579,13.579,0,0,1,5.035-1.192h3.273l25.393.252h3.239c7.166-.168,14.819-1.41,18.461-7.334a20.34,20.34,0,0,0,2.3-9.315c.537-8.039,0-16.313.218-24.419,2.165,14.752,4.431,37.745-.957,46.237a78.878,78.878,0,0,1-15.742,17.068,30.218,30.218,0,0,0-4.162,4.263c-.822.587-1.309.906-1.309.906l-.52,1.561a29.551,29.551,0,0,0-4.1,9.5,6.6,6.6,0,0,0-.319,2.7c.587,1.192-4.2,6.109-2.8,8.173-11.949,14.014-14.215,35.244-14.215,35.244L373.394,782.5c-11.211,29.454-27.994,32.475-27.994,32.475s-39.423-26.45-40.5-27.742-16.145-7.754-16.145-7.754A17.086,17.086,0,0,0,281,772.4c-5.169-2.148-5.605-10.07-5.605-10.07-.638-18.713-11.631-20.14-11.631-20.14-8.861-.755-15.625.822-20.828,3.709l-1.578.117c-7.619.621-16.783,1.309-26.853,1.98-28.011,1.846-34.674,19.988-34.674,19.988s-3.44,3.877,1.074,8.073,33.415,0,34.64-.1a18.765,18.765,0,0,1-6.579-.453c4.548-.168,10.808-.336,16.145-.336h1.292a69.847,69.847,0,0,0-.487,8.526c0,5.371,14.853,8.811,14.853,8.811l45.23,40.279s28.43,12.7,46.522,30.981,34.086,2.5,34.086,2.5c19.149-4.733,74.248-71.344,74.3-71.411h0c0,1.947,1.158,66.729,3.357,79.736h0a8.644,8.644,0,0,0,.487,1.93c2.585,5.589-.873,20.861-2.366,27.306a75.859,75.859,0,0,0-1.091,16.346s-20.66,78.88-18.948,85.811-11.194,39.138-11.194,39.138v26.853l2.249-.118a14.479,14.479,0,0,0-.806,1.343l-.151.285s13.779,3,23.043,2.148,25.174,7.133,25.174,7.133,5.387,2.551,21.969,3.625,16.582-7.317,16.582-7.317c-1.9-11.429-28.095-15.256-28.9-15.373-2.115-1.326-4.1-2.769-5.723-4.011l-.336-.269a7.217,7.217,0,0,0,.285-.772c2.8-11.412-12.7-16.363-12.7-16.363V1039.5c10.07-5.169,12.067-40.648,12.067-40.648s15.1-43.871,17.219-51.188,0-18.277,0-18.277l1.51-9.466s3.239-6.445,3.239-7.737a19.114,19.114,0,0,1,3.659-9.029c2.366-2.8-2.585-9.466-2.585-9.466l4.313-11.177V870.242l10.07-44.508s10.556-51.842,6.9-68.81,4.313-25.594,4.313-25.594a21.2,21.2,0,0,1-2.215,1.007,64.105,64.105,0,0,0,2.6-7.15l22.657,2.8v.336h8.173s-2.585-31.888-2.585-44.743,8.711-58.992,8.711-58.992S553.76,579.494,549.883,578.2ZM449.3,540.977c0,1.259-.117,2.568-.2,3.91l-.453.688-.839-.7-1.024,1.594-.3.151c-2.215-1.141-3.357-7.67-4.951-6.26l-.218.185c-.352-.4-.7-.52-1.074-.185l-.336.285v-1.494a37.759,37.759,0,0,0,9.4,1.192C449.32,540.558,449.3,540.776,449.3,540.977Zm75.355,148.5h.487l-.806,2.115C524.44,690.882,524.541,690.194,524.659,689.473Zm-82.723,380.586-3.088-.772,1.678-.285,1.561,1.024.185.134Zm31.552-4.515c-1.024-.537-2.064-1.158-3.071-1.8C470.752,1063.933,472.078,1064.621,473.488,1065.544Z" transform="translate(74.153 -3.186)" fill="url(#linear-gradient-2)"/>
    <path id="Path_176" data-name="Path 176" d="M377.376,390.03,357.052,443h4.934L342.87,458.236l34.506,4.3Z" transform="translate(232.579 264.554)" fill="#f86d70"/>
    <path id="Path_177" data-name="Path 177" d="M377.376,390.03,357.052,443l-5.119-1.376-9.063,16.615,34.506,4.3Z" transform="translate(232.579 264.554)" fill="#c71515"/>
    <path id="Path_178" data-name="Path 178" d="M344.44,449.12h31.871l11.7-96.25H344.44Z" transform="translate(233.644 239.348)" fill="#f86d70"/>
    <path id="Path_179" data-name="Path 179" d="M344.44,449.12h31.871l11.7-96.25H344.44Z" transform="translate(233.644 239.348)" fill="#d50e0e"/>
    <path id="Path_180" data-name="Path 180" d="M336.661,532.724l6.881-1.158,15.809-2.685s47.479-10.708,57.28-11.58a61.207,61.207,0,0,0,17.186-4.9c2.568-1.108,4.2-1.947,4.2-1.947l-17.1-31.233L394.378,459.55s-16.783-3.575-23.882-13.342a15.725,15.725,0,0,1-2.2-14.9c4.33-13.426-25.862,12.839-25.862,12.839s.285,6.294,0,14.316c0,1.578-.151,3.222-.269,4.9a33.045,33.045,0,0,1-.269,3.357c-.738,7.972-2.249,16.179-5.236,21.079C329.361,499.779,336.661,532.724,336.661,532.724Z" transform="translate(179.175 82.286)" fill="#fbbebe"/>
    <path id="Path_181" data-name="Path 181" d="M338.79,458.86h.671c1.208,0,2.182-2.568,3.357-2.685,9.449-.906,18.075-2.887,24.067-9.583a15.742,15.742,0,0,1-2.2-14.886c4.33-13.426-25.862,12.822-25.862,12.822S339.142,450.838,338.79,458.86Z" transform="translate(182.82 82.557)" opacity="0.1"/>
    <path id="Path_182" data-name="Path 182" d="M316.89,438.525a36.771,36.771,0,0,0,36.788,36.788,25.623,25.623,0,0,0,3.592-.168,36.788,36.788,0,1,0-40.38-36.62Z" transform="translate(167.965 64.828)" fill="#fbbebe"/>
    <path id="Path_183" data-name="Path 183" d="M351.522,393.7c-1.208,3.122-.839,6.612-1.326,9.919-1.8,11.933-13.93,19.082-24.906,24.083s-23.362,10.926-26.853,22.456c-3.827,12.47,4.531,24.973,10.338,36.671,11.312,22.791,12.923,51.859-1.678,72.7-12.973,18.461-35.58,27.222-56.86,34.908a56.054,56.054,0,0,0,36,11.983c-4.884,14.215-22.254,18.931-37.057,21.549,7.771,7.485,18.9,10.2,29.555,11.849,7.77,1.208,15.742,2,23.5.437s15.1-5.773,19.1-12.587c3.357-5.824,4.5-13.762,10.556-16.7a19.1,19.1,0,0,1,8.61-1.259l25.174.268c7.838,0,17.119-.6,21.163-7.3a20.139,20.139,0,0,0,2.282-9.264c1.091-16.515-2.081-33.969,4.716-49.04,2.047-4.548-11.093-11.748-9.717-16.565,4.733-16.565,5.924-29.605,5.874-46.841,0-13.342,8.677-24.839,15.843-36.1s13.158-25.476,7.5-37.56C406.956,393.832,359.058,374.247,351.522,393.7Z" transform="translate(122.038 53.818)" fill="#3f3d56"/>
    <path id="Path_184" data-name="Path 184" d="M330.13,760l6.411,4.246.99.655.185.117,7.6,5.035,17.756,2.987,15.608-1.074s4.5-9.4-2.568-9.18a14.7,14.7,0,0,1-6.445-1.863l-.973-.487h0c-1.024-.537-2.047-1.141-3.054-1.779h0c-2.1-1.326-4.078-2.769-5.673-3.994-2.35-1.813-3.91-3.189-3.91-3.189Z" transform="translate(176.946 302.043)" fill="#fbbebe"/>
    <path id="Path_185" data-name="Path 185" d="M334,760.423l.99.655.185.117,7.6,5.035,17.756,2.987,15.608-1.074s4.5-9.4-2.568-9.18a14.7,14.7,0,0,1-6.445-1.863c1.242.974,2.283,2.031,2.383,2.92.285,2.4-11.547,6.713-11.547,6.713l-16.682-4.414s-2.836-.805-6.713-1.813l-.369-.1Z" transform="translate(179.571 305.862)" opacity="0.1"/>
    <path id="Path_186" data-name="Path 186" d="M317,765.468s13.678,2.987,22.875,2.132,25.04,7.065,25.04,7.065,5.354,2.518,21.818,3.592,16.464-7.284,16.464-7.284c-1.88-11.362-27.893-15.1-28.7-15.272h0a32.021,32.021,0,0,1,3.055,1.779h0c1.846,1.208,3.843,2.786,3.994,4.062.285,2.383-11.547,6.713-11.547,6.713l-16.682-4.4s-2.836-.822-6.713-1.829h-.369a143.091,143.091,0,0,0-17.488-3.608c-7.183-.772-10.859,5.337-11.614,6.713A2,2,0,0,0,317,765.468Z" transform="translate(168.04 304.913)" fill="#3f3d56"/>
    <path id="Path_187" data-name="Path 187" d="M188.54,589.443l7.267,5.572s2.115-.1,5.27-.2h1.007c4.515-.168,10.741-.336,16.028-.336a50.884,50.884,0,0,1,10.221.571c3.625,1.276,10.07-20.744,10.07-20.744l-7.284-1.678-2.417-.571-1.678-.4L221.1,570.26l-17.958,2.047L190.52,580.43Z" transform="translate(80.907 179.13)" fill="#fbbebe"/>
    <path id="Path_188" data-name="Path 188" d="M188.54,589.443l7.267,5.572s2.115-.1,5.27-.2a6.361,6.361,0,0,1-3.357-3c-4.7-13.04,18.612-18.612,18.612-18.612l10.859-.47,2.115-.1h1.678l-2.417-.571-1.678-.4-5.924-1.393-17.958,2.047-12.621,8.123Z" transform="translate(80.907 179.13)" opacity="0.1"/>
    <path id="Path_189" data-name="Path 189" d="M180.94,598.033c4.4,4.061,33.2,0,34.4-.1a18.124,18.124,0,0,1-6.529-.453,7.2,7.2,0,0,1-5.035-3.608c-4.7-13.057,18.612-18.612,18.612-18.612l10.859-.47,2.1-.1,26.4-1.141,1.275-7.267s-8.576.806-22.036,1.88c-7.569.621-16.783,1.309-26.735,1.964-27.809,1.846-34.422,19.888-34.422,19.888S176.459,593.871,180.94,598.033Z" transform="translate(74.174 176.431)" fill="#3f3d56"/>
    <path id="Path_190" data-name="Path 190" d="M373.175,460.924a7.437,7.437,0,0,0,.638,1.141l6.411,9.4,16.682,1.678.185-6.612,2.8-99.489s11.547-66.729-10.271-62.886S381.5,367.04,381.5,367.04s-2.484,29.941-4.229,38.936C375.575,414.67,367.972,450.015,373.175,460.924Z" transform="translate(204.926 -1.475)" fill="#fbbebe"/>
    <path id="Path_191" data-name="Path 191" d="M350.14,547.453l4.75,8.123,10.624,18.176s19.267,7.066,24.2,1.678c2.7-2.937,5.622-13.191,7.67-21.818,1.678-6.982,2.8-12.872,2.8-12.872Z" transform="translate(190.518 159.107)" fill="#fbbebe"/>
    <path id="Path_192" data-name="Path 192" d="M350.14,547.419l4.75,8.123a5.6,5.6,0,0,0,.806-.856c5.371-6.848,29.018-1.46,41.689-1.024,1.678-6.982,2.8-12.872,2.8-12.872Z" transform="translate(190.518 159.141)" opacity="0.1"/>
    <path id="Path_193" data-name="Path 193" d="M206.16,597.144a50.884,50.884,0,0,1,10.221.571c3.625,1.276,10.07-20.744,10.07-20.744l-9.7-2.282,26.4-1.141,1.276-7.267s-8.576.806-22.036,1.88a27.689,27.689,0,0,0-7.334,6.126l-.4.5C209.03,581.687,206.949,590.582,206.16,597.144Z" transform="translate(92.858 176.431)" opacity="0.1"/>
    <path id="Path_194" data-name="Path 194" d="M330.13,760.023l7.4,4.9c11.043-2,21.13-5.136,22.321-10.07a1.677,1.677,0,0,0,0-.235c-2.35-1.813-3.91-3.189-3.91-3.189Z" transform="translate(176.946 302.016)" opacity="0.1"/>
    <path id="Path_195" data-name="Path 195" d="M317.09,764.111a256.192,256.192,0,0,0,29.1-3.122,143.091,143.091,0,0,0-17.5-3.642C321.521,756.575,317.845,762.684,317.09,764.111Z" transform="translate(168.101 305.984)" opacity="0.1"/>
    <path id="Path_196" data-name="Path 196" d="M206.64,622.951c0,5.354,14.752,8.777,14.752,8.777l44.928,39.994s28.229,12.621,46.187,30.8,33.8,2.568,33.8,2.568c19.032-4.7,73.845-71.008,73.845-71.008s1.276,75.724,3.843,81.28-.856,20.744-2.35,27.172a75.525,75.525,0,0,0-1.074,16.246s-20.526,78.494-18.814,85.341-11.127,38.936-11.127,38.936v26.735s50.265-1.93,53.034-13.259-12.6-16.263-12.6-16.263V877.48c10.07-5.135,11.966-40.413,11.966-40.413s14.987-43.636,17.119-50.9,0-18.193,0-18.193l1.494-9.4s3.206-6.428,3.206-7.7a19.032,19.032,0,0,1,3.642-8.979c2.35-2.786-2.568-9.415-2.568-9.415l4.28-11.127V709.164l10.07-44.273s10.489-51.557,6.847-68.457,4.28-25.443,4.28-25.443c-17.169,9-25.829-11.026-28.665-19.636-.722-2.215-1.074-3.692-1.074-3.692s-23.58-8.694-45.532-6.612a52.413,52.413,0,0,0-13.074,2.769c-24.386,8.777-28.229,45.129-28.229,45.129l-21.6,32.945c-11.127,29.3-27.809,32.29-27.809,32.29s-39.138-26.3-40.279-27.591-16.044-7.7-16.044-7.7a16.951,16.951,0,0,0-7.7-7.049c-5.136-2.148-5.555-10.07-5.555-10.07-.638-18.612-11.547-20.14-11.547-20.14C206.422,578.476,206.64,617.614,206.64,622.951Z" transform="translate(93.184 159.099)" fill="#3f3d56"/>
    <rect id="Rectangle_20" data-name="Rectangle 20" width="23.093" height="71.646" transform="translate(540.658 677.475) rotate(180)" fill="#f86d70"/>
    <rect id="Rectangle_21" data-name="Rectangle 21" width="23.093" height="71.646" transform="translate(540.658 677.475) rotate(180)" fill="#c00909"/>
    <path id="Path_197" data-name="Path 197" d="M372.441,397.41a1.041,1.041,0,0,0,0,.151,7.438,7.438,0,0,0,.638,1.141l6.411,9.4,16.682,1.678.185-6.612C391.154,402.764,379.305,401.337,372.441,397.41Z" transform="translate(205.643 61.888)" opacity="0.1"/>
    <path id="Path_198" data-name="Path 198" d="M381.573,398.18s.856,37.627-8.559,42.763S359.94,472.83,359.94,472.83s28.531,18.763,34.892,27.021,20.962,27.927,17.958,32.626,7.284,26.1,7.284,26.1-18.83,38.5-14.551,53.051,4.7,53.034,4.7,53.034h8.14s-2.568-31.653-2.568-44.492,8.543-58.606,8.543-58.606,3.86-44.911,0-46.187-26.517-19.25-28.229-27.39,11.983-83.915,11.983-83.915S390.552,403.316,381.573,398.18Z" transform="translate(197.166 62.41)" fill="#d62828"/>
    <path id="Path_199" data-name="Path 199" d="M336.12,506.759a36.621,36.621,0,0,0,5.589,14.668l15.81-2.685S405,508.034,414.8,507.162a61.207,61.207,0,0,0,17.186-4.9,75.792,75.792,0,0,0-21.23-34.825l-6.025-5.589a100.949,100.949,0,0,0-30.377-19.418c.7.588,50.517,43.115,39.608,51.456S373.68,481.92,373.68,481.92l-33.4-28.7-1.208-1.041-1.93,3a28.021,28.021,0,0,1,2.87,1.376,49.14,49.14,0,0,1,23.5,29.2C370.374,508.84,336.12,506.759,336.12,506.759Z" transform="translate(181.009 92.424)" opacity="0.1"/>
    <path id="Path_200" data-name="Path 200" d="M330,547.018s31.652,17.538,39.339,7.7c1.678-2.165,5.219-3.1,9.633-3.357-.722-2.215-1.074-3.692-1.074-3.692s-23.58-8.694-45.532-6.612C330.923,544.685,330,547.018,330,547.018Z" transform="translate(176.858 159.106)" fill="#444053"/>
    <path id="Path_201" data-name="Path 201" d="M344.568,452.194l34.606,29.773s29.253,20.375,40.279,11.966-39.624-51.473-39.624-51.473h0a102.377,102.377,0,0,1,30.36,19.367l6.025,5.589c15.843,14.685,19.418,14.685,19.955,36.268.134,5.32-1.678,12.956-3.071,14.333-5.136,5.035-8.727,41.6-7.938,45.885s-9.566,41.219-6.21,51.49-41.957-5.135-49.627,4.716S330,612.4,330,612.4s17.538-44.928,21.818-47.915,9.415-26.1,0-36.788-10.254-20.962-10.254-20.962,34.237,2.115,27.373-20.962A48.435,48.435,0,0,0,342.621,455.2Z" transform="translate(176.858 92.445)" fill="#e8e8f0"/>
    <path id="Path_202" data-name="Path 202" d="M380.718,493.38S367.443,518.4,350.274,524.9c-.554.2-1.091.386-1.678.554C330.671,530.907,382.061,501.134,380.718,493.38Z" transform="translate(186.894 126.983)" opacity="0.1"/>
    <path id="Path_203" data-name="Path 203" d="M266.765,384.236s6.411,16.263,11.547,21.818,43.2,61.174,43.2,61.174l3.222,6.713,2.769,5.723,24.386-2.568,1.678-9.835-.94-1.141c-2.45-2.937-9.13-10.825-13.611-14.266-5.555-4.263-16.682-18.377-16.682-18.377s-34.64-35.949-37.208-45.784-37.224-68.81-44.911-58.606S266.765,384.236,266.765,384.236Z" transform="translate(115.194 14.744)" fill="#fbbebe"/>
    <g id="Group_5" data-name="Group 5" transform="translate(409.819 439.344)" opacity="0.1">
      <path id="Path_204" data-name="Path 204" d="M315.077,519.129a19.116,19.116,0,0,0-8.61,1.242c-6.042,2.937-7.183,10.875-10.54,16.7-3.927,6.814-11.412,11.026-19.116,12.587a42.687,42.687,0,0,1-4.632.638,52.6,52.6,0,0,0,14.7-.638c7.7-1.561,15.189-5.773,19.116-12.587,3.357-5.824,4.5-13.762,10.54-16.7a13.425,13.425,0,0,1,5.035-1.175Z" transform="translate(-272.18 -294.944)"/>
      <path id="Path_205" data-name="Path 205" d="M345.456,480.964c0-13.342,8.677-24.839,15.826-36.1s13.158-25.476,7.5-37.56c-4.833-10.322-33.969-24.167-50.785-21.432,16.464,2.131,36.755,12.973,40.715,21.432,5.656,12.084-.352,26.3-7.5,37.56s-15.86,22.758-15.826,36.1c0,17.219-1.158,30.209-5.891,46.841-1.359,4.783,11.748,12.017,9.734,16.548-6.814,15.1-3.625,32.525-4.716,49.04a20.391,20.391,0,0,1-2.3,9.264c-3.357,5.521-10.238,6.948-16.934,7.25h5.857c7.821,0,17.1-.6,21.146-7.3a20.39,20.39,0,0,0,2.3-9.264c1.091-16.514-2.1-33.952,4.716-49.04,2.048-4.531-11.093-11.748-9.734-16.548C344.3,511.24,345.489,498.183,345.456,480.964Z" transform="translate(-242.946 -385.521)"/>
    </g>
    <path id="Path_206" data-name="Path 206" d="M290.12,418.061l2.769,5.723,24.386-2.568,1.678-9.835-.94-1.141C315.412,411.515,295.927,420.9,290.12,418.061Z" transform="translate(149.807 70.59)" opacity="0.1"/>
    <path id="Path_207" data-name="Path 207" d="M379.6,481.928s-5.992-9.4-9.415-6.847-4.75-7.7-6.713-5.992-7.687,6.478-10.07-.185c-1.863-5.3-22.137-38.852-30.36-52.346-2.115-3.491-3.44-5.639-3.44-5.639s-23.093,11.547-28.648,7.7v8.123l4.7.436,25.174,46.992s7.921,12.6,7.384,17,10.154,23.647,11.866,24.923,20.139,22.674,20.139,22.674,9.415,46.2,1.276,59.042-22.237,22.237-22.237,22.237-4.246,12.4-3.625,13.695-4.934,6.847-2.366,8.559,5.991,13.678,5.991,13.678,11.983-19.25,18.461-22.237,14.769-42.36,14.769-42.36,2.366-23.194,2.551-38.164S374.462,481.928,379.6,481.928Z" transform="translate(150.37 71.051)" opacity="0.1"/>
    <path id="Path_208" data-name="Path 208" d="M378.827,481.928s-5.975-9.4-9.4-6.847-4.766-7.7-6.713-5.992-7.67,6.478-10.07-.185c-1.88-5.3-22.153-38.852-30.36-52.346l-3.44-5.639s-23.093,11.547-28.665,7.7v8.123l4.716.436,25.174,46.992s7.938,12.6,7.384,17,10.07,23.647,11.866,24.923,20.139,22.674,20.139,22.674,9.415,46.2,1.292,59.042a78.684,78.684,0,0,1-15.491,17.152,29.94,29.94,0,0,0-10.07,16.145,6.378,6.378,0,0,0-.3,2.685c.621,1.275-4.934,6.847-2.366,8.559s6.025,13.728,6.025,13.728,11.983-19.25,18.461-22.237,14.786-42.36,14.786-42.36,2.35-23.194,2.551-38.164S373.792,481.928,378.827,481.928Z" transform="translate(149.848 71.051)" fill="#d62828"/>
    <path id="Path_209" data-name="Path 209" d="M308.969,569.21s17.974,3.357,25.174,8.542-27.373-8.123-27.373-8.123Z" transform="translate(161.101 178.418)" opacity="0.1"/>
    <path id="Path_210" data-name="Path 210" d="M333.83,596.35s18.747,15.625,15.39,29.739S337.2,675.716,337.2,675.716Z" transform="translate(179.455 196.827)" opacity="0.1"/>
    <path id="Path_211" data-name="Path 211" d="M246.157,578.45s-26.416,2.887-24.7,6.31,24.7-3.155,24.7-3.155Z" transform="translate(103.177 184.685)" opacity="0.1"/>
    <path id="Path_212" data-name="Path 212" d="M362.36,659.39s1.678,2.131-8.123,0-2.568-8.71-2.568-8.71Z" transform="translate(189.812 233.678)" opacity="0.1"/>
    <path id="Path_213" data-name="Path 213" d="M363.817,673.843s-13.426,2.131-20.626,0S363.817,673.843,363.817,673.843Z" transform="translate(184.998 248.747)" opacity="0.1"/>
    <path id="Path_214" data-name="Path 214" d="M352.372,742.563s-2.35-2.568-14.114,2.131-16.464,4.917-19.888,3.357S352.372,742.563,352.372,742.563Z" transform="translate(168.819 295.527)" opacity="0.1"/>
    <path id="Path_215" data-name="Path 215" d="M353.062,576.28,336.38,599.491S345.359,579.167,353.062,576.28Z" transform="translate(181.185 183.214)" opacity="0.1"/>
    <path id="Path_216" data-name="Path 216" d="M336.815,449.15s-.722,7.7-11.48,10.707S312.53,465.3,312.53,465.3" transform="translate(165.008 96.982)" opacity="0.1"/>
    <path id="Path_217" data-name="Path 217" d="M322.068,415.88s-14.2,10.07-29.018,7.938" transform="translate(151.795 74.416)" opacity="0.1"/>
    <path id="Path_218" data-name="Path 218" d="M316.78,547.9s4.145,2.6,14.1-8.777" transform="translate(167.891 158.008)" opacity="0.1"/>
    <path id="Path_219" data-name="Path 219" d="M383.457,478c.4-2.081-1.04-4.011-2.4-5.639l-2.786-3.357a12.916,12.916,0,0,0-1.829-1.88c-1.678-1.292-3.826-1.678-5.572-2.836" transform="translate(204.579 107.252)" opacity="0.1"/>
    <path id="Path_220" data-name="Path 220" d="M966.229,123.924s-141.3-8.526-124.68,90.493c0,0-3.357,17.5,12.554,25.443,0,0,.252-7.334,14.5-4.833a66.292,66.292,0,0,0,15.356.738,31.987,31.987,0,0,0,18.763-7.754h0s39.725-16.414,55.165-81.33c0,0,11.429-14.165,10.976-17.807l-23.849,10.187s8.156,17.2,1.678,31.5c0,0-.772-30.881-5.354-30.209-.923.151-12.386,5.958-12.386,5.958s14.014,29.958,3.441,51.742c0,0,4.011-36.922-7.821-49.577l-16.783,9.8s16.38,30.948,5.27,56.206c0,0,2.853-38.735-8.811-53.823l-15.205,11.866s15.39,30.511,6.008,51.456c0,0-1.225-45.1-9.3-48.5,0,0-13.309,11.748-15.339,16.548,0,0,10.54,22.153,3.994,33.834,0,0-4.011-30.041-7.3-30.209,0,0-13.259,19.9-14.635,33.566,0,0,.571-20.29,11.429-35.445,0,0-12.822,2.2-20.307,10.506,0,0,2.064-14.064,23.58-15.289,0,0,10.959-15.1,13.88-16.028,0,0-21.381-1.779-34.354,3.961,0,0,11.412-13.275,38.282-7.233L900,157.423s-28.162-3.843-40.111.4c0,0,13.745-11.748,44.156-3.189l16.347-9.768s-24.016-5.169-38.316-3.357c0,0,15.1-8.14,43.115.688l11.748-5.253s-17.589-3.457-22.741-4.011-5.421-1.964-5.421-1.964a61.007,61.007,0,0,1,33.046,3.676S966.666,125.485,966.229,123.924Z" transform="translate(522.915 -123.74)" fill="#45a207"/>
    <path id="Path_221" data-name="Path 221" d="M834.452,138.894s-63.775-3.86-56.307,40.883c0,0-1.494,7.922,5.656,11.513,0,0,.117-3.357,6.562-2.2a29.384,29.384,0,0,0,6.931.336,14.383,14.383,0,0,0,8.476-3.508h0s17.958-7.4,24.939-36.738c0,0,5.152-6.411,4.951-8.056l-10.775,4.6s3.692,7.787.789,14.249c0,0-.353-13.963-2.417-13.628-.42,0-5.606,2.685-5.606,2.685s6.344,13.544,1.561,23.4c0,0,1.813-16.682-3.541-22.405l-7.586,4.431s7.418,13.98,2.383,25.393c0,0,1.292-17.5-3.978-24.318l-6.864,5.421s6.948,13.8,2.719,23.244c0,0-.554-20.374-4.213-21.9,0,0-6.008,5.3-6.931,7.485,0,0,4.766,10.07,1.813,15.272,0,0-1.813-13.577-3.357-13.628,0,0-5.975,9-6.612,15.1a32.811,32.811,0,0,1,5.169-16.028,18.058,18.058,0,0,0-9.18,4.75s.94-6.344,10.657-6.915c0,0,5.035-6.814,6.277-7.233,0,0-9.667-.806-15.524,1.8,0,0,5.152-6.008,17.3-3.357L804.461,154s-12.721-1.678-18.125.185c0,0,6.21-5.3,19.955-1.443l7.384-4.414s-10.842-2.35-17.32-1.494c0,0,6.831-3.692,19.485.3l5.287-2.366s-7.955-1.578-10.288-1.813-2.45-.889-2.45-.889a27.508,27.508,0,0,1,14.937,1.678S834.654,139.6,834.452,138.894Z" transform="translate(480.418 -113.518)" fill="#45a207"/>
    <ellipse id="Ellipse_17" data-name="Ellipse 17" cx="67.484" cy="11.412" rx="67.484" ry="11.412" transform="translate(1470.163 1069.339)" fill="#45a207"/>
    <path id="Path_222" data-name="Path 222" d="M986.042,769.151a19.536,19.536,0,0,0,6.428-9.717c.839-3.843-.806-8.392-4.5-9.885-4.129-1.578-8.542,1.292-11.882,4.179s-7.183,6.193-11.547,5.572a17.622,17.622,0,0,0,5.438-16.464,6.913,6.913,0,0,0-1.51-3.356c-2.3-2.451-6.445-1.41-9.2.52-8.727,6.143-11.161,18.008-11.211,28.665-.873-3.843-.134-7.854-.151-11.748s-1.108-8.391-4.448-10.456a13.275,13.275,0,0,0-6.713-1.577c-3.91-.151-8.291.252-10.959,3.121-3.357,3.558-2.467,9.533.42,13.426s7.3,6.394,11.362,9.1a25.174,25.174,0,0,1,8.106,7.737,6.974,6.974,0,0,1,.6,1.393h24.6a68.42,68.42,0,0,0,15.155-10.506Z" transform="translate(579.515 292.938)" fill="#45a207"/>
  </g>
</svg>
